<svg xmlns="http://www.w3.org/2000/svg" xmlns:xlink="http://www.w3.org/1999/xlink" viewBox="0 0 331 280.579"><defs><style>.a,.bb,.bo,.bx,.q,.r{fill:none;}.b{fill:url(#a);}.c{fill:url(#b);}.d{fill:url(#c);}.e{fill:url(#d);}.f{fill:url(#e);}.g{fill:url(#f);}.h{fill:#fff;}.i{fill:url(#g);}.j{fill:url(#h);}.k{clip-path:url(#i);}.l{fill:#f3f2f2;}.m{fill:url(#j);}.n{clip-path:url(#k);}.o{fill:url(#l);}.p{fill:url(#m);}.q{stroke:#f1f1f2;stroke-width:2.46px;}.q,.r{stroke-linecap:round;}.bb,.bm,.bo,.bq,.br,.bw,.bx,.by,.q,.r,.w{stroke-miterlimit:10;}.r{stroke:#d0d2d3;stroke-width:1.72px;}.s{fill:#d0d2d3;}.t,.w{fill:#8a5d3b;}.u{fill:#a78568;}.v{clip-path:url(#n);}.w{stroke:#a78568;}.bo,.w{stroke-width:0.15px;}.x{fill:#4e3920;}.y{fill:#c3c6ca;}.z{fill:#f1f1f2;}.aa{fill:#2a3647;}.ab{fill:#f5f5f6;}.ac,.av{fill:#58595b;}.ac,.ax,.bp{opacity:0.2;}.ad{fill:#7fc8cf;}.ae{fill:#ea7f6f;}.af{fill:#f3bc61;}.ag{fill:#476678;}.ah{clip-path:url(#o);}.ai{fill:#f4d5bd;}.aj{fill:#cdcccb;}.ak,.bm,.bp,.bq,.br,.bw,.by{fill:#e5e5e5;}.al{fill:url(#p);}.am{fill:#535666;}.an{fill:#637a80;}.ao{fill:#87a4aa;}.ap{fill:#7f8f96;}.aq{fill:#65c6c7;}.ar{fill:#dc575d;}.as{fill:#2e3a43;}.at{fill:#45556c;}.au{clip-path:url(#q);}.aw{fill:#bbbdbf;}.ay{fill:#404041;}.az{fill:#231f20;}.ba{fill:#00adee;}.bb{stroke:#000;stroke-width:0.01px;}.bc{fill:#fdf49e;}.bd{fill:url(#r);}.be{fill:#ecdd87;}.bf{fill:url(#s);}.bg{fill:url(#t);}.bh{clip-path:url(#u);}.bi{clip-path:url(#v);}.bj{fill:url(#w);}.bk{clip-path:url(#x);}.bl{fill:#989897;}.bm,.bo,.bw,.bx{stroke:#a6a8ab;}.bm{stroke-width:0.41px;}.bn{fill:#1a1a1a;}.bq{stroke:#231f20;stroke-width:0.03px;}.br,.by{stroke:#58595b;}.br{stroke-width:0.06px;}.bs{fill:#1cace4;}.bt{fill:#b3b2b3;}.bu{fill:gray;}.bv{fill:url(#y);}.bw{stroke-width:0.37px;}.bx{stroke-width:0.14px;}.by{stroke-width:0.05px;}</style><radialGradient id="a" cx="160.725" cy="10.876" r="1746.543" gradientTransform="translate(149.862 10.803) scale(0.068 0.007)" gradientUnits="userSpaceOnUse"><stop offset="0" stop-color="#676767"/><stop offset="0.1" stop-color="#8d8d8d"/><stop offset="0.22" stop-color="#b0b0b0"/><stop offset="0.34" stop-color="#cdcdcd"/><stop offset="0.47" stop-color="#e3e3e3"/><stop offset="0.61" stop-color="#f3f3f3"/><stop offset="0.77" stop-color="#fcfcfc"/><stop offset="1" stop-color="#fff"/></radialGradient><linearGradient id="b" x1="0.499" y1="1" x2="0.499" y2="0.001" gradientUnits="objectBoundingBox"><stop offset="0" stop-color="#e6e6e6"/><stop offset="0.02" stop-color="#e0e0e0"/><stop offset="0.09" stop-color="#d5d5d5"/><stop offset="0.1" stop-color="#c1c1c1"/><stop offset="0.15" stop-color="#777"/><stop offset="0.19" stop-color="#aeaeae"/><stop offset="0.22" stop-color="#dadada"/><stop offset="0.25" stop-color="#f5f5f5"/><stop offset="0.27" stop-color="#fff"/><stop offset="0.54" stop-color="#d6d6d6"/><stop offset="0.61" stop-color="#d2d2d2"/><stop offset="0.69" stop-color="#c5c5c5"/><stop offset="0.77" stop-color="#afafaf"/><stop offset="0.85" stop-color="#919191"/><stop offset="0.93" stop-color="#6b6b6b"/><stop offset="1" stop-color="#434343"/></linearGradient><linearGradient id="c" x1="0.001" y1="0.5" x2="0.999" y2="0.5" gradientUnits="objectBoundingBox"><stop offset="0" stop-color="#4d4d4d"/><stop offset="0" stop-color="#646464"/><stop offset="0" stop-color="#888"/><stop offset="0" stop-color="#a8a8a8"/><stop offset="0" stop-color="#c4c4c4"/><stop offset="0" stop-color="#dadada"/><stop offset="0" stop-color="#ebebeb"/><stop offset="0" stop-color="#f6f6f6"/><stop offset="0" stop-color="#fdfdfd"/><stop offset="0.01" stop-color="#fff"/><stop offset="0.01" stop-color="#e7e7e7"/><stop offset="0.01" stop-color="#c6c6c6"/><stop offset="0.02" stop-color="#acacac"/><stop offset="0.02" stop-color="#999"/><stop offset="0.02" stop-color="#8e8e8e"/><stop offset="0.03" stop-color="#8a8a8a"/><stop offset="0.03" stop-color="#939393"/><stop offset="0.05" stop-color="#b3b3b3"/><stop offset="0.06" stop-color="#cbcbcb"/><stop offset="0.07" stop-color="#d9d9d9"/><stop offset="0.08" stop-color="#dedede"/><stop offset="0.12" stop-color="#e6e6e6"/><stop offset="0.2" stop-color="#f4f4f4"/><stop offset="0.31" stop-color="#fdfdfd"/><stop offset="0.48" stop-color="#fff"/><stop offset="0.61" stop-color="#fafafa"/><stop offset="0.76" stop-color="#ececec"/><stop offset="0.88" stop-color="#dbdbdb"/><stop offset="0.92" stop-color="#d9d9d9"/><stop offset="0.94" stop-color="#d2d2d2"/><stop offset="0.95" stop-color="#c5c5c5"/><stop offset="0.96" stop-color="#b4b4b4"/><stop offset="0.97" stop-color="#9d9d9d"/><stop offset="0.97" stop-color="#999"/><stop offset="0.97" stop-color="#a2a2a2"/><stop offset="0.98" stop-color="#bcbcbc"/><stop offset="0.99" stop-color="#e5e5e5"/><stop offset="0.99" stop-color="#fff"/><stop offset="0.99" stop-color="#fbfbfb"/><stop offset="0.99" stop-color="#efefef"/><stop offset="0.99" stop-color="#dadada"/><stop offset="1" stop-color="#bdbdbd"/><stop offset="1" stop-color="#999"/><stop offset="1" stop-color="#8a8a8a"/></linearGradient><linearGradient id="d" x1="0.5" y1="1" x2="0.5" gradientUnits="objectBoundingBox"><stop offset="0.21" stop-color="#231f20"/><stop offset="0.22" stop-color="#3d393a"/><stop offset="0.24" stop-color="#656263"/><stop offset="0.26" stop-color="#8a8888"/><stop offset="0.29" stop-color="#aaa8a9"/><stop offset="0.32" stop-color="#c5c4c4"/><stop offset="0.35" stop-color="#dadada"/><stop offset="0.39" stop-color="#ebebeb"/><stop offset="0.44" stop-color="#f6f6f6"/><stop offset="0.51" stop-color="#fdfdfd"/><stop offset="0.7" stop-color="#fff"/></linearGradient><linearGradient id="e" y1="0.496" x2="1" y2="0.496" gradientUnits="objectBoundingBox"><stop offset="0" stop-color="#fff"/><stop offset="0.01" stop-color="#fbfbfb"/><stop offset="0.05" stop-color="#e5e5e5"/><stop offset="0.11" stop-color="#d4d4d4"/><stop offset="0.17" stop-color="#c8c8c8"/><stop offset="0.26" stop-color="#c1c1c1"/><stop offset="0.5" stop-color="#bfbfbf"/><stop offset="0.75" stop-color="#c1c1c1"/><stop offset="0.84" stop-color="#c8c8c8"/><stop offset="0.9" stop-color="#d3d3d3"/><stop offset="0.95" stop-color="#e4e4e4"/><stop offset="0.99" stop-color="#fafafa"/><stop offset="1" stop-color="#fff"/></linearGradient><linearGradient id="f" y1="0.498" x2="1" y2="0.498" gradientUnits="objectBoundingBox"><stop offset="0" stop-color="#c4c4c4"/><stop offset="0.44" stop-color="#dbdbdb"/><stop offset="1" stop-color="#f5f5f5"/></linearGradient><linearGradient id="g" x1="0.933" y1="0.744" x2="0.078" y2="0.244" gradientUnits="objectBoundingBox"><stop offset="0" stop-color="#1f1f1f"/><stop offset="1" stop-color="#0b0b0b"/></linearGradient><linearGradient id="h" x1="0.933" y1="0.733" x2="0.067" y2="0.233" gradientUnits="objectBoundingBox"><stop offset="0" stop-color="#acacac"/><stop offset="1"/></linearGradient><clipPath id="i"><rect class="a" width="307.916" height="174.756"/></clipPath><linearGradient id="j" x1="0.5" y1="1" x2="0.5" gradientUnits="objectBoundingBox"><stop offset="0" stop-color="#e6e7e8"/><stop offset="0.04" stop-color="#ebebec"/><stop offset="0.19" stop-color="#f6f7f7"/><stop offset="0.41" stop-color="#fdfdfd"/><stop offset="1" stop-color="#fff"/></linearGradient><clipPath id="k"><rect class="a" width="307.916" height="128.725"/></clipPath><linearGradient id="l" x1="-1.648" y1="-15.291" x2="-0.412" y2="-15.276" gradientUnits="objectBoundingBox"><stop offset="0" stop-color="#fff"/><stop offset="0.36" stop-color="#fdfdfd"/><stop offset="0.55" stop-color="#f5f5f5"/><stop offset="0.71" stop-color="#e7e7e7"/><stop offset="0.85" stop-color="#d3d3d3"/><stop offset="0.97" stop-color="#bababa"/><stop offset="1" stop-color="#b3b3b3"/></linearGradient><linearGradient id="m" x1="-2.129" y1="-43.285" x2="-1.294" y2="-43.678" gradientUnits="objectBoundingBox"><stop offset="0" stop-color="#fff"/><stop offset="0.3" stop-color="#fcfcfc"/><stop offset="0.48" stop-color="#f4f4f4"/><stop offset="0.63" stop-color="#e5e5e5"/><stop offset="0.77" stop-color="#d1d1d1"/><stop offset="0.89" stop-color="#b6b6b6"/><stop offset="1" stop-color="#999"/></linearGradient><clipPath id="n"><path class="a" d="M20,46.81a5.7,5.7,0,1,1,7.785,2.082A5.7,5.7,0,0,1,20,46.81Z" transform="translate(-19.23 -38.248)"/></clipPath><clipPath id="o"><rect class="a" width="87.401" height="84.051" transform="translate(0)"/></clipPath><linearGradient id="p" x1="45.03" y1="0.436" x2="46.031" y2="0.209" gradientUnits="objectBoundingBox"><stop offset="0" stop-color="#fff"/><stop offset="0.17" stop-color="#f9f9f9"/><stop offset="0.39" stop-color="#e8e8e8"/><stop offset="0.64" stop-color="#cdcdcd"/><stop offset="0.91" stop-color="#a7a7a7"/><stop offset="1" stop-color="#999"/></linearGradient><clipPath id="q"><rect class="a" width="76.04" height="61.647" transform="translate(0)"/></clipPath><linearGradient id="r" x1="-30.677" y1="322.833" x2="-29.591" y2="322.833" gradientUnits="objectBoundingBox"><stop offset="0.36" stop-color="#e4d86e"/><stop offset="0.52" stop-color="#f5eb8c"/><stop offset="0.63" stop-color="#fdf49e"/></linearGradient><linearGradient id="s" x1="-0.786" y1="-14.523" x2="-0.049" y2="-14.903" gradientUnits="objectBoundingBox"><stop offset="0" stop-color="#fff"/><stop offset="0.24" stop-color="#fcfcfc"/><stop offset="0.43" stop-color="#f2f2f2"/><stop offset="0.6" stop-color="#e1e1e1"/><stop offset="0.77" stop-color="#cacaca"/><stop offset="0.92" stop-color="#acacac"/><stop offset="1" stop-color="#999"/></linearGradient><linearGradient id="t" x1="-3.816" y1="-53.57" x2="-3.01" y2="-54.104" gradientUnits="objectBoundingBox"><stop offset="0" stop-color="#fff"/><stop offset="0.2" stop-color="#fbfbfb"/><stop offset="0.4" stop-color="#efefef"/><stop offset="0.6" stop-color="#dadada"/><stop offset="0.8" stop-color="#bebebe"/><stop offset="1" stop-color="#9a9a9a"/><stop offset="1" stop-color="#999"/></linearGradient><clipPath id="u"><path class="a" d="M74.55,43.962A5.7,5.7,0,1,1,77.9,41.136,5.7,5.7,0,0,1,74.55,43.962Z" transform="translate(-67.131 -32.818)"/></clipPath><clipPath id="v"><rect class="a" width="42.003" height="66.128"/></clipPath><linearGradient id="w" x1="-2.469" y1="-36.61" x2="-1.651" y2="-36.659" gradientUnits="objectBoundingBox"><stop offset="0" stop-color="#fff"/><stop offset="0.3" stop-color="#fcfcfc"/><stop offset="0.49" stop-color="#f4f4f4"/><stop offset="0.64" stop-color="#e6e6e6"/><stop offset="0.77" stop-color="#d1d1d1"/><stop offset="0.89" stop-color="#b7b7b7"/><stop offset="1" stop-color="#999"/></linearGradient><clipPath id="x"><rect class="a" width="96.091" height="69.749"/></clipPath><linearGradient id="y" x1="81.049" y1="-185.179" x2="81.688" y2="-184.376" gradientUnits="objectBoundingBox"><stop offset="0.27" stop-color="#fff"/><stop offset="0.49" stop-color="#fcfcfc"/><stop offset="0.63" stop-color="#f4f4f4"/><stop offset="0.74" stop-color="#e6e6e6"/><stop offset="0.83" stop-color="#d1d1d1"/><stop offset="0.92" stop-color="#b7b7b7"/><stop offset="1" stop-color="#999"/></linearGradient></defs><g transform="translate(-2.87)"><g transform="translate(2.87 0)"><ellipse class="b" cx="160.725" cy="10.863" rx="160.725" ry="10.863" transform="translate(5.16 258.853)"/><path class="c" d="M124.889,91.216a12.9,12.9,0,0,1-4.255-1.856,12.9,12.9,0,0,1-1.267-4.526l-.634-3.938c-.317-2.037-.724-5.386-.905-7.423l-1.72-18.738a3.847,3.847,0,0,0-3.983-3.349L92.12,50.752c-2.082,0-3.757-.453-3.757-.815s-1.629-.543-3.666-.362a49.794,49.794,0,0,1-7.332,0c-2.037,0-3.711,0-3.711.362s-1.675.724-3.711.769l-20.1.453a4.255,4.255,0,0,0-4.074,3.8L44.187,73.474a59.2,59.2,0,0,1-.86,7.423l-.634,3.938a14.031,14.031,0,0,1-1.267,4.526,13.579,13.579,0,0,1-4.255,1.856l-6.563,1.81c-1.992.543-3.3,1.132-2.942,1.267a26.343,26.343,0,0,0,4.526.226H130a26.753,26.753,0,0,0,4.526-.226c.362,0-1-.724-2.942-1.267Z" transform="translate(84.356 174.562)"/><path class="d" d="M130.1,59.626H32.106L27.58,59.4s.543,1.72,4.526,1.72H130.1c3.847,0,4.526-1.72,4.526-1.72Z" transform="translate(84.262 209.456)"/><path class="e" d="M130.1,59.626H32.106L27.58,59.4s.543,1.72,4.526,1.72H130.1c3.847,0,4.526-1.72,4.526-1.72Z" transform="translate(84.262 209.456)"/><path class="f" d="M111.388,64.09H30.46l1.4-6.02h78.212Z" transform="translate(94.417 204.766)"/><path class="g" d="M2.87,68.041a9.052,9.052,0,0,0,8.238,8.373H325.587a9.052,9.052,0,0,0,8.283-8.373V43.6H2.87Z" transform="translate(-2.87 153.742)"/><path d="M326.221,0H10.429A7.559,7.559,0,0,0,2.87,7.559V197.342h331V7.559A7.559,7.559,0,0,0,326.221,0Z" transform="translate(-2.87 0)"/><rect class="h" width="307.916" height="174.756" transform="translate(11.723 12.085)"/><path class="i" d="M43.034,2.427A2.037,2.037,0,1,1,41,.39,2.037,2.037,0,0,1,43.034,2.427Z" transform="translate(124.39 1.376)"/><path class="j" d="M40.618,1.369A.679.679,0,1,1,39.939.69a.679.679,0,0,1,.679.679Z" transform="translate(125.448 2.434)"/><g class="k" transform="translate(11.723 12.085)"><rect class="l" width="307.916" height="174.756"/><rect class="m" width="307.916" height="10.501" transform="translate(0 164.255)"/><g class="n" transform="translate(0 46.031)"><path class="o" d="M1.77,44.425,40.6,28.9,53.052,84.482,2.177,105.709Z" transform="translate(-18.472 43.791)"/><path class="p" d="M13.35,50.989,42.408,38.18l8.147,14.348L22.493,65.337Z" transform="translate(22.362 76.514)"/><line class="q" x2="1.222" y2="2.127" transform="translate(71.287 126.326)"/><line class="r" x2="1.222" y2="2.127" transform="translate(71.287 126.326)"/><path class="h" d="M25.946,39.273a5.567,5.567,0,0,1,4.934,2.852A5.7,5.7,0,0,1,28.8,49.909a5.839,5.839,0,0,1-2.852.769A5.748,5.748,0,0,1,23.095,40a5.93,5.93,0,0,1,2.851-.724m0-1.313h0a7.151,7.151,0,0,0-3.485.905A6.97,6.97,0,0,0,19.2,43.12a6.88,6.88,0,0,0,.679,5.341,7.016,7.016,0,0,0,6.065,3.485,7.468,7.468,0,0,0,3.53-.905,6.885,6.885,0,0,0-3.53-12.9Z" transform="translate(42.082 75.738)"/><g transform="translate(61.693 114.331)"><path class="s" d="M25.426,38.779A5.567,5.567,0,0,1,30.36,41.63a5.7,5.7,0,0,1-2.082,7.785,5.839,5.839,0,0,1-2.852.769A5.748,5.748,0,0,1,22.575,39.5a5.93,5.93,0,0,1,2.851-.724m0-.679h0a6.518,6.518,0,0,0-3.168.86,6.11,6.11,0,0,0-2.942,3.847,6.292,6.292,0,0,0,.634,4.843,6.382,6.382,0,0,0,11.632-1.539,6.7,6.7,0,0,0-.634-4.843A6.427,6.427,0,0,0,25.426,38.1Z" transform="translate(-19.09 -38.1)"/></g><path class="t" d="M20,46.81a5.7,5.7,0,1,1,7.785,2.082A5.7,5.7,0,0,1,20,46.81Z" transform="translate(43.096 76.755)"/><path class="u" d="M26.521,45.534a5.341,5.341,0,0,1-7.151-1.041,1.629,1.629,0,0,0,0,.407,5.7,5.7,0,0,0,9.867-5.7,1.855,1.855,0,0,0,0-.407,5.386,5.386,0,0,1-2.716,6.744Z" transform="translate(43.544 78.665)"/><g class="v" transform="translate(62.326 115.003)"><path class="u" d="M20.78,39.268a.634.634,0,0,0-.769.407.6.6,0,1,0,.769-.407Z" transform="translate(-16.617 -34.735)"/><path class="u" d="M20.8,38.954a.317.317,0,0,0-.362,0,.288.288,0,0,0,.407.407.317.317,0,0,0-.045-.407Z" transform="translate(-15.189 -35.96)"/><path class="u" d="M20.742,39.26H20.47v.272H20.7S20.832,39.26,20.742,39.26Z" transform="translate(-14.858 -34.681)"/><path class="u" d="M22.888,41.531a.769.769,0,0,0,.951-.453,1.132,1.132,0,0,0,0-.362.634.634,0,0,0,0-.272h0a1.086,1.086,0,0,0,0-2.082,1.041,1.041,0,0,0-1.4.679h0a1.177,1.177,0,0,0-.634-.5,1.132,1.132,0,0,0-1.4.724.905.905,0,0,0,0,.317,1.494,1.494,0,0,0-1,.95,1.4,1.4,0,0,0,.905,1.81,1.494,1.494,0,0,0,2.082-.815,1.855,1.855,0,0,0,0-.5h0A.769.769,0,0,0,22.888,41.531Z" transform="translate(-18.906 -38.129)"/><path class="w" d="M20.787,38.8a.634.634,0,0,0-.769.407.588.588,0,0,0,.407.769.616.616,0,1,0,.362-1.177Z" transform="translate(-16.578 -36.392)"/><path class="w" d="M20.633,39.332a.407.407,0,0,0-.5.272.362.362,0,0,0,.226.5.409.409,0,1,0,.272-.769Z" transform="translate(-16.153 -34.481)"/><path class="t" d="M20.758,39.769a1.041,1.041,0,0,0,0-.769,1.086,1.086,0,0,0-.5-.634.769.769,0,0,1,.905.5.815.815,0,0,1-.407.905Z" transform="translate(-15.599 -37.906)"/><path class="t" d="M19.49,39.3a1.448,1.448,0,0,0,.724,0,1.72,1.72,0,0,0,.724-.272c0,.272-.272.5-.679.5S19.535,39.528,19.49,39.3Z" transform="translate(-18.314 -35.492)"/></g><g transform="translate(62.377 115.01)"><path class="x" d="M24.893,38.7h0a5.25,5.25,0,0,1,4.526,2.625,5.16,5.16,0,0,1-1.9,7.106,5.477,5.477,0,0,1-2.625.724A5.205,5.205,0,0,1,19.869,42.6a5.069,5.069,0,0,1,2.444-3.168,5.16,5.16,0,0,1,2.58-.724m0-.453a5.93,5.93,0,0,0-2.851.724,5.748,5.748,0,0,0,2.851,10.682,5.839,5.839,0,0,0,2.851-.769A5.7,5.7,0,0,0,29.826,41.1a5.567,5.567,0,0,0-4.934-2.852Z" transform="translate(-19.241 -38.25)"/></g><path class="h" d="M62.156,60.658c-.362-.407-3.214-3.123-6.88-6.653l-18.1-17.335-6.88-6.608c-1.222-1.177-2.263-1.72-3.666-.272L6.077,51.243c-1.086,1.132-1.584,2.263,0,3.53l7.242,7.016,18.1,17.335,7.287,6.97c1.313,1.313,2.444.769,3.53-.362L62.88,64.279C63.967,62.83,63.6,61.789,62.156,60.658Z" transform="translate(-6.846 43.852)"/><rect class="y" width="17.652" height="43.361" rx="0.14" transform="matrix(0.693, -0.721, 0.721, 0.693, 9.871, 88.557)"/><rect class="s" width="11.768" height="16.158" rx="0.14" transform="matrix(0.693, -0.721, 0.721, 0.693, 10.549, 107.541)"/><path class="z" d="M60.438,67.631,39.256,47.263l-1.041-1.041c-4.3-4.074-19.825-19.055-21.183-20.368s-2.173,0-2.173,0l-4.526,14.62a.905.905,0,0,0,.362.815L27.352,57.357,28.438,58.4,45.049,74.6a.86.86,0,0,0,.815.272l14.62-5.16a1.313,1.313,0,0,0-.045-2.082Z" transform="translate(11.709 30.994)"/><path class="aa" d="M60.385,67.629,39.2,47.261l-1.086-.86L16.933,26.033c-1.584-1.539-1.9,0-1.9,0l-4.752,14.8a1.567,1.567,0,0,0,.317.815l16.521,15.8L28.2,58.486,45.222,74.554c.453.453.815.317.815.317l14.62-5.341S61.969,69.032,60.385,67.629Z" transform="translate(11.536 31.269)"/><path class="ab" d="M40.668,50.1l-9.55-9.188L15.593,25.98,10.75,39.2,22.2,50.24l9.55,9.188,11.451,11,13.035-5.341Z" transform="translate(13.194 33.494)"/><path class="aa" d="M12.675,37.025h-.317L8.511,33.314a.226.226,0,0,1,0-.362l1.358-1.358a.272.272,0,0,1,.362,0l3.847,3.666a.272.272,0,0,1,0,.362Z" transform="translate(4.978 53.046)"/><rect class="aa" width="2.399" height="2.399" rx="0.06" transform="matrix(0.693, -0.721, 0.721, 0.693, 17.876, 90.597)"/><path class="aa" d="M9.548,35.313a.272.272,0,0,1-.362,0L8.054,34a.272.272,0,0,1,0-.362l1.358-1.584a.272.272,0,0,1,.362,0l1.358,1.313a.272.272,0,0,1,0,.362Z" transform="translate(3.443 54.668)"/><path class="aa" d="M10.175,35.823a.226.226,0,0,1-.362,0l-1.4-1.358v-.317l1.584-1.675a.272.272,0,0,1,.362,0l1.4,1.313a.272.272,0,0,1,0,.362Z" transform="translate(4.942 56.149)"/><path class="aa" d="M10.634,36.218h-.362L8.914,34.905a.272.272,0,0,1,0-.362L10.5,32.914a.272.272,0,0,1,.362,0l1.358,1.313a.272.272,0,0,1,0,.362Z" transform="translate(6.475 57.7)"/><path class="aa" d="M14.619,40.053a.272.272,0,0,1-.362,0l-1.4-1.313a.272.272,0,0,1,0-.362L14.438,36.7a.272.272,0,0,1,.362,0l1.4,1.313a.272.272,0,0,1,0,.362Z" transform="translate(20.368 71.065)"/><path class="aa" d="M11.682,37.157a.272.272,0,0,1-.362,0L9.374,35.3a.272.272,0,0,1,0-.362l1.584-1.629h.362l1.946,1.81a.272.272,0,0,1,0,.362Z" transform="translate(8.097 59.341)"/><path class="aa" d="M14.554,39.991a.272.272,0,0,1-.362,0l-1.9-1.856a.226.226,0,0,1,0-.362l1.584-1.629a.272.272,0,0,1,.362,0L16.138,38a.272.272,0,0,1,0,.362Z" transform="translate(18.306 69.09)"/><path class="aa" d="M20,45.285a.272.272,0,0,1-.362,0L9.91,35.915V35.6l1.584-1.675a.272.272,0,0,1,.362,0l9.686,9.324a.226.226,0,0,1,0,.362Z" transform="translate(10.232 61.262)"/><path class="aa" d="M11.729,36.046h-.362l-1.4-1.313a.272.272,0,0,1,0-.362l1.313-1.358a.272.272,0,0,1,.362,0l1.4,1.313a.272.272,0,0,1,0,.362Z" transform="translate(10.178 58.053)"/><path class="aa" d="M12.17,36.443a.272.272,0,0,1-.362,0L10.451,35.13a.226.226,0,0,1,0-.362l1.313-1.358h.362l1.358,1.313a.272.272,0,0,1,0,.362Z" transform="translate(11.818 59.694)"/><path class="aa" d="M12.659,36.982a.272.272,0,0,1-.362,0l-1.4-1.313a.272.272,0,0,1,0-.362l1.313-1.4a.272.272,0,0,1,.362,0l1.4,1.313a.272.272,0,0,1,0,.362Z" transform="translate(13.457 61.191)"/><path class="aa" d="M13.03,37.452a.272.272,0,0,1-.362,0L11.31,36.094v-.317l1.313-1.4a.272.272,0,0,1,.362,0l1.358,1.313a.272.272,0,0,1,0,.362Z" transform="translate(15.168 62.849)"/><rect class="aa" width="2.399" height="2.399" rx="0.06" transform="matrix(0.693, -0.721, 0.721, 0.693, 28.389, 100.741)"/><rect class="aa" width="2.399" height="2.399" rx="0.06" transform="matrix(0.693, -0.721, 0.721, 0.693, 30.517, 102.747)"/><path class="aa" d="M14.519,38.877a.272.272,0,0,1-.362,0l-1.4-1.448a.272.272,0,0,1,0-.362l1.313-1.4a.272.272,0,0,1,.362,0l1.4,1.358v.317Z" transform="translate(20.016 67.397)"/><rect class="aa" width="2.399" height="2.399" rx="0.06" transform="translate(34.696 106.787) rotate(-46.1)"/><rect class="aa" width="2.399" height="2.399" rx="0.06" transform="matrix(0.693, -0.721, 0.721, 0.693, 36.805, 108.845)"/><path class="aa" d="M11.435,35a.272.272,0,0,1-.362,0l-1.4-1.358v-.317l1.313-1.4a.272.272,0,0,1,.362,0l1.4,1.313a.272.272,0,0,1,0,.362Z" transform="translate(9.385 54.209)"/><rect class="aa" width="2.399" height="2.399" rx="0.06" transform="matrix(0.693, -0.721, 0.721, 0.693, 21.006, 89.697)"/><path class="aa" d="M12.218,35.715a.272.272,0,0,1-.362,0L8.914,32.909a.272.272,0,0,1,0-.362l1.313-1.4a.272.272,0,0,1,.362,0l2.942,2.806a.272.272,0,0,1,0,.362Z" transform="translate(6.475 51.459)"/><rect class="aa" width="2.399" height="2.399" rx="0.06" transform="matrix(0.693, -0.721, 0.721, 0.693, 23.102, 91.781)"/><path class="aa" d="M12.844,36.342a.272.272,0,0,1-.362,0l-1.358-1.313a.272.272,0,0,1,0-.362l1.313-1.4a.272.272,0,0,1,.362,0l1.358,1.358v.317Z" transform="translate(14.268 58.935)"/><path class="aa" d="M13.349,36.792a.272.272,0,0,1-.362,0l-1.4-1.313a.272.272,0,0,1,0-.362l1.313-1.4a.272.272,0,0,1,.362,0l1.4,1.313a.272.272,0,0,1,0,.362Z" transform="translate(15.89 60.521)"/><rect class="aa" width="2.399" height="2.399" rx="0.06" transform="matrix(0.693, -0.721, 0.721, 0.693, 29.422, 97.846)"/><path class="aa" d="M14.279,37.593a.272.272,0,0,1-.362,0l-1.4-1.313a.272.272,0,0,1,0-.362l1.358-1.358h.317l1.4,1.313a.272.272,0,0,1,0,.362Z" transform="translate(19.169 63.749)"/><path class="aa" d="M14.7,38.113a.272.272,0,0,1-.362,0L12.984,36.8a.272.272,0,0,1,0-.362L14.3,35.081a.226.226,0,0,1,.362,0l1.358,1.358v.317Z" transform="translate(20.827 65.265)"/><rect class="aa" width="2.399" height="2.399" rx="0.06" transform="matrix(0.693, -0.721, 0.721, 0.693, 35.742, 103.866)"/><path class="aa" d="M15.634,38.986h-.362l-1.358-1.313a.272.272,0,0,1,0-.362l1.313-1.358a.272.272,0,0,1,.362,0l1.358,1.313a.226.226,0,0,1,0,.362Z" transform="translate(24.106 68.42)"/><path class="aa" d="M16.12,39.433a.272.272,0,0,1-.362,0L14.4,38.12a.226.226,0,0,1,0-.362L15.758,36.4a.226.226,0,0,1,.362,0l1.358,1.313a.272.272,0,0,1,0,.362Z" transform="translate(25.747 69.92)"/><rect class="aa" width="2.399" height="4.436" rx="0.06" transform="matrix(0.693, -0.721, 0.721, 0.693, 42.065, 109.978)"/><rect class="aa" width="2.399" height="2.399" rx="0.06" transform="matrix(0.693, -0.721, 0.721, 0.693, 20.159, 85.06)"/><rect class="aa" width="2.399" height="2.399" rx="0.06" transform="matrix(0.693, -0.721, 0.721, 0.693, 22.301, 87.099)"/><path class="aa" d="M12.014,34.747a.272.272,0,0,1-.362,0L9.344,32.394a.272.272,0,0,1,0-.362l1.313-1.358a.272.272,0,0,1,.362,0l2.308,2.173a.272.272,0,0,1,0,.362Z" transform="translate(7.991 49.802)"/><rect class="aa" width="2.399" height="2.399" rx="0.06" transform="matrix(0.693, -0.721, 0.721, 0.693, 20.159, 85.06)"/><path class="aa" d="M12.664,35.293a.272.272,0,0,1-.362,0L10.944,33.98a.272.272,0,0,1,0-.362l1.313-1.358a.226.226,0,0,1,.362,0l1.358,1.358v.362Z" transform="translate(13.633 55.321)"/><rect class="aa" width="2.399" height="2.399" rx="0.06" transform="translate(26.512 91.15) rotate(-46.1)"/><path class="aa" d="M13.594,36.2a.226.226,0,0,1-.362,0l-1.358-1.358a.272.272,0,0,1,0-.362l1.313-1.358a.272.272,0,0,1,.362,0l1.358,1.313a.226.226,0,0,1,0,.362Z" transform="translate(16.913 58.441)"/><path class="aa" d="M14.08,36.616a.272.272,0,0,1-.362,0L12.361,35.3a.226.226,0,0,1,0-.362l1.358-1.358a.272.272,0,0,1,.362,0L15.438,34.9a.272.272,0,0,1,0,.362Z" transform="translate(18.553 60.063)"/><path class="aa" d="M14.524,37.013a.272.272,0,0,1-.362,0L12.8,35.7a.272.272,0,0,1,0-.362l1.132-1.267a.226.226,0,0,1,.362,0l1.358,1.358a.226.226,0,0,1,0,.362Z" transform="translate(20.192 61.704)"/><path class="aa" d="M15.01,37.552a.272.272,0,0,1-.362,0l-1.358-1.313a.226.226,0,0,1,0-.362l1.358-1.4a.272.272,0,0,1,.362,0l1.358,1.313a.272.272,0,0,1,0,.362Z" transform="translate(21.833 63.201)"/><path class="aa" d="M15.454,37.992h-.317l-1.4-1.358a.272.272,0,0,1,0-.362l1.313-1.358a.272.272,0,0,1,.362,0l1.358,1.313a.226.226,0,0,1,0,.362Z" transform="translate(23.471 64.753)"/><path class="aa" d="M15.87,38.416a.226.226,0,0,1-.362,0L14.15,37.1v-.362l1.313-1.358a.272.272,0,0,1,.362,0L17.183,36.7a.272.272,0,0,1,0,.362Z" transform="translate(25.183 66.41)"/><path class="aa" d="M16.394,38.8h-.317l-1.4-1.313a.272.272,0,0,1,0-.362l1.313-1.358h.362l1.4,1.313a.272.272,0,0,1,0,.362Z" transform="translate(26.786 68.015)"/><path class="aa" d="M16.87,39.342a.272.272,0,0,1-.362,0l-1.358-1.313a.226.226,0,0,1,0-.362l1.313-1.4a.272.272,0,0,1,.362,0l1.358,1.313a.272.272,0,0,1,0,.362Z" transform="translate(28.391 69.513)"/><rect class="aa" width="2.399" height="2.399" rx="0.06" transform="translate(45.442 109.402) rotate(-46.1)"/><rect class="aa" width="2.399" height="2.399" rx="0.06" transform="translate(19.098 80.136) rotate(-46.1)"/><rect class="aa" width="2.399" height="2.399" rx="0.06" transform="matrix(0.693, -0.721, 0.721, 0.693, 21.237, 82.166)"/><path class="aa" d="M12.394,34.186a.272.272,0,0,1-.362,0l-1.358-1.313a.272.272,0,0,1,0-.362l1.313-1.358a.272.272,0,0,1,.362,0l1.358,1.313a.226.226,0,0,1,0,.362Z" transform="translate(12.681 51.494)"/><path class="aa" d="M12.91,34.653a.272.272,0,0,1-.362,0L11.191,33.34a.226.226,0,0,1,0-.362l1.358-1.358a.226.226,0,0,1,.362,0l1.358,1.358a.272.272,0,0,1,0,.362Z" transform="translate(14.428 53.064)"/><path class="aa" d="M13.394,35.124a.272.272,0,0,1-.362,0l-1.358-1.313a.272.272,0,0,1,0-.362l1.313-1.4a.272.272,0,0,1,.407.045L14.752,33.4v.362Z" transform="translate(16.207 54.63)"/><rect class="aa" width="2.399" height="2.399" rx="0.06" transform="translate(29.642 90.249) rotate(-46.1)"/><path class="aa" d="M14.284,35.976h-.317l-1.4-1.313a.272.272,0,0,1,0-.362l1.313-1.358a.272.272,0,0,1,.362,0L15.6,34.256a.226.226,0,0,1,0,.362Z" transform="translate(19.346 57.806)"/><rect class="aa" width="2.399" height="2.399" rx="0.06" transform="matrix(0.693, -0.721, 0.721, 0.693, 33.878, 94.315)"/><path class="aa" d="M15.214,36.912H14.9l-1.4-1.313a.272.272,0,0,1,0-.362l1.313-1.4a.272.272,0,0,1,.362,0l1.4,1.313a.272.272,0,0,1,0,.362Z" transform="translate(22.625 60.944)"/><rect class="aa" width="2.399" height="2.399" rx="0.06" transform="translate(38.059 98.356) rotate(-46.1)"/><rect class="aa" width="2.399" height="2.399" rx="0.06" transform="matrix(0.693, -0.721, 0.721, 0.693, 40.166, 100.413)"/><rect class="aa" width="2.399" height="2.399" rx="0.06" transform="matrix(0.693, -0.721, 0.721, 0.693, 42.294, 102.42)"/><path class="aa" d="M17.119,38.561a.272.272,0,0,1-.362,0l-1.4-1.132a.272.272,0,0,1,0-.362l1.313-1.4a.272.272,0,0,1,.362,0l1.4,1.313a.272.272,0,0,1,0,.362Z" transform="translate(29.184 67.397)"/><path class="aa" d="M18.4,40.012a.272.272,0,0,1-.362,0L15.77,37.794v-.317l1.313-1.4a.272.272,0,0,1,.362,0l2.263,2.218a.226.226,0,0,1,0,.362Z" transform="translate(30.895 68.843)"/><path class="aa" d="M11.969,32.4h-.362L10.2,31.04a.272.272,0,0,1,0-.362l.679-.724a.272.272,0,0,1,.362,0l1.448,1.358a.272.272,0,0,1,0,.362Z" transform="translate(11.024 47.263)"/><rect class="aa" width="1.539" height="2.489" rx="0.06" transform="matrix(0.693, -0.721, 0.721, 0.693, 23.212, 80.228)"/><rect class="aa" width="1.539" height="2.489" rx="0.06" transform="matrix(0.693, -0.721, 0.721, 0.693, 25.359, 82.323)"/><path class="aa" d="M13.429,33.8a.272.272,0,0,1-.362,0l-1.4-1.358a.272.272,0,0,1,0-.362l.679-.724a.226.226,0,0,1,.362,0l1.448,1.4a.272.272,0,0,1,0,.362Z" transform="translate(16.172 52.148)"/><path class="aa" d="M13.889,34.194a.272.272,0,0,1-.362,0l-1.4-1.358a.272.272,0,0,1,0-.362l.679-.724h.362l1.448,1.358a.272.272,0,0,1,0,.362Z" transform="translate(17.794 53.84)"/><path class="aa" d="M14.386,34.708a.272.272,0,0,1-.362,0l-1.4-1.358a.226.226,0,0,1,0-.362l.679-.724a.272.272,0,0,1,.362,0l1.448,1.358a.272.272,0,0,1,0,.362Z" transform="translate(19.47 55.408)"/><path class="aa" d="M14.866,35.168H14.5L13.1,33.81a.226.226,0,0,1,0-.362l.679-.724a.272.272,0,0,1,.362,0l1.448,1.358a.272.272,0,0,1,0,.362Z" transform="translate(21.163 57.03)"/><path class="aa" d="M15.346,35.663a.226.226,0,0,1-.362,0l-1.4-1.4a.226.226,0,0,1,0-.362l.679-.724a.272.272,0,0,1,.362,0l1.448,1.358a.272.272,0,0,1,0,.362Z" transform="translate(22.855 58.617)"/><rect class="aa" width="1.539" height="2.489" rx="0.06" transform="translate(38.397 94.863) rotate(-46.1)"/><path class="aa" d="M16.235,36.575a.272.272,0,0,1-.362,0l-1.4-1.358v-.362l.679-.724a.226.226,0,0,1,.362,0l1.448,1.4a.272.272,0,0,1,0,.362Z" transform="translate(26.311 61.915)"/><rect class="aa" width="1.539" height="2.489" rx="0.06" transform="translate(42.736 99.055) rotate(-46.1)"/><path class="aa" d="M17.2,37.478a.272.272,0,0,1-.362,0l-1.4-1.358v-.362l.679-.724a.272.272,0,0,1,.362,0l1.448,1.358a.272.272,0,0,1,0,.362Z" transform="translate(29.696 65.176)"/><path class="aa" d="M17.675,37.958h-.362L15.91,36.6v-.362l.679-.724a.272.272,0,0,1,.362,0L18.4,36.872a.272.272,0,0,1,0,.362Z" transform="translate(31.389 66.868)"/><rect class="aa" width="1.539" height="2.489" rx="0.06" transform="translate(49.254 105.33) rotate(-46.1)"/><path class="aa" d="M18.544,42.663a.226.226,0,0,1-.362,0L14.154,38.77a.272.272,0,0,1,0-.362l1.313-1.358a.226.226,0,0,1,.362,0L19.857,40.9a.272.272,0,0,1,0,.362Z" transform="translate(24.952 72.212)"/><path class="aa" d="M15.748,39.119a.272.272,0,0,0,0-.362l-1.494-1.4a.272.272,0,0,0-.362,0l-.588.679a.272.272,0,0,0,0,.362l1.448,1.4a.272.272,0,0,0,.362,0Z" transform="translate(21.955 73.357)"/><path class="aa" d="M16.208,39.569a.272.272,0,0,0,0-.362L14.76,37.8a.272.272,0,0,0-.362,0l-.634.634a.272.272,0,0,0,0,.362l1.494,1.4h.362Z" transform="translate(23.577 74.943)"/><path class="aa" d="M16.374,39.349a.272.272,0,0,0,0-.362l-1.494-1.4a.272.272,0,0,0-.362,0l-.5.543a.226.226,0,0,0,0,.362l1.448,1.4a.272.272,0,0,0,.362,0Z" transform="translate(24.407 74.168)"/><rect class="aa" width="1.403" height="2.535" rx="0.06" transform="translate(39.239 115.632) rotate(-46.1)"/><path class="ac" d="M54.038,49.112,38.875,34.719,12.08,30.6l8.69,8.328,1.086,1.041L38.875,56.037c.453.453.815.317.815.317l14.62-5.341S55.622,50.515,54.038,49.112Z" transform="translate(17.883 49.785)"/><path class="ad" d="M23,38.273h-.362L12.047,27.908a.453.453,0,0,1,0-.453l.362-.905h.317L23.77,37.1a.317.317,0,0,1,0,.407Z" transform="translate(17.554 35.504)"/><path class="ae" d="M20.456,39.544h-.272l-9.052-8.509a.588.588,0,0,1,0-.362l.905-2.263h.272l9.369,9.052v.317Z" transform="translate(14.441 42.063)"/><path class="af" d="M22.829,41.407a.317.317,0,0,1-.317,0L13.46,32.9V32.58l1.358-1.81h.317l9.414,9.052v.317Z" transform="translate(22.749 50.385)"/><path class="ad" d="M25.234,43.289h-.362L15.82,34.779v-.272l1.856-1.358h.317L27.407,42.2v.272Z" transform="translate(31.071 58.777)"/><path class="s" d="M44.226,63.239h-.407L11.456,32.28a.634.634,0,0,1,0-.407l1.856-4.752h.317L49.159,61.112v.317Z" transform="translate(15.565 37.514)"/><path class="ag" d="M38.749,53.042a.5.5,0,0,1-.453,0L14.76,30.412V30l.543-.724h.407L39.79,52.273v.317Z" transform="translate(27.334 45.13)"/><g class="ah" transform="translate(-17.652 75.723)"><path class="ai" d="M26.577,43.694c-.86,1.448-.951,1.72-1.177,1.992s.226-1.086.905-2.761c1.132-2.716,0-3.757-1.177-2.218s-2.173,3.938-2.444,3.53.679-1.946,1.584-4.526-.86-3.168-1.992-1.313-1.584,4.119-2.037,4.164,1.539-4.526,1.4-6.02-1.448-1.629-2.082,0A60.334,60.334,0,0,1,16.122,46c-1.041.905-.724-2.806-1.4-3.666s-1.584,0-1.81.362-.815.588.679,5.929c1.222,4.526-.86,6.88-.226,7.151l3.8,1.629,2.082.86c.634.272,2.942-2.489,4.526-4.526a57.074,57.074,0,0,0,4.209-8.735C28.478,43.694,27.392,42.246,26.577,43.694Z" transform="translate(37.378 -9.114)"/><path class="aj" d="M13.227,39.43c-.317,1.267-.679,1.992-.362,2.127l3.8,1.629,2.082.86c.362,0,1.267-.679,2.308-1.856Z" transform="translate(37.873 5.198)"/><path class="ae" d="M18.567,81.019,8.7,78.847l17.154-39.2,9.686,2.716Z" transform="translate(23.617 5.974)"/><path class="ak" d="M9.88,77.97l4.526,1.992L31.379,41.308,26.536,39.95Z" transform="translate(27.778 7.032)"/><path class="ai" d="M20.325,33.2a12.22,12.22,0,0,0-1.72,1.448c-.362.453,1-.407,2.535-1.313,2.535-1.539,3.711-.634,2.354.769s-3.53,2.761-3.033,2.987,1.765-.95,4.074-2.263,3.259.362,1.584,1.765-3.8,2.218-3.757,2.67,4.3-2.218,5.658-2.354,1.856,1.177.407,2.082a58.838,58.838,0,0,0-8.781,4.888c-.724,1.177,2.851,0,3.847.769a1.147,1.147,0,0,1,0,1.9c-.317.317-.453.86-5.975.226-4.526-.5-6.653,1.992-7.016,1.358L8.331,44.649l-1.222-1.9c-.362-.588,1.992-3.3,3.893-5.205a52.731,52.731,0,0,1,7.921-5.477C20.325,31.116,21.683,31.976,20.325,33.2Z" transform="translate(17.876 -22.199)"/><path class="aj" d="M12.534,40.787c-1.177.5-1.856,1-2.037.679L8.325,37.981,7.1,36.08c-.226-.362.5-1.4,1.494-2.58Z" transform="translate(17.837 -15.712)"/><path class="ae" d="M0,54.482l5.386,8.373L36.843,42.532,32.5,33.48Z" transform="translate(-7.061 -15.783)"/><path class="ak" d="M2.716,58.646,0,54.482l32.5-21,2.173,4.526Z" transform="translate(-7.061 -15.783)"/></g><path class="al" d="M10.427,16.56l16.792,7.016,5.975,29.873L4.09,42.133Z" transform="translate(-10.291 0.277)"/><rect class="z" width="23.265" height="21.137" rx="0.16" transform="translate(5.005 43.822) rotate(-61.05)"/><path class="am" d="M29.326,27.6l-17.29-9.55a1.041,1.041,0,0,0-.905.588L8.37,23.617,26.882,33.846l2.761-4.979A1.132,1.132,0,0,0,29.326,27.6Z" transform="translate(4.801 5.531)"/><rect class="an" width="0.724" height="21.137" transform="translate(12.85 29.727) rotate(-61.05)"/><rect class="ao" width="3.711" height="16.702" transform="translate(15.95 28.95) rotate(-61.05)"/><rect class="ap" width="1.403" height="2.127" rx="0.08" transform="translate(12.848 32.952) rotate(-61.04)"/><rect class="aq" width="1.403" height="2.127" rx="0.08" transform="translate(24.215 39.229) rotate(-61.04)"/><rect class="ar" width="1.403" height="2.127" rx="0.08" transform="translate(26.699 40.587) rotate(-61.05)"/><rect class="ap" width="1.403" height="2.127" rx="0.08" transform="translate(16.148 34.744) rotate(-61.06)"/><rect class="ap" width="1.403" height="2.127" rx="0.08" transform="translate(18.48 36.054) rotate(-61.05)"/><rect class="ap" width="1.403" height="2.127" rx="0.08" transform="translate(21.108 37.535) rotate(-61.05)"/><rect class="ap" width="2.127" height="2.127" rx="0.08" transform="translate(11.516 35.424) rotate(-61.05)"/><rect class="ap" width="2.127" height="2.127" rx="0.08" transform="translate(22.86 41.739) rotate(-61.05)"/><rect class="ap" width="2.127" height="2.127" rx="0.08" transform="translate(25.338 43.137) rotate(-61.05)"/><rect class="as" width="2.114" height="2.114" rx="0.079" transform="translate(14.133 37.072) rotate(-61.113)"/><rect class="as" width="2.127" height="2.127" rx="0.08" transform="translate(17.079 38.582) rotate(-61.05)"/><rect class="as" width="2.127" height="2.127" rx="0.08" transform="translate(19.73 39.979) rotate(-61.05)"/><rect class="ap" width="2.127" height="2.127" rx="0.08" transform="translate(10.05 38.131) rotate(-61.04)"/><rect class="ap" width="2.127" height="2.127" rx="0.08" transform="translate(21.379 44.368) rotate(-61.05)"/><rect class="ap" width="2.127" height="2.127" rx="0.08" transform="translate(23.902 45.766) rotate(-61.05)"/><rect class="as" width="2.127" height="2.127" rx="0.08" transform="translate(13.304 39.941) rotate(-61.05)"/><rect class="as" width="2.127" height="2.127" rx="0.08" transform="translate(15.643 41.165) rotate(-61.05)"/><rect class="as" width="2.127" height="2.127" rx="0.08" transform="translate(18.313 42.649) rotate(-61.06)"/><rect class="ap" width="2.127" height="2.127" rx="0.08" transform="translate(8.676 40.598) rotate(-61.05)"/><rect class="ap" width="2.127" height="2.127" rx="0.08" transform="translate(20.003 46.852) rotate(-61.05)"/><rect class="ap" width="2.127" height="2.127" rx="0.08" transform="translate(22.526 48.204) rotate(-61.05)"/><rect class="as" width="2.127" height="2.127" rx="0.08" transform="translate(11.928 42.425) rotate(-61.05)"/><rect class="as" width="2.127" height="2.127" rx="0.08" transform="translate(14.27 43.63) rotate(-61.06)"/><rect class="as" width="2.127" height="2.127" rx="0.08" transform="translate(16.896 45.131) rotate(-61.05)"/><rect class="ap" width="2.127" height="2.127" rx="0.08" transform="translate(7.3 43.082) rotate(-61.05)"/><rect class="ap" width="2.127" height="2.127" rx="0.08" transform="translate(18.605 49.33) rotate(-61.05)"/><rect class="ap" width="2.127" height="2.127" rx="0.08" transform="translate(21.127 50.747) rotate(-61.04)"/><rect class="as" width="2.127" height="2.127" rx="0.08" transform="translate(10.595 44.881) rotate(-61.04)"/><rect class="as" width="2.127" height="2.127" rx="0.08" transform="translate(12.869 46.172) rotate(-61.05)"/><rect class="as" width="2.127" height="2.127" rx="0.08" transform="translate(15.518 47.588) rotate(-61.04)"/><rect class="s" width="25.075" height="34.852" transform="translate(195.281 119.424) rotate(-24.82)"/><path class="h" d="M63.78,77.983,49.16,46.3,69.392,36.93l9.46,20.413a22,22,0,0,1,2.082,9.686,5.7,5.7,0,0,1-2.716,4.255Z" transform="translate(148.634 72.106)"/><rect class="at" width="2.806" height="34.852" transform="translate(195.26 119.457) rotate(-24.82)"/><rect class="s" width="4.888" height="1.403" transform="translate(199.683 118.961) rotate(-24.81)"/><rect class="s" width="12.538" height="0.679" transform="translate(200.805 121.456) rotate(-24.82)"/><rect class="s" width="18.829" height="0.679" transform="translate(201.436 122.73) rotate(-24.82)"/><rect class="s" width="15.344" height="0.679" transform="translate(201.979 124.008) rotate(-24.82)"/><rect class="s" width="17.426" height="0.679" transform="translate(202.546 125.262) rotate(-24.82)"/><rect class="s" width="11.134" height="1.403" transform="translate(205.375 116.292) rotate(-24.82)"/><g class="au" transform="translate(116.549 90.841)"><path class="ai" d="M37.414,42.712v-1.4c.272-1.4,3.395-1.584,3.123,0v-.86h0c0-1.313,2.9-.86,2.67.453l.634-3.983a1.4,1.4,0,0,1,2.716.453l-1.539,9.052v1.4c0,1.4,3.3-2.308,4.028-2.173a1.675,1.675,0,0,1,1.222,1.675c0,.679-.317,1.358-4.526,5.024-3.395,3.033-3.078,5.341-3.757,5.205l-4.074-.679-2.218-.362c-.724,0-1.4-4.526-1.9-6.156a23.945,23.945,0,0,1,.5-7.2C35.015,41.535,37.64,41.309,37.414,42.712Z" transform="translate(-22.387 -21.982)"/><path class="aj" d="M34,40.07c.272,1.041.543,1.856.86,1.9l2.218.362,4.074.679c.362,0,.453-.543.95-1.629Z" transform="translate(-21.372 -7.663)"/><rect class="af" width="29.737" height="9.686" transform="translate(7.023 62.437) rotate(-80.74)"/><rect class="ak" width="29.737" height="4.843" transform="translate(11.763 63.191) rotate(-80.74)"/><path class="av" d="M39.761,61.909a1.4,1.4,0,0,1-1.4-1.267L35.823,38.916a1.494,1.494,0,0,1,.317-1.041,1.267,1.267,0,0,1,.95-.543L69.136,33.62h0a1.4,1.4,0,0,1,1.4,1.267l2.489,21.726a1.448,1.448,0,0,1-.272,1.041,1.358,1.358,0,0,1-.95.543L39.716,61.909Z" transform="translate(-14.958 -30.406)"/><path class="aw" d="M69.284,33.64A1.313,1.313,0,0,1,70.6,34.817l2.535,21.726a1.358,1.358,0,0,1-1.177,1.494L39.864,61.748h0a1.358,1.358,0,0,1-1.358-1.177L36.016,38.845a1.358,1.358,0,0,1,1.177-1.494L69.238,33.64h0m0,0h0L37.193,37.352a1.494,1.494,0,0,0-1.358,1.629L38.37,60.707a1.494,1.494,0,0,0,1.494,1.313h0l32.045-3.711a1.476,1.476,0,0,0,1.313-1.629L70.732,34.953a1.494,1.494,0,0,0-1.494-1.313Z" transform="translate(-14.924 -30.336)"/><rect class="aa" width="34.49" height="24.211" rx="0.289" transform="translate(19.713 7.537) rotate(-6.34)"/><rect class="ab" width="28.832" height="21.635" transform="matrix(0.993, -0.115, 0.115, 0.993, 24.124, 8.287)"/><g class="ax" transform="translate(27.655 3.432)"><path class="av" d="M63.3,58.208l3.214-.362a1.4,1.4,0,0,0,1.177-1.494L65.2,34.853a1.358,1.358,0,0,0-1.494-1.177L37.32,36.754Z" transform="translate(-37.32 -33.668)"/></g><path class="ay" d="M43.49,36.37Z" transform="translate(12.092 -20.709)"/><path class="az" d="M43.49,36.386Z" transform="translate(12.092 -20.725)"/><path class="ay" d="M43.49,36.36Z" transform="translate(12.092 -20.745)"/><path class="ba" d="M43.49,36.35Z" transform="translate(12.092 -20.78)"/><g transform="translate(55.582 15.434)"><path class="az" d="M43.49,36.32Z" transform="translate(-43.49 -36.32)"/></g><path class="bb" d="M43.49,36.35Z" transform="translate(12.092 -20.78)"/><path class="ad" d="M63.393,35.808H62.85L37.458,38.841a.951.951,0,0,1-.588,0V37.212h.588L62.85,34.36h.588Z" transform="translate(-11.252 -27.797)"/><path class="s" d="M64.3,42.741a.543.543,0,0,1-.5.588L38.365,46.181a.543.543,0,0,1-.634-.453l-.769-7.151a.543.543,0,0,1,.5-.588l25.392-2.852a.543.543,0,0,1,.634.453Z" transform="translate(-10.936 -25.089)"/><path class="ae" d="M64.247,42.238s0,.362-.543.407L38.312,45.5c-.317,0-.588,0-.634-.272l-.5-4.526s0-.362.543-.362l25.392-2.9c.317,0,.588,0,.588.272Z" transform="translate(-10.159 -16.936)"/><path class="ai" d="M40.243,38.09c-.634,0-3.621,2.9-3.983,2.444l.453,4.526.317-.317c4.119-3.666,4.526-4.526,4.526-5.024A1.675,1.675,0,0,0,40.243,38.09Z" transform="translate(-13.403 -14.644)"/><path class="ai" d="M52.971,41.71l-.543-1.358c-.543-1.313-3.621-.815-3.078.5l-.362-.769h0c-.5-1.222-2.987-.226-2.489,1.041l-1.539-3.757c-.634-1.584-3.168-.543-2.489,1l3.349,8.509.543,1.313c.543,1.313-3.757-1.539-4.526-1.267a1.629,1.629,0,0,0-.86,1.9c.272.679.634,1.267,5.477,3.938,3.938,2.218,4.119,4.526,4.8,4.255l3.8-1.539,2.082-.86c.679-.272.362-4.843.5-6.382A25.482,25.482,0,0,0,55.6,41.3C55.279,39.991,52.427,40.353,52.971,41.71Z" transform="translate(3.018 -19.985)"/><path class="aj" d="M50.68,40.13c0,1.086,0,1.946-.5,2.082l-2.082.769L44.207,44.43c-.362,0-.543-.5-1.267-1.448Z" transform="translate(10.152 -7.451)"/><path class="af" d="M52.43,69.57l10.41.181L51.932,40.24,42.88,43.589Z" transform="translate(9.941 -7.063)"/><path class="ak" d="M52.43,68.265l5.341.453L47.406,40.61,42.88,42.285Z" transform="translate(9.941 -5.758)"/></g><path class="bc" d="M24.75,50.538c.226.407,15.48,2.625,15.48,2.625.453-1.584,1.177-9.777,1.494-13.579L25.882,38C25.882,41.893,24.75,50.538,24.75,50.538Z" transform="translate(62.56 75.879)"/><path class="bd" d="M25.272,37.5A16.069,16.069,0,0,1,25,39.763L40.706,41.3V38.948Z" transform="translate(63.442 74.116)"/><path class="be" d="M25.272,37.5A16.069,16.069,0,0,1,25,39.763L40.706,41.3V38.948Z" transform="translate(63.442 74.116)"/><path class="bf" d="M53.52,39.824,104.394,20.09,142.55,65.352l-65.9,27.881Z" transform="translate(164.009 12.725)"/><path class="bg" d="M64.28,39.288,80.031,32.68l6.835,12.04L71.929,53.093Z" transform="translate(201.95 57.12)"/><line class="q" y1="0.769" x2="2.354" transform="translate(291.034 93.375)"/><line class="r" y1="0.769" x2="2.354" transform="translate(291.034 93.375)"/><path class="h" d="M73.89,33.843a5.7,5.7,0,0,1,1.72,11.134,5.477,5.477,0,0,1-1.72.272,5.7,5.7,0,0,1-1.765-11.134,5.477,5.477,0,0,1,1.72-.272m0-1.313h0a6.743,6.743,0,0,0-2.127.317A7.015,7.015,0,0,0,67.6,36.332a6.835,6.835,0,0,0-.407,5.341,6.97,6.97,0,0,0,6.653,4.888,6.789,6.789,0,0,0,2.127-.362A7.005,7.005,0,0,0,73.845,32.53Z" transform="translate(210.943 56.59)"/><g transform="translate(278.432 89.754)"><path class="s" d="M73.377,33.349A5.7,5.7,0,0,1,75.1,44.483a5.477,5.477,0,0,1-1.72.272,5.7,5.7,0,0,1-1.765-11.134,5.477,5.477,0,0,1,1.72-.272m0-.679h0a7.288,7.288,0,0,0-1.946.317,6.337,6.337,0,0,0-3.711,3.123,6.473,6.473,0,0,0-.407,4.843,6.337,6.337,0,0,0,6.065,4.526,5.839,5.839,0,0,0,1.946-.317,6.254,6.254,0,0,0-1.946-12.175Z" transform="translate(-66.976 -32.67)"/></g><path class="t" d="M74.55,43.962A5.7,5.7,0,1,1,77.9,41.136,5.7,5.7,0,0,1,74.55,43.962Z" transform="translate(212.003 57.606)"/><path class="u" d="M73.94,37.245a5.386,5.386,0,0,1-2.58,6.789h.407a5.7,5.7,0,1,0-3.44-10.863H67.92a5.431,5.431,0,0,1,6.02,4.074Z" transform="translate(214.786 57.623)"/><g class="bh" transform="translate(279.134 90.424)"><path class="u" d="M68.149,34.623a.543.543,0,0,0,.226.815.624.624,0,1,0-.226-.815Z" transform="translate(-63.899 -27.643)"/><path class="u" d="M67.872,34.161a.272.272,0,0,0,0,.407.408.408,0,1,0,0-.407Z" transform="translate(-64.843 -28.811)"/><path class="u" d="M68.221,34v.272H68.13Z" transform="translate(-63.608 -28.65)"/><path class="u" d="M70.2,35.878a.769.769,0,0,0-.272-1.041H69.57a1.358,1.358,0,0,0-.543-.769,1.132,1.132,0,0,0-1.539.407,1.086,1.086,0,0,0,.407,1.494h0a1.086,1.086,0,0,0-.588.5,1.132,1.132,0,0,0,.407,1.539h.272a1.4,1.4,0,0,0,.724,1.177,1.421,1.421,0,0,0,1.448-2.444h-.453A.905.905,0,0,0,70.2,35.878Z" transform="translate(-67.04 -28.943)"/><path class="w" d="M67.738,34.4a.588.588,0,0,0,0,.815.592.592,0,1,0,.86-.815.588.588,0,0,0-.86,0Z" transform="translate(-65.569 -27.914)"/><path class="w" d="M68.235,34.347a.453.453,0,0,0,0,.588.407.407,0,0,0,.543,0,.453.453,0,0,0,0-.543A.5.5,0,0,0,68.235,34.347Z" transform="translate(-63.622 -27.639)"/><path class="t" d="M68.628,34.323a1.041,1.041,0,0,0-.724,0,.95.95,0,0,0-.679.362.741.741,0,0,1,1.4-.362Z" transform="translate(-66.822 -28.973)"/><path class="t" d="M67.77,36.093a1.4,1.4,0,0,0,.272-.679,1.72,1.72,0,0,0,0-.724c.272,0,.407.362.362.769A.712.712,0,0,1,67.77,36.093Z" transform="translate(-64.878 -26.217)"/></g><g transform="translate(278.967 90.75)"><path class="x" d="M72.96,33.071h0A5.188,5.188,0,0,1,74.544,43.21a4.526,4.526,0,0,1-1.584.272,5.25,5.25,0,0,1-4.979-3.621,5.069,5.069,0,0,1,.362-3.983,5.16,5.16,0,0,1,2.851-2.489,4.527,4.527,0,0,1,1.584,0m0-.5a5.476,5.476,0,0,0-1.72.272A5.7,5.7,0,0,0,72.779,44.3a5.476,5.476,0,0,0,1.72-.272,5.7,5.7,0,0,0-1.72-11.134Z" transform="translate(-67.094 -32.89)"/></g><path class="h" d="M64.817,24.928c0,.543.362,4.526.815,9.5,0,0,1.313,14.71,2.218,24.939l.86,9.5c0,1.675.588,2.761,2.58,2.58l29.647-2.625c1.584,0,2.67-.679,2.489-2.489,0-.634-.407-4.8-.86-10.048-.95-10.365-2.218-24.939-2.218-24.939l-.905-10.048c0-1.81-1.313-2.173-2.9-2.037L66.9,21.9C64.907,22.076,64.636,23.253,64.817,24.928Z" transform="translate(203.677 9.743)"/><rect class="y" width="17.652" height="43.361" rx="0.14" transform="translate(270.857 34.909) rotate(-5.07)"/><rect class="s" width="11.768" height="16.158" rx="0.14" transform="translate(291.095 46.801) rotate(-5.07)"/><path class="z" d="M61.127,20.164c0,1.9,2.082,23.4,2.58,29.284v1.494c.543,5.884,2.444,27.383,2.625,29.284s1.675,1.313,1.675,1.313l13.035-8.1s.317,0,.272-.815S79.73,54.789,79.277,49.539V48.09c-.453-5.25-1.992-22.631-2.037-23.084a1.319,1.319,0,0,0-.407-.769L62.395,18.67A1.238,1.238,0,0,0,61.127,20.164Z" transform="translate(190.8 7.718)"/><path class="aa" d="M61.219,20.249c0,1.856,2.082,23.355,2.58,29.239v1.494c.543,5.884,2.444,27.383,2.58,29.284s1.448,1.267,1.448,1.267l13.307-8.011a.951.951,0,0,0,.272-.86c0-.5-1.584-17.833-2.037-23.038V48.13c-.453-5.25-1.992-22.631-2.037-23.084a.86.86,0,0,0-.453-.724L62.4,18.71S60.993,18.167,61.219,20.249Z" transform="translate(191.07 7.633)"/><path class="ab" d="M63.506,40.939l1.132,13.216,1.946,21.5L78.9,68.821l-1.4-15.842L76.361,39.808l-1.4-15.842L61.56,19.44Z" transform="translate(192.359 10.433)"/><path class="aa" d="M70.657,28.405a.281.281,0,0,1,.272.226l.453,5.3a.272.272,0,0,1-.226.272h-1.9a.272.272,0,0,1-.272-.226l-.453-5.341a.281.281,0,0,1,.226-.272Z" transform="translate(216.937 41.886)"/><path class="aa" d="M70.409,27.72a.272.272,0,0,1,.272.226v1.9a.271.271,0,0,1,0,.272h-1.9a.272.272,0,0,1-.271-.226v-1.9a.272.272,0,0,1,0-.272Z" transform="translate(216.732 39.63)"/><path class="aa" d="M71.518,29.06a.272.272,0,0,1,.272.226v1.9a.271.271,0,0,1,0,.272H69.527s-.272,0-.317-.226V29.06Z" transform="translate(219.334 44.355)"/><path class="aa" d="M71.592,28.42h.317v1.9a.281.281,0,0,1-.226.272H69.42a.271.271,0,0,1-.272,0v-1.9a.272.272,0,0,1,0-.272Z" transform="translate(218.989 42.098)"/><path class="aa" d="M71.444,27.8a.272.272,0,0,1,.272.226v1.9a.272.272,0,0,1,0,.272l-2.308.226a.272.272,0,0,1-.271-.226V28.3a.226.226,0,0,1,0-.272Z" transform="translate(218.911 39.912)"/><rect class="aa" width="2.806" height="2.399" rx="0.06" transform="translate(285.654 43.263) rotate(-5.08)"/><path class="aa" d="M71.518,27a.272.272,0,0,1,.272.226l.226,2.67a.272.272,0,0,1-.226.272H69.527a.226.226,0,0,1-.272-.226l-.181-2.489a.317.317,0,0,1,0-.453Z" transform="translate(218.52 37.091)"/><rect class="aa" width="2.806" height="3.168" rx="0.06" transform="translate(285.851 46.183) rotate(-5.07)"/><path class="aa" d="M71.041,23.8a.317.317,0,0,1,.317.226l1.177,13.579a.272.272,0,0,1,0,.272H70.227l-.272-.226L68.778,24.072a.271.271,0,0,1,0-.272Z" transform="translate(217.684 25.807)"/><path class="aa" d="M70.349,27.08a.272.272,0,0,1,.272.226v1.9a.271.271,0,0,1,0,.272h-1.9a.271.271,0,0,1-.272,0v-1.9a.272.272,0,0,1,0-.272Z" transform="translate(216.52 37.373)"/><rect class="aa" width="2.399" height="2.399" rx="0.06" transform="translate(284.442 61.717) rotate(-5.08)"/><path class="aa" d="M70.458,25.79a.272.272,0,0,1,.272.226v1.9a.317.317,0,0,1-.272.317h-1.9l-.272-.226v-1.9a.226.226,0,0,1,0-.272Z" transform="translate(215.914 32.824)"/><path class="aa" d="M70.179,25.15a.272.272,0,0,1,.272.226v1.9a.271.271,0,0,1,0,.272h-1.9a.272.272,0,0,1-.272,0v-1.9a.272.272,0,0,1,0-.272Z" transform="translate(215.921 30.567)"/><path class="aa" d="M70.119,24.545a.272.272,0,0,1,.272,0v1.9a.271.271,0,0,1,0,.272h-1.9a.271.271,0,0,1-.272,0v-1.9a.362.362,0,0,1,0-.317Z" transform="translate(215.709 28.275)"/><path class="aa" d="M70.253,23.86l.272.272v1.9a.281.281,0,0,1-.226.272H68.4a.281.281,0,0,1-.272-.226v-1.9a.226.226,0,0,1,0-.272Z" transform="translate(215.35 26.019)"/><path class="aa" d="M70.009,23.22a.272.272,0,0,1,.272.226v1.9a.271.271,0,0,1,0,.272h-1.9a.272.272,0,0,1-.272-.226v-1.9a.272.272,0,0,1,0-.272Z" transform="translate(215.321 23.762)"/><path class="aa" d="M70.126,22.58a.272.272,0,0,1,.272.226v1.9a.272.272,0,0,1-.226.272h-1.9a.272.272,0,0,1-.272,0v-1.9a.272.272,0,0,1,0-.272Z" transform="translate(214.934 21.505)"/><path class="aa" d="M69.826,22.116h.317v2.173h-1.9a.226.226,0,0,1-.272-.226v-1.9a.291.291,0,0,1,.272-.272Z" transform="translate(214.962 19.072)"/><path class="aa" d="M69.824,28.1a.226.226,0,0,1,.272.226v1.9a.272.272,0,0,1,0,.272h-1.9a.272.272,0,0,1-.272-.272V28.367a.317.317,0,0,1,0-.317Z" transform="translate(214.647 40.793)"/><rect class="aa" width="2.399" height="2.399" rx="0.06" transform="translate(282.067 66.179) rotate(-5.07)"/><path class="aa" d="M70.063,28.7a.272.272,0,0,1,.272.226L70.7,33a.291.291,0,0,1-.272.272H68.252l-.362-4.028a.272.272,0,0,1,.272-.272Z" transform="translate(214.68 43.085)"/><path class="aa" d="M69.876,26.77a.272.272,0,0,1,.272.226v1.9a.272.272,0,0,1-.226.272h-1.9a.272.272,0,0,1-.272-.226v-1.9a.272.272,0,0,1,0-.272Z" transform="translate(214.052 36.28)"/><path class="aa" d="M69.656,26.13a.272.272,0,0,1,.272.226v1.9a.226.226,0,0,1,0,.272h-1.9a.272.272,0,0,1-.272-.226V26.4a.226.226,0,0,1,0-.272Z" transform="translate(214.045 34.023)"/><path class="aa" d="M69.766,25.494a.226.226,0,0,1,.272.226v1.9a.272.272,0,0,1-.226.272h-1.9a.226.226,0,0,1-.272-.226v-1.9a.272.272,0,0,1,0-.272Z" transform="translate(213.664 31.763)"/><rect class="aa" width="2.399" height="2.399" rx="0.06" transform="translate(281.012 54.491) rotate(-5.08)"/><path class="aa" d="M69.516,24.2a.272.272,0,0,1,.272.226v1.9a.226.226,0,0,1,0,.272h-1.9a.272.272,0,0,1-.272-.226v-1.9a.226.226,0,0,1,0-.272Z" transform="translate(213.551 27.217)"/><path class="aa" d="M69.49,23.666a.226.226,0,0,1,.272.226l.136,1.765a.272.272,0,0,1-.226.272h-1.9A.226.226,0,0,1,67.5,25.7V23.8a.272.272,0,0,1,0-.272Z" transform="translate(213.171 24.855)"/><path class="aa" d="M69.331,22.91a.272.272,0,0,1,.272.226v1.9a.271.271,0,0,1,0,.272H67.7a.272.272,0,0,1-.272-.226v-1.9a.271.271,0,0,1,.226-.272Z" transform="translate(213.058 22.669)"/><path class="aa" d="M69.236,22.27a.317.317,0,0,1,.317.226v1.9a.226.226,0,0,1,0,.272h-1.9a.272.272,0,0,1-.272-.226v-1.9a.272.272,0,0,1,.226-.272Z" transform="translate(212.881 20.412)"/><path class="aa" d="M69.433,21.665a.226.226,0,0,1,.272.226v1.9a.272.272,0,0,1-.272.272H67.577a.317.317,0,0,1-.317-.272V21.62Z" transform="translate(212.458 18.12)"/><path class="aa" d="M69.149,20.575a.226.226,0,0,1,.272.226l.362,3.893a.272.272,0,0,1,0,.272h-1.9a.272.272,0,0,1-.272-.226L67.248,20.8a.272.272,0,0,1,0-.272Z" transform="translate(212.289 14.276)"/><path class="aa" d="M69.191,28.345a.226.226,0,0,1,.272.226v1.9a.271.271,0,0,1,0,.272h-1.9a.272.272,0,0,1-.272-.226v-1.9a.317.317,0,0,1,.226-.317Z" transform="translate(212.564 41.675)"/><path class="aa" d="M69.159,27.66a.272.272,0,0,1,.272.272v1.856a.317.317,0,0,1,0,.317h-1.9a.226.226,0,0,1-.272-.226v-1.9a.272.272,0,0,1,0-.272Z" transform="translate(212.324 39.418)"/><path class="aa" d="M69.286,29a.272.272,0,0,1,.272.226l.272,3.168a.271.271,0,0,1,0,.272h-1.9a.272.272,0,0,1-.272-.226l-.272-3.168a.226.226,0,0,1,0-.272Z" transform="translate(212.74 44.143)"/><path class="aa" d="M69.191,28.345a.226.226,0,0,1,.272.226v1.9a.271.271,0,0,1,0,.272h-1.9a.272.272,0,0,1-.272-.226v-1.9a.317.317,0,0,1,.226-.317Z" transform="translate(212.564 41.675)"/><rect class="aa" width="2.399" height="2.399" rx="0.06" transform="translate(279.071 64.413) rotate(-5.07)"/><rect class="aa" width="2.399" height="2.399" rx="0.06" transform="translate(278.861 61.502) rotate(-5.07)"/><path class="aa" d="M68.989,25.744a.226.226,0,0,1,.272.226v1.9a.271.271,0,0,1,0,.272h-1.9a.226.226,0,0,1-.272-.226v-1.9a.272.272,0,0,1,0-.272Z" transform="translate(211.725 32.644)"/><path class="aa" d="M68.911,25.09a.272.272,0,0,1,.272.226v1.9a.226.226,0,0,1,0,.272h-1.9a.272.272,0,0,1-.271-.226v-1.9a.272.272,0,0,1,.272-.272Z" transform="translate(211.577 30.356)"/><path class="aa" d="M68.957,24.45a.272.272,0,0,1,.272.226v1.9a.272.272,0,0,1,0,.272l-1.946.091a.317.317,0,0,1-.317-.226v-1.9a.226.226,0,0,1,0-.272Z" transform="translate(211.259 28.099)"/><rect class="aa" width="2.399" height="2.399" rx="0.06" transform="translate(277.788 49.826) rotate(-5.07)"/><rect class="aa" width="2.399" height="2.399" rx="0.06" transform="translate(277.533 46.92) rotate(-5.07)"/><path class="aa" d="M68.893,22.52a.272.272,0,0,1,.272.226v1.9a.226.226,0,0,1-.226.272h-1.9a.272.272,0,0,1-.272-.226v-1.9a.226.226,0,0,1,0-.272Z" transform="translate(210.554 21.293)"/><path class="aa" d="M68.654,21.915a.226.226,0,0,1,.272.226v1.9a.272.272,0,0,1,0,.272h-1.9a.272.272,0,0,1-.272-.272V22.187a.317.317,0,0,1,0-.317Z" transform="translate(210.521 19.001)"/><path class="aa" d="M68.766,21.23a.272.272,0,0,1,.272.226v1.9a.317.317,0,0,1-.226.317h-1.9a.226.226,0,0,1-.272-.226v-1.9a.272.272,0,0,1,0-.272Z" transform="translate(210.138 16.745)"/><path class="aa" d="M68.693,20.59a.272.272,0,0,1,.272.226v1.9a.226.226,0,0,1-.226.272h-1.9a.272.272,0,0,1-.272-.226v-1.9a.226.226,0,0,1,0-.272Z" transform="translate(209.849 14.488)"/><path class="aa" d="M68.876,29.28a.272.272,0,0,1,.272.272v1.9l-.272.272H67.02s-.272,0-.317-.226V29.6a.226.226,0,0,1,.226-.272Z" transform="translate(210.48 45.13)"/><path class="aa" d="M68.629,28.64a.272.272,0,0,1,.272.226v1.9a.271.271,0,0,1,0,.272H67a.272.272,0,0,1-.272-.226v-1.9a.272.272,0,0,1,0-.272Z" transform="translate(210.455 42.874)"/><path class="aa" d="M68.569,28a.272.272,0,0,1,.272.226v1.9a.271.271,0,0,1,0,.272h-1.9a.272.272,0,0,1-.272-.226v-1.9a.272.272,0,0,1,0-.272Z" transform="translate(210.244 40.617)"/><path class="aa" d="M68.481,27.36l.272.226v2.173h-1.9l-.272-.226V27.36Z" transform="translate(210.061 38.36)"/><path class="aa" d="M68.509,26.71a.272.272,0,0,1,.272.226v1.9a.271.271,0,0,1,0,.272h-1.9a.272.272,0,0,1-.272-.226v-1.9a.271.271,0,0,1,0-.272Z" transform="translate(210.032 36.068)"/><rect class="aa" width="2.399" height="2.399" rx="0.06" transform="translate(275.913 60.082) rotate(-5.08)"/><path class="aa" d="M68.452,25.43s.272,0,.317.226v1.9a.281.281,0,0,1-.226.272h-1.9a.226.226,0,0,1-.272,0v-1.9a.291.291,0,0,1,.272-.272Z" transform="translate(209.32 31.555)"/><rect class="aa" width="2.409" height="2.409" rx="0.06" transform="translate(276.695 54.229) rotate(-5.143)"/><path class="aa" d="M68.229,24.14a.272.272,0,0,1,.272.226v1.9a.272.272,0,0,1,0,.272H66.6a.272.272,0,0,1-.272-.226v-1.9a.271.271,0,0,1,0-.272Z" transform="translate(209.045 27.006)"/><rect class="aa" width="2.409" height="2.409" rx="0.06" transform="translate(276.215 48.345) rotate(-5.143)"/><path class="aa" d="M68.126,22.85l.272.272v2.173H66.5l-.272-.226v-1.9a.226.226,0,0,1,0-.272Z" transform="translate(208.65 22.457)"/><path class="aa" d="M68.236,22.21a.272.272,0,0,1,.272.226v1.9a.272.272,0,0,1-.226.272h-1.9a.272.272,0,0,1-.271-.226v-1.9a.272.272,0,0,1,0-.272Z" transform="translate(208.269 20.2)"/><path class="aa" d="M68,21.57a.272.272,0,0,1,.272.226v1.9a.272.272,0,0,1,0,.272h-1.9a.272.272,0,0,1-.272-.226v-1.9a.272.272,0,0,1,0-.272Z" transform="translate(208.234 17.944)"/><path class="aa" d="M67.919,20.654a.226.226,0,0,1,.272.226l.272,3.168v.272h-1.9a.226.226,0,0,1-.272,0l-.272-3.168a.271.271,0,0,1,0-.272Z" transform="translate(207.952 14.696)"/><rect class="aa" width="1.539" height="2.489" rx="0.06" transform="translate(275.267 74.7) rotate(-5.08)"/><path class="aa" d="M67.311,28.66a.272.272,0,0,1,.272.226v1.992a.272.272,0,0,1,0,.272h-1a.272.272,0,0,1-.272-.226V28.932a.226.226,0,0,1,0-.272Z" transform="translate(208.967 42.944)"/><rect class="aa" width="1.539" height="2.489" rx="0.06" transform="translate(274.769 68.713) rotate(-5.07)"/><path class="aa" d="M67.184,27.33a.272.272,0,0,1,.272.226v1.992a.226.226,0,0,1,0,.272h-1a.272.272,0,0,1-.272,0V27.828a.271.271,0,0,1,0-.272Z" transform="translate(208.551 38.254)"/><path class="aa" d="M67.134,26.7a.272.272,0,0,1,.272,0v2.263h-1a.272.272,0,0,1-.272,0V26.97a.272.272,0,0,1,0-.272Z" transform="translate(208.375 35.899)"/><path class="aa" d="M67.257,26h.272v1.946a.272.272,0,0,1-.272.272h-1a.226.226,0,0,1-.272-.226V26.045A.273.273,0,0,1,66.035,26Z" transform="translate(207.98 33.565)"/><path class="aa" d="M67.049,25.34a.272.272,0,0,1,.272.226v1.992a.271.271,0,0,1,0,.272H66.28a.272.272,0,0,1-.272-.226V25.612a.271.271,0,0,1,0-.272Z" transform="translate(207.916 31.237)"/><path class="aa" d="M66.989,24.68a.272.272,0,0,1,.272.226V26.9a.271.271,0,0,1,0,.272H66.22a.272.272,0,0,1-.271-.226V24.952a.272.272,0,0,1,0-.272Z" transform="translate(207.705 28.91)"/><path class="aa" d="M66.9,24a.226.226,0,0,1,.272.226v1.946a.272.272,0,0,1,0,.272H65.864V24.5a.226.226,0,0,1,.226-.272Z" transform="translate(207.518 26.509)"/><rect class="aa" width="1.539" height="2.489" rx="0.06" transform="translate(272.871 47.69) rotate(-5.07)"/><path class="aa" d="M66.811,22.866a.272.272,0,0,1,.272,0v1.992a.272.272,0,0,1,0,.272h-1a.272.272,0,0,1-.272-.226V22.912a.226.226,0,0,1,0-.272Z" transform="translate(207.204 21.717)"/><rect class="aa" width="1.539" height="2.489" rx="0.06" transform="translate(272.345 41.738) rotate(-5.07)"/><path class="aa" d="M66.654,21.36a.272.272,0,0,1,.272.226v1.992a.226.226,0,0,1,0,.272h-1a.272.272,0,0,1-.272-.226V21.632a.272.272,0,0,1,0-.272Z" transform="translate(206.682 17.203)"/><rect class="aa" width="1.539" height="2.489" rx="0.06" transform="translate(271.815 35.699) rotate(-5.07)"/><path class="aa" d="M69.953,20.48a.272.272,0,0,1,.272.226l.5,5.567a.272.272,0,0,1-.272.272H68.595a.317.317,0,0,1-.317-.226l-.453-5.567a.226.226,0,0,1,0-.272Z" transform="translate(214.292 14.1)"/><rect class="aa" width="1.403" height="2.535" rx="0.06" transform="translate(286.776 40.2) rotate(-5.07)"/><path class="aa" d="M69.032,21.08a.272.272,0,0,0-.272.272v2.037a.317.317,0,0,0,.317.226h.86a.271.271,0,0,0,0-.272V21.306a.272.272,0,0,0-.272-.226Z" transform="translate(217.748 16.216)"/><path class="aa" d="M68.69,21.11a.226.226,0,0,0-.226.272v2.037a.272.272,0,0,0,.272.226H69.5a.272.272,0,0,0,0-.272V21.336a.272.272,0,0,0-.272-.226Z" transform="translate(216.686 16.322)"/><path class="aa" d="M68.936,20.44a.272.272,0,0,0-.226.272v2.037a.272.272,0,0,0,.272.226h1.041a.272.272,0,0,0,.272-.272V20.666a.317.317,0,0,0-.317,0Z" transform="translate(217.571 13.959)"/><path class="ac" d="M61.218,20.249c0,1.313,1.086,12.221,1.81,20.685L80.545,61.618c-.407-4.526-.86-9.6-1.041-11.994V48.13c-.453-5.25-1.992-22.631-2.037-23.084a.86.86,0,0,0-.453-.724L62.53,18.71S60.991,18.167,61.218,20.249Z" transform="translate(191.072 7.633)"/><path class="ad" d="M63.475,27.76a.266.266,0,0,1,.272.272L65.1,42.877a.453.453,0,0,1,0,.453l-.86.453-.272-.226-1.4-15.163v-.407Z" transform="translate(195.921 39.771)"/><path class="ae" d="M66.628,27.28h0l1.132,12.311v.362l-2.173,1.132v-.226L64.41,27.914a.272.272,0,0,1,0-.317Z" transform="translate(202.228 38.078)"/><path class="af" d="M66.535,24v.272l1.132,12.311a.362.362,0,0,1,0,.317l-2.218.453v-.272L64,24.317V24Z" transform="translate(200.963 26.512)"/><path class="ad" d="M66.058,21.254v.317L67.19,33.882v.226H64.927v-.317L63.75,20.846V20.62Z" transform="translate(200.081 14.594)"/><path class="s" d="M67.334,21.789v.317l4.119,44.673v.362l-4.526,2.4v-.226L62.4,20.34v-.226Z" transform="translate(195.321 12.791)"/><path class="ag" d="M62.942,20.215a.536.536,0,0,0,.272.407L66.2,53.03s0,.362-.226.362l-.86.226a.317.317,0,0,1-.272-.317L61.81,20.215v-.272Z" transform="translate(193.241 12.192)"/><g class="bi" transform="translate(273.698 13.488)"><path class="ai" d="M68.9,25.633a9.052,9.052,0,0,1,2.218-.679c.5,0-.905.634-2.489,1.448-2.67,1.313-2.489,2.806-.588,2.4s4.209-1.539,4.119-1.041S70.393,28.8,68.13,30.069s-1.448,2.942.634,2.263,3.893-2.037,4.255-1.765-4.164,2.444-4.979,3.576,0,2.173,1.539,1.448a59.928,59.928,0,0,1,8.781-4.707c1.4,0-1.313,2.58-1.358,3.666s1.177,1.086,1.629.905,1,0,3.395-4.888c1.946-4.119,5.16-4.526,4.843-5.25L85.057,21.6c-.453-.95-.86-1.81-1-2.037s-3.847,0-6.427.543a53.18,53.18,0,0,0-9.052,3.847C67.5,24.411,67.36,26.357,68.9,25.633Z" transform="translate(-63.513 -2.912)"/><path class="aj" d="M73.894,26.7c1.086-.769,1.856-1.041,1.675-1.358l-1.811-3.711c-.453-.95-.86-1.81-1-2.037s-1.4-.317-2.942,0Z" transform="translate(-52.213 -3.25)"/><path class="aj" d="M95.845,16.54l4.255,9.007L75.025,37.36,69.91,28.806Z" transform="translate(-51.896 -13.281)"/><path class="ak" d="M97.972,21.021,95.845,16.54,69.91,28.806l2.58,4.3Z" transform="translate(-51.896 -13.281)"/><path class="ai" d="M71.147,37.842a22.627,22.627,0,0,0,2.308,0c.543,0-1.041-.362-2.806-.679-2.9-.5-3.168-1.946-1.267-2.173s4.526.272,4.255,0-1.992-.5-4.526-1-2.263-2.4,0-2.4,4.526.815,4.526.453S69.11,30.962,67.8,30.1s-.634-2.082,1.041-1.81a59.746,59.746,0,0,0,9.867,2.037c1.358-.362-1.992-2.037-2.4-3.078s.815-1.4,1.313-1.358.951-.362,4.526,3.711c3.078,3.349,6.291,2.9,6.2,3.576s-.407,2.444-.634,4.074-.317,1.992-.362,2.263-3.666,1.177-6.337,1.358a56.4,56.4,0,0,1-9.867-1.222C69.925,39.471,69.291,37.752,71.147,37.842Z" transform="translate(-61.778 19.686)"/><path class="aj" d="M72.75,27.29c1.222.407,2.037.453,1.992.815s-.407,2.444-.634,4.074-.317,1.992-.362,2.263-1.267.724-2.806.95Z" transform="translate(-48.264 24.625)"/><path class="aj" d="M92.951,39.98,94.4,30.113,73.217,27.08,71.09,36.811Z" transform="translate(-47.735 23.885)"/><path class="ak" d="M93.676,31.238l-.724,4.934L71.09,33l1.086-4.843Z" transform="translate(-47.735 27.693)"/></g><path class="bj" d="M51.06,45.757,76,34.17,85.731,53,61.515,64.586Z" transform="translate(155.334 62.374)"/><g class="bk" transform="translate(224.951 92.968)"><path class="ai" d="M69.746,40.407a11.271,11.271,0,0,1,0,2.263c0,.543-.272-1.041-.453-2.806,0-2.987-1.675-3.349-2.037-1.448s0,4.526-.543,4.209-.317-1.992-.634-4.526-2.218-2.4-2.354-.226.453,4.526,0,4.526-.769-4.8-1.494-5.975-2.037-.815-1.9.905A58.838,58.838,0,0,1,61.6,47.287c-.5,1.313-1.9-2.127-2.9-2.58s-1.448.634-1.448,1.177-.453.86,3.3,4.934c3.123,3.3,2.4,6.518,3.078,6.472l4.119-.317h2.263c.724,0,1.448-3.576,1.856-6.2a53.364,53.364,0,0,0-.272-9.641C71.466,39.5,69.746,38.732,69.746,40.407Z" transform="translate(-47.839 -25.063)"/><path class="aj" d="M58.5,40.74c.317,1.267.272,2.082.634,2.082l4.119-.317h2.263c.407,0,.815-1.222,1.177-2.716Z" transform="translate(-43.383 -10.777)"/><path class="ag" d="M70.818,82.994l-9.912.634L58.28,41.489,68.1,39.95Z" transform="translate(-44.158 -10.213)"/><path class="bl" d="M62,83.311l4.979-.317L64.258,39.95l-4.888.769Z" transform="translate(-40.315 -10.213)"/><g transform="translate(12.447 11.05)"><path class="aj" d="M58.754,37.022a6.2,6.2,0,0,0-.407-1.132h0A1.177,1.177,0,0,0,58.754,37.022Z" transform="translate(-56.446 -35.579)"/><path class="aj" d="M60.218,36.679,57.91,36v.362a7.447,7.447,0,0,0,.407,2.535l2.489.679C60.626,38.67,60.445,37.539,60.218,36.679Z" transform="translate(-57.91 -35.191)"/><path class="aj" d="M65.711,39.778c0-1.448-1.72-2.218-1.81-.543a11.27,11.27,0,0,1,0,2.263c0,.543-.272-1.041-.453-2.806,0-2.987-1.675-3.349-2.037-1.448a25.353,25.353,0,0,0-.226,3.123h0l1.4.362c1.358.362-3.485,2.082-3.666,2.761a1.629,1.629,0,0,0,1,1.81c.679,0,1.358.272,6.2-1.856C65.892,41.815,65.756,40.276,65.711,39.778Z" transform="translate(-54.441 -34.94)"/><path class="aj" d="M61.05,37.717c-.272-2.58-2.218-2.4-2.354-.226a14.621,14.621,0,0,0,0,2.9l2.489.679A14.908,14.908,0,0,0,61.05,37.717Z" transform="translate(-55.392 -35.821)"/></g><rect class="bm" width="9.641" height="20.006" rx="0.25" transform="translate(0.603 9.721) rotate(-47.38)"/><rect width="9.641" height="20.006" rx="0.25" transform="translate(0.603 9.721) rotate(-47.38)"/><rect width="9.505" height="20.006" rx="0.25" transform="matrix(0.677, -0.736, 0.736, 0.677, 0.68, 9.705)"/><path class="bn" d="M55.775,41.3a1.177,1.177,0,0,1,0-1.629l4.843-5.25a1.132,1.132,0,0,1,1.584,0l12.945,11.9a1.132,1.132,0,0,1,0,1.584l-4.843,5.3a1.132,1.132,0,0,1-1.584,0Z" transform="translate(-54.146 -30.846)"/><rect class="ab" width="8.781" height="15.525" rx="0.31" transform="matrix(0.677, -0.736, 0.736, 0.677, 2.654, 11.014)"/><rect class="bo" width="8.781" height="15.525" rx="0.31" transform="matrix(0.677, -0.736, 0.736, 0.677, 2.654, 11.014)"/><path class="bp" d="M64.672,36.72l-2.489-2.308a1.132,1.132,0,0,0-1.584,0l-4.843,5.3a1.177,1.177,0,0,0,0,1.629l9.5,8.645Z" transform="translate(-54.216 -30.882)"/><path class="bq" d="M56.14,34.82Z" transform="translate(-51.704 -28.302)"/><path class="ak" d="M56.955,34.81h0l-.815.905h0Z" transform="translate(-51.704 -28.338)"/><path class="br" d="M56.955,34.81h0l-.815.905h0Z" transform="translate(-51.704 -28.338)"/><path class="ad" d="M61.638,34.947h0L56.388,40.7h0l-.5-.5h0l5.024-5.658h0Z" transform="translate(-52.586 -29.29)"/><path class="s" d="M63.809,36.907v.272L58.74,42.746h-.317L56.16,40.664v-.272l5.069-5.612H61.5Z" transform="translate(-51.634 -28.443)"/><path class="ae" d="M63.538,36.763l-5.115,5.7L56.93,41.108h0l4.843-5.658H62Z" transform="translate(-48.919 -26.081)"/><path class="af" d="M64.154,37.444h0l-5.069,5.567h-.226L57.41,41.654v-.226l5.069-5.567h0Z" transform="translate(-47.226 -24.635)"/><path class="ad" d="M64.654,37.683v.226l-5.069,5.567h-.226L57.91,42.118h0l4.934-5.748h0Z" transform="translate(-45.463 -22.837)"/><path class="ai" d="M67.21,36.794l-1.358-.362c-1.358-.362-2.852,2.4-1.494,2.761l-.815-.226h0c-1.313-.317-1.992,2.308-.679,2.625l-3.938-1.041c-1.629-.453-2.308,2.173-.679,2.625l8.826,2.354,1.4.362c1.358.362-3.485,2.082-3.666,2.761a1.629,1.629,0,0,0,1,1.81c.679,0,1.358.272,6.427-1.946,4.164-1.81,6.11-.588,6.291-1.267s.634-2.354,1.086-3.983.5-1.9.588-2.173-3.621-3.214-4.843-4.255A24.306,24.306,0,0,0,68.613,34.3C67.255,33.9,65.852,36.432,67.21,36.794Z" transform="translate(-47.566 -30.276)"/><path class="aj" d="M63.8,35.52,61.72,43.033h1.267c.045,0,.634-2.354,1.086-3.983s.5-1.9.588-2.173S64.345,36.018,63.8,35.52Z" transform="translate(-32.028 -25.834)"/><path class="ag" d="M122.109,56.412l-4.3,9.143L61.82,45.051l2.716-9.641Z" transform="translate(-31.676 -26.222)"/><path class="bl" d="M119.422,61.164l.5-5.16L63.478,35.41,62.12,40.3Z" transform="translate(-30.618 -26.222)"/></g><rect class="bs" width="39.423" height="9.958" rx="0.22" transform="translate(132.572 51.463)"/><path class="l" d="M36.31,25.005h.86a1.584,1.584,0,0,1,1.041.272,1.132,1.132,0,0,1,.272.679.86.86,0,0,1-.679.86h0a.769.769,0,0,1,.5.679l.272.95H38.12a5.341,5.341,0,0,1-.226-.815.6.6,0,0,0-.679-.679h-.453v1.494H36.31Zm.453,1.539h.453c.5,0,.815,0,.815-.634s-.317-.634-.815-.634h-.453Z" transform="translate(103.323 30.033)"/><path class="l" d="M38.846,26.72H37.353v1.267h1.494v.362H36.9V25h1.856v.362h-1.4v1.086H38.71Z" transform="translate(105.403 30.038)"/><path class="l" d="M38.255,27.263l-.362,1.086H37.44L38.617,25h.5l1.222,3.44h-.362l-.362-1.086Zm1.132-.362-.362-1a3.345,3.345,0,0,0,0-.634h0a2.579,2.579,0,0,1,0,.634l-.317,1Z" transform="translate(107.307 30.038)"/><path class="l" d="M38.19,25.01h.95a1.765,1.765,0,0,1,1.4.453,1.539,1.539,0,0,1,.5,1.222,1.9,1.9,0,0,1-.5,1.358,2.173,2.173,0,0,1-1.539.5H38.19Zm.453,3.033H39.1a1.358,1.358,0,0,0,1.494-1.494,1.222,1.222,0,0,0-1.4-1.313h-.543Z" transform="translate(109.952 30.029)"/><path class="l" d="M41.991,26.881V25.433h0l-.453,1.313L40.95,28.42h-.362l-.543-1.675a10.548,10.548,0,0,1-.407-1.313h0V28.42H39.23V24.98h.588l.588,1.675a4.722,4.722,0,0,0,.362,1.132h0l.362-1.132.634-1.675h.543l.226,3.44h-.453Z" transform="translate(113.619 29.968)"/><path class="l" d="M43.247,26.725a1.629,1.629,0,0,1-1.584,1.81,1.539,1.539,0,0,1-1.584-1.72,1.675,1.675,0,0,1,1.629-1.856,1.584,1.584,0,0,1,1.539,1.765Zm-2.67,0c0,.769.407,1.4,1.086,1.4s1.132-.634,1.132-1.448-.362-1.4-1.132-1.4-1.086.769-1.086,1.494Z" transform="translate(116.573 29.897)"/><path class="l" d="M40.9,25.005h.86a1.584,1.584,0,0,1,1.041.272,1.131,1.131,0,0,1,.272.679.86.86,0,0,1-.679.86h0a.769.769,0,0,1,.5.679l.272.95H42.71a5.34,5.34,0,0,1,0-.815.6.6,0,0,0-.679-.679h-.679v1.494H40.9Zm.453,1.539h.453c.5,0,.815,0,.815-.634s-.317-.634-.815-.634h-.453Z" transform="translate(119.508 30.033)"/><path class="l" d="M43.154,26.72H41.8v1.267h1.72v.362H41.57V25h1.856v.362h-1.4v1.086H43.38Z" transform="translate(121.871 30.038)"/><path class="bt" d="M28.066,21.691v2.263H27.84V21.51Z" transform="translate(73.456 17.732)"/><path class="bt" d="M28.241,22.606a.86.86,0,0,1,.905-.905.905.905,0,1,1,0,1.81.86.86,0,0,1-.905-.905Zm1.584,0a.679.679,0,0,0-.679-.724.724.724,0,1,0,0,1.448.679.679,0,0,0,.679-.724Z" transform="translate(74.866 18.401)"/><path class="bt" d="M28.75,21.816v.317a.679.679,0,0,1,.588-.317.5.5,0,0,1,.362,0h-.272a.588.588,0,0,0-.588.588v1h0V21.68Z" transform="translate(76.665 18.331)"/><path class="bt" d="M29,22.607a.86.86,0,0,1,.86-.905.815.815,0,0,1,.86,1H29a.679.679,0,0,0,.724.634.815.815,0,0,0,.634-.272h0A.73.73,0,0,1,29,22.607Zm1.539,0a.634.634,0,0,0-.679-.679.724.724,0,0,0-.724.679Z" transform="translate(77.545 18.4)"/><path class="bt" d="M31.729,23.571V22.53a.544.544,0,1,0-1.086.045v1h0v-1a.567.567,0,1,0-1.132,0v1h0v-1.72h0v.272a.679.679,0,0,1,1.222,0,.634.634,0,0,1,.634-.453.724.724,0,0,1,.724.724v1.041Z" transform="translate(79.343 18.296)"/><path class="bt" d="M30.642,21.59h0Zm-.226.543v1.72h0Z" transform="translate(82.377 18.014)"/><path class="bt" d="M30.53,24.155V21.711h0v.407a.769.769,0,0,1,.724-.407.815.815,0,0,1,.86.86.86.86,0,0,1-.905.905.724.724,0,0,1-.679-.453Zm1.584-1.584a.7.7,0,1,0-1.4,0,.724.724,0,0,0,.679.724.679.679,0,0,0,.724-.724Z" transform="translate(82.941 18.436)"/><path class="bt" d="M32.257,22.062a.86.86,0,0,0-.543,0c-.272,0-.543,0-.5.317s.272.272.5.317.724,0,.724.5-.407.5-.724.5a.86.86,0,0,1-.679-.634h0a.905.905,0,0,0,.634.272c.226,0,.543,0,.543-.317s-.272-.317-.543-.362-.679,0-.679-.453.317-.5.679-.5a.815.815,0,0,1,.634.272Z" transform="translate(84.564 18.402)"/><path class="bt" d="M32.795,23.5v-.407a.751.751,0,0,1-1.4-.407v-1h0v1a.543.543,0,0,0,.588.588.634.634,0,0,0,.634-.634V21.69h0v1.72Z" transform="translate(85.972 18.367)"/><path class="bt" d="M34.165,23.466V22.425a.566.566,0,1,0-1.132.045v1h0v-1a.567.567,0,1,0-1.132,0v1h0v-1.72h0v.272a.634.634,0,0,1,.453-.317.724.724,0,0,1,.679.453.634.634,0,0,1,.634-.453.724.724,0,0,1,.724.724v1.041Z" transform="translate(87.771 18.402)"/><path class="bt" d="M34.359,21.585v2.444h0v-.407a.884.884,0,1,1-.724-1.4.769.769,0,0,1,.724.407V21.54Zm-1.584,1.584a.634.634,0,0,0,.679.724.724.724,0,1,0,0-1.448.634.634,0,0,0-.679.724Z" transform="translate(90.835 17.838)"/><path class="bt" d="M33.211,22.535a.86.86,0,1,1,.235.638.86.86,0,0,1-.235-.638Zm1.584,0a.724.724,0,1,0-.724.724.679.679,0,0,0,.724-.724Z" transform="translate(92.391 18.473)"/><path class="bt" d="M33.72,21.55v2.444h0Z" transform="translate(94.19 17.873)"/><path class="bt" d="M33.811,22.535a.86.86,0,1,1,.235.638.86.86,0,0,1-.235-.638Zm1.584,0a.724.724,0,1,0-.724.724.679.679,0,0,0,.724-.724Z" transform="translate(94.506 18.473)"/><path class="bt" d="M34.31,21.816v.317a.543.543,0,0,1,.543-.317.5.5,0,0,1,.362,0H34.9a.543.543,0,0,0-.543.588v1h0V21.68Z" transform="translate(96.27 18.331)"/><path class="bt" d="M36.108,21.851a.769.769,0,0,0-.543,0s-.5,0-.5.317.317.272.543.317.724,0,.679.5-.407.5-.679.5a.905.905,0,0,1-.769-.362h0a.815.815,0,0,0,.634.272s.5,0,.543-.317-.317-.317-.588-.362-.679,0-.679-.453.362-.5.679-.5a.905.905,0,0,1,.679.272Z" transform="translate(97.822 18.613)"/><path class="bt" d="M35.442,21.59h0Zm0,.543v1.72h0Z" transform="translate(99.303 18.014)"/><path class="bt" d="M35.868,21.6v.5h0V23.41c0,.272,0,.407.317.407H36.14c-.362,0-.5-.226-.5-.588V22.188h0V21.6Z" transform="translate(99.691 18.049)"/><path class="bt" d="M37.435,21.747v1.72h0v-.407a.724.724,0,0,1-.679.407.883.883,0,1,1,0-1.765.724.724,0,0,1,.679.362V21.7Zm-1.584.86a.679.679,0,0,0,.724.724.724.724,0,1,0-.724-.724Z" transform="translate(101.7 18.401)"/><path class="bt" d="M38.6,23.5V22.461a.588.588,0,1,0-1.132,0v1h0v-1a.543.543,0,1,0-1.086,0v1h0v-1.72h0v.272a.588.588,0,0,1,.543-.317.634.634,0,0,1,.634.453.724.724,0,0,1,.634-.453.679.679,0,0,1,.724.724v1.041Z" transform="translate(103.57 18.365)"/><path class="bt" d="M37,22.607a.86.86,0,0,1,.86-.905.815.815,0,0,1,.86,1H37a.634.634,0,0,0,.679.634.815.815,0,0,0,.634-.272h0a1.041,1.041,0,0,1-.769.362A.86.86,0,0,1,37,22.607Zm1.584,0a.7.7,0,0,0-1.4,0Z" transform="translate(105.755 18.4)"/><path class="bt" d="M38,21.6v.5h0V23.41c0,.272,0,.407.317.407H38.27c-.362,0-.5-.226-.5-.588V22.188h0V21.6Z" transform="translate(107.202 18.049)"/><path class="bt" d="M37.81,22.07h0v.362h0V22.07Z" transform="translate(108.612 19.707)"/><path class="bt" d="M39.67,23.165a.905.905,0,1,1-.634-1.494,1.086,1.086,0,0,1,.634.226h0a.66.66,0,1,0,0,1.222Z" transform="translate(109.558 18.295)"/><path class="bt" d="M38.5,22.535a.86.86,0,1,1,.235.638.86.86,0,0,1-.235-.638Zm1.539,0a.679.679,0,0,0-.679-.724.724.724,0,0,0,0,1.448.679.679,0,0,0,.679-.724Z" transform="translate(111.044 18.473)"/><path class="bt" d="M39,21.746v.317a.634.634,0,0,1,.588-.362.724.724,0,0,1,.769.769v1h0v-1a.543.543,0,0,0-.588-.588.588.588,0,0,0-.588.634v.951h0v-1.72Z" transform="translate(112.808 18.401)"/><path class="bt" d="M40.728,21.852a.769.769,0,0,0-.543,0c-.272,0-.5,0-.5.317s.317.272.5.317.724,0,.724.5-.407.5-.724.5a.86.86,0,0,1-.724-.362h0a.769.769,0,0,0,.634.272s.5,0,.5-.317-.272-.317-.543-.362-.679,0-.679-.453.362-.5.679-.5a.769.769,0,0,1,.634.272Z" transform="translate(114.113 18.613)"/><path class="bt" d="M39.77,22.605a.905.905,0,0,1,.905-.905.815.815,0,0,1,.815,1H39.951a.679.679,0,0,0,.724.634.724.724,0,0,0,.588-.272h0a.951.951,0,0,1-.724.362A.86.86,0,0,1,39.77,22.605Zm1.584,0a.634.634,0,0,0-.679-.679.724.724,0,0,0-.724.679Z" transform="translate(115.523 18.402)"/><path class="bt" d="M41.725,23.165a.86.86,0,0,1-.634.226.86.86,0,1,1,0-1.72,1.086,1.086,0,0,1,.634.226h0a.769.769,0,0,0-.543-.226.724.724,0,1,0,0,1.448.769.769,0,0,0,.543,0Z" transform="translate(117.144 18.295)"/><path class="bt" d="M41.188,21.6v.5h0V23.41c0,.272,0,.407.317.407H41.46c-.362,0-.5-.226-.5-.588V22.188h0V21.6Z" transform="translate(118.45 18.049)"/><path class="bt" d="M40.92,22.607a.905.905,0,0,1,.86-.905.815.815,0,0,1,.86,1H41.282a.679.679,0,0,0,.679.634.815.815,0,0,0,.634-.272h0a1.041,1.041,0,0,1-.769.362.86.86,0,0,1-.905-.815Zm1.584,0a.634.634,0,0,0-.724-.679.679.679,0,0,0-.679.679Z" transform="translate(119.579 18.4)"/><path class="bt" d="M41.928,21.6v.5h0V23.41c0,.272,0,.407.317.407H42.2c-.362,0-.5-.226-.5-.588V22.188h0V21.6Z" transform="translate(121.06 18.049)"/><path class="bt" d="M43.059,23.5v-.407a.728.728,0,0,1-1.358-.407v-1h0v1a.634.634,0,0,0,1.222,0v-.95h0v1.72Z" transform="translate(122.328 18.367)"/><path class="bt" d="M42.16,21.816v.317a.543.543,0,0,1,.543-.317.5.5,0,0,1,.362,0h-.317a.543.543,0,0,0-.543.588v1h0V21.68Z" transform="translate(123.951 18.331)"/><path class="bt" d="M44.235,21.748v1.72h0V23.06a.86.86,0,0,1-1.584-.5.815.815,0,0,1,.86-.86.769.769,0,0,1,.724.362V21.7Zm-1.584.86a.679.679,0,0,0,.679.724.731.731,0,1,0-.634-.724Z" transform="translate(125.678 18.4)"/><path class="bt" d="M44.708,21.585v2.444h0v-.407a1,1,0,0,1-.724.407.815.815,0,0,1-.86-.905.86.86,0,0,1,.86-.905.815.815,0,0,1,.724.407V21.54Zm-1.584,1.584a.679.679,0,0,0,.724.724.724.724,0,0,0,0-1.448.679.679,0,0,0-.724.724Z" transform="translate(127.332 17.838)"/><path class="bt" d="M43.842,21.59h0Zm-.226.543v1.72h0Z" transform="translate(128.923 18.014)"/><path class="bt" d="M43.73,24.154V21.71h0v.407a.85.85,0,1,1,0,.905Zm1.584-1.584a.679.679,0,0,0-.724-.724.724.724,0,1,0,0,1.448.679.679,0,0,0,.724-.724Z" transform="translate(129.487 18.437)"/><path class="bt" d="M44.507,21.653H44.19S44.507,21.472,44.507,21.653Zm0,.543v1.72h0Z" transform="translate(131.109 17.951)"/><path class="bt" d="M45.668,21.852a.769.769,0,0,0-.543,0c-.272,0-.5,0-.5.317s.317.272.5.317.724,0,.724.5-.407.5-.724.5a.86.86,0,0,1-.724-.362h0a.769.769,0,0,0,.634.272s.5,0,.5-.317-.272-.317-.543-.362-.679,0-.679-.453.362-.5.679-.5a.77.77,0,0,1,.634.272Z" transform="translate(131.532 18.613)"/><path class="bt" d="M46.29,23.165a.905.905,0,1,1-.634-1.494,1.086,1.086,0,0,1,.634.226h0a.66.66,0,1,0-.226,1.267Z" transform="translate(132.902 18.295)"/><path class="bt" d="M45.382,21.59h0Zm-.226.543v1.72h0Z" transform="translate(134.353 18.014)"/><path class="bt" d="M45.31,21.746v.317A.634.634,0,0,1,45.9,21.7a.724.724,0,0,1,.769.769v1h0v-1a.543.543,0,0,0-.588-.588.588.588,0,0,0-.588.634v.951h0v-1.72Z" transform="translate(135.059 18.401)"/><path class="bt" d="M47.412,21.937h0a.769.769,0,0,1,0,.588.815.815,0,0,1-.453.724.634.634,0,0,1,.453.634c0,.453-.362.679-.815.679a.724.724,0,0,1-.815-.679h0a.588.588,0,0,0,.634.5c.362,0,.634,0,.634-.5a.588.588,0,0,0-.634-.543.769.769,0,0,1-.815-.815.815.815,0,0,1,.815-.86.95.95,0,0,1,.5,0ZM46.1,22.8a.634.634,0,0,0,.634.679.679.679,0,0,0,.634-.679.634.634,0,0,0-1.267,0Z" transform="translate(136.08 18.165)"/><path class="bt" d="M46.321,22.607a.86.86,0,0,1,.86-.905.815.815,0,0,1,.86,1H46.5a.634.634,0,0,0,.679.634.815.815,0,0,0,.634-.272h0a.815.815,0,0,1-1.494-.453Zm1.539,0a.68.68,0,1,0-1.358,0Z" transform="translate(138.619 18.4)"/><path class="bt" d="M46.83,21.55v2.444h0Z" transform="translate(140.418 17.873)"/><path class="bt" d="M47.212,21.59h0Zm-.226.543v1.72h0Z" transform="translate(140.806 18.014)"/><path class="bt" d="M47.628,21.6v.5h0V23.41c0,.272,0,.407.317.407H47.9c-.362,0-.5-.226-.5-.588V22.188h0V21.6Z" transform="translate(141.159 18.049)"/><path class="bt" d="M47.642,22.07h0Z" transform="translate(142.322 19.707)"/><path class="bt" d="M49.732,23.853l-.272-.407H48.012l-.272.588h0l1.086-2.444h0l1.132,2.444Zm-.317-.769-.5-1.494-.634,1.494Z" transform="translate(143.627 18.014)"/><path class="bt" d="M48.32,21.55v2.444h0Z" transform="translate(145.672 17.873)"/><path class="bt" d="M48.682,21.59h0Zm0,.543v1.72h0Z" transform="translate(145.99 18.014)"/><path class="bt" d="M50.138,24.154V23.023a.724.724,0,0,1-.724.453.815.815,0,0,1-.86-.905.86.86,0,0,1,1.584-.453V21.71h0Zm0-1.584a.679.679,0,0,0-.679-.724.724.724,0,0,0,0,1.448.679.679,0,0,0,.634-.724Z" transform="translate(146.479 18.437)"/><path class="bt" d="M50.435,23.5v-.407a.751.751,0,0,1-1.4-.407v-1h0v1a.543.543,0,0,0,.634.588.588.588,0,0,0,.588-.634V21.69h0v1.72Z" transform="translate(148.174 18.367)"/><path class="bt" d="M51.075,21.747v1.72h0v-.407a.724.724,0,0,1-.679.407.883.883,0,1,1,0-1.765.724.724,0,0,1,.679.362V21.7Zm-1.584.86a.679.679,0,0,0,.724.724.724.724,0,1,0-.724-.724Z" transform="translate(149.797 18.401)"/><path class="bt" d="M52.238,23.5V22.461a.588.588,0,0,0-1.132,0v1h0v-1a.543.543,0,0,0-1.086,0v1h0v-1.72h0v.272a.588.588,0,0,1,.543-.317.634.634,0,0,1,.634.453.724.724,0,0,1,.634-.453.679.679,0,0,1,.724.724v1.041Z" transform="translate(151.667 18.365)"/><path class="bu" d="M34.679,25.214A4.164,4.164,0,0,1,33,25.485a3.123,3.123,0,0,1-3.44-3.3A3.349,3.349,0,0,1,33.141,18.7a3.893,3.893,0,0,1,1.629.317l-.317,1.177a2.852,2.852,0,0,0-1.222-.272A1.992,1.992,0,0,0,31.1,22.091a1.992,1.992,0,0,0,2.127,2.173,3.078,3.078,0,0,0,1.222-.226Z" transform="translate(79.516 7.782)"/><path class="bu" d="M30.91,18.75a19.644,19.644,0,0,1,1.992,0,3.44,3.44,0,0,1,2.127.543,1.584,1.584,0,0,1,.588,1.358,1.72,1.72,0,0,1-1.132,1.629h0a1.72,1.72,0,0,1,.86,1.222c.226.724.407,1.584.543,1.856H34.35a8.509,8.509,0,0,1-.453-1.539.911.911,0,0,0-1.041-1.041H32.4v2.58H30.91ZM32.4,21.6h.588c.724,0,1.177-.362,1.177-.95s-.407-.905-1.086-.905H32.4Z" transform="translate(84.281 7.91)"/><path class="bu" d="M36.128,22.522H33.684v1.539H36.4v1.222H32.19V18.72h4.074v1.267h-2.58v1.4h2.444Z" transform="translate(88.795 7.894)"/><path class="bu" d="M35.232,23.608l-.453,1.675H33.24l1.992-6.563h1.992l2.037,6.563H37.63l-.5-1.675Zm1.675-1.132-.226-1.4a7.406,7.406,0,0,0-.317-1.267h0a2.087,2.087,0,0,1-.272,1.267l-.407,1.4Z" transform="translate(92.497 7.894)"/><path class="bu" d="M36.235,19.952H34.47V18.73h5.069v1.222h-1.81v5.341H36.235Z" transform="translate(96.835 7.929)"/><path class="bu" d="M37.264,18.72v6.563H35.77V18.72Z" transform="translate(101.419 7.894)"/><path class="bu" d="M38.342,25.283,36.26,18.72h1.629l.815,2.761c.226.769.407,1.539.588,2.354h0a8.25,8.25,0,0,1,.588-2.308l.86-2.806h1.584l-2.218,6.563Z" transform="translate(103.147 7.894)"/><path class="bu" d="M41.653,22.522h-2.4v1.539h2.67v1.222H37.76V18.72h4.028v1.267H39.254v1.4h2.4Z" transform="translate(108.436 7.894)"/><path class="bu" d="M39.34,18.75a18.6,18.6,0,0,1,1.946,0,3.349,3.349,0,0,1,1.946.407A1.4,1.4,0,0,1,44,20.425a1.448,1.448,0,0,1-1.041,1.4h0a1.629,1.629,0,0,1,1.267,1.584,1.675,1.675,0,0,1-.679,1.4,3.847,3.847,0,0,1-2.58.634,11.542,11.542,0,0,1-1.629,0Zm1.494,2.535h.5c.769,0,1.177-.317,1.177-.815s-.362-.769-1.041-.769h-.634Zm0,2.942h.588c.679,0,1.267-.226,1.267-.95s-.588-.905-1.358-.905h-.5Z" transform="translate(114.007 7.909)"/><path class="bu" d="M42.164,18.72v3.757c0,1.132.407,1.72,1.177,1.72s1.222-.543,1.222-1.72V18.72h1.494v3.666c0,2.037-1.041,2.987-2.761,2.987s-2.625-.905-2.625-2.987V18.72Z" transform="translate(118.697 7.894)"/><path class="bu" d="M42.342,23.85a3.666,3.666,0,0,0,1.675.407c.679,0,1.041-.272,1.041-.724s-.317-.634-1.086-.905-1.81-1-1.81-1.946A2.249,2.249,0,0,1,44.65,18.69a4.979,4.979,0,0,1,1.675.317l-.362,1.222a2.806,2.806,0,0,0-1.358-.317c-.634,0-.951.317-.951.634s.362.634,1.222.95a2.366,2.366,0,0,1,1.72,1.946c0,.905-.86,2.037-2.67,2.037a3.893,3.893,0,0,1-1.856-.407Z" transform="translate(123.634 7.788)"/><path class="bu" d="M44.784,18.72v6.563H43.29V18.72Z" transform="translate(127.936 7.894)"/><path class="bu" d="M43.9,25.283V18.72h1.765l1.358,2.4a17.422,17.422,0,0,1,1.086,2.263h0a18.1,18.1,0,0,1,0-2.761v-1.9h1.358v6.563H47.883l-1.4-2.535c-.362-.724-.815-1.539-1.132-2.308h0v4.843Z" transform="translate(130.087 7.894)"/><path class="bu" d="M49.328,22.522h-2.4v1.539H49.6v1.222H45.39V18.72h4.074v1.267H46.929v1.4h2.4Z" transform="translate(135.341 7.894)"/><path class="bu" d="M46.807,23.85a3.44,3.44,0,0,0,1.629.407c.724,0,1.086-.272,1.086-.724s-.317-.634-1.132-.905-1.81-1-1.81-1.946A2.279,2.279,0,0,1,49.07,18.69a4.527,4.527,0,0,1,1.675.317l-.317,1.222a2.987,2.987,0,0,0-1.358-.317c-.679,0-1,.317-1,.634s.407.634,1.222.95,1.72,1.041,1.72,1.946-.86,2.037-2.67,2.037a4.028,4.028,0,0,1-1.856-.407Z" transform="translate(139.219 7.788)"/><path class="bu" d="M47.977,23.85a3.3,3.3,0,0,0,1.629.407c.679,0,1.041-.272,1.041-.724s-.317-.634-1.086-.905-1.81-1-1.81-1.946A2.279,2.279,0,0,1,50.24,18.69a4.979,4.979,0,0,1,1.675.317L51.6,20.229a3.214,3.214,0,0,0-1.4-.317c-.634,0-.95.317-.95.634s.362.634,1.222.95a2.366,2.366,0,0,1,1.72,1.946c0,.905-.86,2.037-2.67,2.037a3.893,3.893,0,0,1-1.856-.407Z" transform="translate(143.345 7.788)"/><path class="bv" d="M12.16,47.262l24.577-1.267L40.765,22.73,14.016,24Z" transform="translate(18.165 22.034)"/><rect class="bw" width="10.682" height="22.178" rx="0.28" transform="translate(49.669 46.441) rotate(-10.24)"/><rect class="ak" width="10.682" height="22.178" rx="0.28" transform="translate(49.669 46.441) rotate(-10.24)"/><rect class="ak" width="10.546" height="22.178" rx="0.28" transform="translate(49.758 46.425) rotate(-10.24)"/><path class="l" d="M26.769,23.823a1.267,1.267,0,0,0-1.448-1.041l-7.785,1.4a1.267,1.267,0,0,0-1,1.494l3.44,19.191a1.222,1.222,0,0,0,1.448,1l7.83-1.4a1.313,1.313,0,0,0,1-1.448Z" transform="translate(33.52 22.163)"/><rect class="ab" width="9.731" height="17.245" rx="0.27" transform="translate(50.617 48.892) rotate(-10.24)"/><rect class="bx" width="9.731" height="17.245" rx="0.27" transform="translate(50.617 48.892) rotate(-10.24)"/><path class="bp" d="M17.173,29.325l-.634-3.666a1.267,1.267,0,0,1,1-1.494l7.785-1.4A1.267,1.267,0,0,1,26.769,23.8L29.3,37.744Z" transform="translate(33.52 22.092)"/><path class="bq" d="M17.6,23Z" transform="translate(37.348 22.986)"/><path class="ak" d="M17.48,23.422l1.358-.272h0l-1.358.226h0Z" transform="translate(36.925 23.515)"/><path class="by" d="M17.48,23.422l1.358-.272h0l-1.358.226h0Z" transform="translate(36.925 23.515)"/><path class="ad" d="M16.951,25.618h0l8.283-1.448h0V23.4h-.226L16.77,24.848h0Z" transform="translate(34.421 24.397)"/><path class="s" d="M17.635,28.708v.453l8.238-1.448v-.272l-.588-3.395a.226.226,0,0,0-.226-.226L16.82,25.268v.272Z" transform="translate(34.597 25.878)"/><path class="ae" d="M17.13,28.615h0L25.594,27.3a.226.226,0,0,0,0-.226V24.9a.226.226,0,0,0-.226,0L17.13,26.352Z" transform="translate(35.691 29.592)"/><path class="af" d="M17.558,29.281h0L25.8,27.833h0l-.362-2.173-8.238,1.4a.317.317,0,0,0,0,.226Z" transform="translate(35.851 32.366)"/><path class="ad" d="M17.672,30.046H17.9L26.136,28.6h0l-.362-2.218h-.226L17.31,27.828h0Z" transform="translate(36.325 34.905)"/></g><path class="bu" d="M45.9,8.6a1.72,1.72,0,0,0,.724,0c.272,0,.453,0,.453-.317s0-.272-.5-.407-.769-.407-.769-.815A.988.988,0,0,1,46.9,6.2a2.58,2.58,0,0,1,.724,0v.543a1.222,1.222,0,0,0-.588,0c-.272,0-.407,0-.407.272s0,.272.543.407.724.407.724.815-.362.86-1.132.86a2.037,2.037,0,0,1-.815,0Z" transform="translate(136.822 9.687)"/><path class="bu" d="M48.095,7.859H47.054v.679H48.23v.543H46.42V6.23h1.72v.543H47.054v.588h1.041Z" transform="translate(138.973 9.883)"/><path class="bu" d="M47,6.305h.86a1.267,1.267,0,0,1,.905,0,.679.679,0,0,1,.272.588.769.769,0,0,1-.5.679h0a.679.679,0,0,1,.362.543V8.93h-.634a2.172,2.172,0,0,1,0-.679c0-.362,0-.453-.453-.453h0V8.93H47Zm.634,1.222h.272c.317,0,.5,0,.5-.407s0-.407-.453-.407h-.317Z" transform="translate(141.018 9.853)"/><path class="bu" d="M48.485,9.081,47.58,6.23H48.3l.317,1.222a3.576,3.576,0,0,1,.272,1h0l.272-1,.317-1.222h.679l-.679,2.851Z" transform="translate(143.063 9.883)"/><path class="bu" d="M48.954,6.23V9.081H48.32V6.23Z" transform="translate(145.672 9.883)"/><path class="bu" d="M50.861,9.052h-.724a1.313,1.313,0,0,1-1.494-1.4,1.448,1.448,0,0,1,1.629-1.4,2.037,2.037,0,0,1,.724,0v.5h-.543a.86.86,0,0,0-.905.905.86.86,0,0,0,.905.95H51Z" transform="translate(146.798 9.823)"/><path class="bu" d="M50.985,7.859H49.944v.679H51.12v.543H49.31V6.23h1.765v.543H49.944v.588h1.041Z" transform="translate(149.163 9.883)"/><path class="bu" d="M49.971,8.6a1.72,1.72,0,0,0,.724,0c.272,0,.453,0,.453-.317s0-.272-.5-.407-.769-.407-.769-.815a.988.988,0,0,1,1.086-.86,2.58,2.58,0,0,1,.724,0v.543a1.584,1.584,0,0,0-.588,0c-.317,0-.453,0-.453.272s0,.272.543.407.724.407.724.815-.362.86-1.132.86a2.037,2.037,0,0,1-.815,0Z" transform="translate(151.173 9.687)"/><path class="bu" d="M56.539,9.122h-.724a1.358,1.358,0,0,1-1.494-1.4A1.448,1.448,0,0,1,55.86,6.225a2.037,2.037,0,0,1,.724,0v.5h-.543a.86.86,0,0,0-.905.905.86.86,0,0,0,.905.951h.543Z" transform="translate(166.829 9.752)"/><path class="bu" d="M57.661,7.668a1.358,1.358,0,0,1-1.4,1.494,1.313,1.313,0,0,1-1.313-1.448,1.363,1.363,0,1,1,2.716-.045Zm-2.037,0c0,.543,0,.905.679.905s.679-.407.679-.95-.272-.951-.679-.951-.679.453-.679,1.041Z" transform="translate(169.01 9.848)"/><path class="bu" d="M55.72,9.081V6.23h.724l.588,1.041a9.6,9.6,0,0,1,.5.95h0a9.457,9.457,0,0,1,0-1.177V6.23h.588V9.081H57.44L56.987,8l-.453-1h0a10.236,10.236,0,0,1,0,1.222v.86Z" transform="translate(171.766 9.883)"/><path class="bu" d="M57.169,6.773H56.4V6.23h2.173v.543H57.8V9.081h-.634Z" transform="translate(174.164 9.883)"/><path class="bu" d="M57.8,8.357l-.226.724H56.94L57.8,6.23h.815l.86,2.851H58.8l-.226-.724Zm.679-.5V6.728h0V7.859Z" transform="translate(176.068 9.883)"/><path class="bu" d="M59.805,9.053a2.127,2.127,0,0,1-.724,0,1.313,1.313,0,0,1-1.448-1.4,1.448,1.448,0,0,1,1.675-1.4,1.72,1.72,0,0,1,.679,0v.5h-.543a.86.86,0,0,0-.905.905.86.86,0,0,0,.905.95h.543Z" transform="translate(178.498 9.822)"/><path class="bu" d="M59.029,6.773H58.26V6.23h2.173v.543h-.769V9.081h-.634Z" transform="translate(180.723 9.883)"/><path class="bu" d="M21.815,6.23V7.316h1.041V6.23h.679V9.081h-.679V7.859H21.815V9.081H21V6.23Z" transform="translate(49.337 9.883)"/><path class="bu" d="M24.461,7.669a1.358,1.358,0,0,1-1.4,1.494,1.313,1.313,0,0,1-1.313-1.448A1.358,1.358,0,0,1,23.1,6.221a1.313,1.313,0,0,1,1.358,1.448Zm-2.037,0c0,.543.272.905.679.905s.679-.407.679-.95-.226-.95-.679-.95-.679.453-.679,1.041Z" transform="translate(51.941 9.847)"/><path class="bu" d="M24.778,8V6.818h0A7.6,7.6,0,0,1,24.552,7.9l-.317,1.086h-.5L23.42,7.9a1.694,1.694,0,0,0-.272-1.086h0a9.823,9.823,0,0,1,0,1.177V9.081H22.56V6.23h.86l.272.95a7.876,7.876,0,0,1,.226,1h0l.272-1,.362-.95h.815V9.082h-.634Z" transform="translate(54.838 9.883)"/><path class="bu" d="M25.075,7.859H24.034v.679h1.132v.543H23.4V6.23h1.72v.543H24.034v.588h1.041Z" transform="translate(57.8 9.883)"/><path class="bu" d="M29.149,8.357v.724H28.47l.86-2.851h.86l.86,2.851h-.679l-.407-.724Zm.724-.5V6.728h0V7.859Z" transform="translate(75.678 9.883)"/><path class="bu" d="M29.18,6.274h.815a1.9,1.9,0,0,1,.815,0,.769.769,0,0,1,.362.588.724.724,0,0,1-.5.588h0a.724.724,0,0,1,.588.679.86.86,0,0,1-.317.634,1.946,1.946,0,0,1-1.086.226H29.18Zm.634,1.086h0c.362,0,.5,0,.5-.362s0-.317-.407-.317h-.272Zm0,1.267h.226c.272,0,.543,0,.543-.407s-.272-.407-.588-.407h0Z" transform="translate(78.181 9.884)"/><path class="bu" d="M32.476,7.668a1.358,1.358,0,0,1-1.358,1.494,1.313,1.313,0,0,1-1.313-1.448A1.358,1.358,0,0,1,31.163,6.22a1.313,1.313,0,0,1,1.313,1.448Zm-1.992,0c0,.543.226.905.679.905s.679-.407.679-.95-.272-.951-.679-.951-.453.453-.453,1.041Z" transform="translate(80.362 9.848)"/><path class="bu" d="M31.214,6.23V7.859c0,.5,0,.724.5.724s.543,0,.543-.724V6.23h.634V7.814c0,.86-.453,1.313-1.177,1.313S30.58,8.719,30.58,7.814V6.23Z" transform="translate(83.118 9.883)"/><path class="bu" d="M32.019,6.773H31.25V6.23h2.173v.543h-.769V9.081h-.634Z" transform="translate(85.48 9.883)"/><path class="bu" d="M32.814,6.23V7.859c0,.5,0,.724.5.724s.543,0,.543-.724V6.23h.634V7.814c0,.86-.453,1.313-1.177,1.313S32.18,8.719,32.18,7.814V6.23Z" transform="translate(88.76 9.883)"/><path class="bu" d="M32.971,8.6a1.72,1.72,0,0,0,.724,0c.272,0,.453,0,.453-.317s0-.272-.5-.407-.769-.407-.769-.815a.988.988,0,0,1,1.086-.86,2.58,2.58,0,0,1,.724,0v.543a1.584,1.584,0,0,0-.588,0c-.272,0-.407,0-.407.272s0,.272.5.407.724.407.724.815-.362.86-1.132.86a1.675,1.675,0,0,1-.769,0Z" transform="translate(91.228 9.687)"/><path class="bs" d="M39.122,7.779a4.529,4.529,0,0,0-.362.815,6.79,6.79,0,0,0,0,1.675,5.16,5.16,0,0,0,1.086,3.53,3.576,3.576,0,0,0,1.4.905,2.625,2.625,0,0,1-1.222-2.173v-.905a4.526,4.526,0,0,1,.634-2.58,2.082,2.082,0,0,1,1.81-.95,4.8,4.8,0,0,1,1.4,0l1.313.543.317-.86L46.138,6.1a8.011,8.011,0,0,0-3.214-.815,4.526,4.526,0,0,0-2.037.588A3.485,3.485,0,0,0,39.122,7.779Z" transform="translate(111.781 6.569)"/><path class="bs" d="M39.122,7.779a4.529,4.529,0,0,0-.362.815,6.79,6.79,0,0,0,0,1.675,5.16,5.16,0,0,0,1.086,3.53,3.576,3.576,0,0,0,1.4.905,2.625,2.625,0,0,1-1.222-2.173v-.905a4.526,4.526,0,0,1,.634-2.58,2.082,2.082,0,0,1,1.81-.95,4.8,4.8,0,0,1,1.4,0l1.313.543.317-.86L46.138,6.1a8.011,8.011,0,0,0-3.214-.815,4.526,4.526,0,0,0-2.037.588A3.485,3.485,0,0,0,39.122,7.779Z" transform="translate(111.781 6.569)"/><path class="bs" d="M45.764,14.621a3.938,3.938,0,0,1-1,.226h-.5a2.535,2.535,0,0,1-1.358-.317,3.576,3.576,0,0,1-1.4-.905,5.16,5.16,0,0,1-1.086-3.53,6.788,6.788,0,0,1,0-1.675,4.527,4.527,0,0,1,.362-.815,3.485,3.485,0,0,1,1.539-1.675,4.526,4.526,0,0,1,2.037-.588h-.453a5.884,5.884,0,0,0-3.033.724,5.024,5.024,0,0,0-1.992,2.127,5.3,5.3,0,0,0-.407,1.086,8.418,8.418,0,0,0-.272,2.173,6.427,6.427,0,0,0,1.4,4.526,5.431,5.431,0,0,0,4.119,1.539,8.057,8.057,0,0,0,3.349-.679V14.123Z" transform="translate(109.937 6.742)"/></g></g></g></svg>