<svg xmlns="http://www.w3.org/2000/svg" viewBox="0 0 150.129 156.677"><defs><style>.a{fill:#e4851c;}.b{fill:#41464b;}.c{fill:#afafaf;}.d{fill:#fed65c;}.e{fill:#fff;}.f{fill:#4cbed8;}.g{fill:#1cace4;}</style></defs><g transform="translate(0 0.006)"><g transform="translate(0 -0.006)"><rect class="a" width="117.984" height="8.707" transform="translate(17.584 147.254)"/><path class="b" d="M223.823,251.962l-.473-1.345,10.482-3.678-10.482-3.684.473-1.345,14.324,5.029Z" transform="translate(-88.018 -95.328)"/><rect class="b" width="1.43" height="2.739" transform="translate(143.56 150.241)"/><path class="b" d="M142.488,251.969H18.275a.715.715,0,0,1-.715-.715v-8.719a.715.715,0,0,1,.212-.5.691.691,0,0,1,.5-.212H142.488a.715.715,0,0,1,.715.715v8.707a.715.715,0,0,1-.715.727Zm-123.45-1.43H141.8v-7.271H19.038Z" transform="translate(-6.92 -95.293)"/><path class="b" d="M146.532,250.962h-118a.721.721,0,0,1-.509-.212.709.709,0,0,1-.206-.5v-2.9a.715.715,0,0,1,.715-.715h118a.715.715,0,0,1,.715.715v2.9a.727.727,0,0,1-.715.715Zm-117.276-1.43H145.817v-1.466H29.262Z" transform="translate(-10.963 -97.189)"/><path class="c" d="M8.55,249.665a2.036,2.036,0,0,0,2.036,2.042h4.163V243H10.586a2.036,2.036,0,0,0-2.036,2.042Z" transform="translate(-3.369 -95.758)"/><path class="b" d="M15.023,251.969H10.175A2.751,2.751,0,0,1,7.37,249.2v-4.623a2.751,2.751,0,0,1,2.751-2.757h4.9Zm-1.454-8.707H10.121a1.334,1.334,0,0,0-1.327,1.327V249.2a1.334,1.334,0,0,0,1.327,1.327h3.448Z" transform="translate(-2.904 -95.293)"/><path class="b" d="M25.229,251.977H17.6V241.84h7.635Zm-6.174-1.43h4.775v-7.271H19.054Z" transform="translate(-6.936 -95.301)"/><rect class="d" width="14.275" height="142.791" transform="matrix(1, -0.003, 0.003, 1, 129.503, 0.045)"/><rect class="b" width="3.266" height="1.43" transform="translate(140.932 139.292) rotate(-0.17)"/><rect class="b" width="3.266" height="1.43" transform="translate(140.93 136.486) rotate(-0.17)"/><rect class="b" width="3.266" height="1.43" transform="translate(140.916 133.687) rotate(-0.17)"/><rect class="b" width="3.266" height="1.43" transform="translate(140.907 130.888) rotate(-0.17)"/><rect class="b" width="3.266" height="1.43" transform="translate(140.899 128.089) rotate(-0.17)"/><rect class="b" width="3.266" height="1.43" transform="translate(140.891 125.289) rotate(-0.17)"/><rect class="b" width="3.266" height="1.43" transform="translate(140.888 122.49) rotate(-0.17)"/><rect class="b" width="3.266" height="1.43" transform="translate(140.874 119.691) rotate(-0.17)"/><rect class="b" width="3.266" height="1.43" transform="translate(140.866 116.891) rotate(-0.17)"/><rect class="b" width="3.266" height="1.43" transform="translate(140.864 114.092) rotate(-0.17)"/><rect class="b" width="3.266" height="1.43" transform="translate(140.849 111.293) rotate(-0.17)"/><rect class="b" width="3.266" height="1.43" transform="translate(140.841 108.493) rotate(-0.17)"/><rect class="b" width="3.266" height="1.43" transform="translate(140.833 105.694) rotate(-0.17)"/><rect class="b" width="3.266" height="1.43" transform="translate(140.824 102.895) rotate(-0.17)"/><rect class="b" width="3.266" height="1.43" transform="translate(140.822 100.095) rotate(-0.17)"/><rect class="b" width="3.266" height="1.43" transform="translate(140.808 97.296) rotate(-0.17)"/><rect class="b" width="3.266" height="1.43" transform="translate(140.799 94.491) rotate(-0.17)"/><rect class="b" width="3.266" height="1.43" transform="translate(140.797 91.691) rotate(-0.17)"/><rect class="b" width="3.266" height="1.43" transform="translate(140.783 88.892) rotate(-0.17)"/><rect class="b" width="3.266" height="1.43" transform="translate(140.774 86.093) rotate(-0.17)"/><rect class="b" width="3.266" height="1.43" transform="translate(140.766 83.293) rotate(-0.17)"/><rect class="b" width="3.266" height="1.43" transform="translate(140.758 80.494) rotate(-0.17)"/><rect class="b" width="3.266" height="1.43" transform="translate(140.755 77.695) rotate(-0.17)"/><rect class="b" width="3.266" height="1.43" transform="translate(140.741 74.895) rotate(-0.17)"/><rect class="b" width="3.266" height="1.43" transform="translate(140.733 72.096) rotate(-0.17)"/><rect class="b" width="3.266" height="1.43" transform="translate(140.73 69.297) rotate(-0.17)"/><rect class="b" width="3.266" height="1.43" transform="translate(140.716 66.497) rotate(-0.17)"/><rect class="b" width="3.266" height="1.43" transform="translate(140.708 63.698) rotate(-0.17)"/><rect class="b" width="3.266" height="1.43" transform="translate(140.699 60.899) rotate(-0.17)"/><rect class="b" width="3.266" height="1.43" transform="translate(140.691 58.093) rotate(-0.17)"/><rect class="b" width="3.266" height="1.43" transform="translate(140.689 55.294) rotate(-0.17)"/><rect class="b" width="3.266" height="1.43" transform="translate(140.675 52.495) rotate(-0.17)"/><rect class="b" width="3.266" height="1.43" transform="translate(140.666 49.695) rotate(-0.17)"/><rect class="b" width="3.266" height="1.43" transform="translate(140.664 46.896) rotate(-0.17)"/><rect class="b" width="3.266" height="1.43" transform="translate(140.65 44.097) rotate(-0.17)"/><rect class="b" width="3.266" height="1.43" transform="translate(140.641 41.297) rotate(-0.17)"/><rect class="b" width="3.266" height="1.43" transform="translate(140.633 38.498) rotate(-0.17)"/><rect class="b" width="3.266" height="1.43" transform="translate(140.625 35.699) rotate(-0.17)"/><rect class="b" width="3.266" height="1.43" transform="translate(140.622 32.9) rotate(-0.17)"/><rect class="b" width="3.266" height="1.43" transform="translate(140.608 30.1) rotate(-0.17)"/><rect class="b" width="3.266" height="1.43" transform="translate(140.6 27.301) rotate(-0.17)"/><rect class="b" width="3.266" height="1.43" transform="translate(140.597 24.502) rotate(-0.17)"/><rect class="b" width="3.266" height="1.43" transform="translate(140.583 21.702) rotate(-0.17)"/><rect class="b" width="3.266" height="1.43" transform="translate(140.575 18.897) rotate(-0.17)"/><rect class="b" width="3.266" height="1.43" transform="translate(140.566 16.098) rotate(-0.17)"/><rect class="b" width="3.266" height="1.43" transform="translate(140.558 13.298) rotate(-0.17)"/><rect class="b" width="3.266" height="1.43" transform="translate(140.556 10.499) rotate(-0.17)"/><rect class="b" width="3.266" height="1.43" transform="translate(140.541 7.7) rotate(-0.17)"/><rect class="b" width="3.266" height="1.43" transform="translate(140.533 4.9) rotate(-0.17)"/><rect class="b" width="3.266" height="1.43" transform="translate(140.531 2.101) rotate(-0.17)"/><path class="e" d="M139.7,73.64a4.653,4.653,0,0,0-3.333-1.4H47.852a4.629,4.629,0,0,0-3.327,1.4,4.781,4.781,0,0,0-1.375,3.375v61.695h97.91V77.015A4.793,4.793,0,0,0,139.7,73.64Z" transform="translate(-17.005 -28.465)"/><path class="b" d="M141.322,138.959H42V76.55a5.508,5.508,0,0,1,1.581-3.878,5.326,5.326,0,0,1,3.835-1.612h9.561v1.424H47.4A3.926,3.926,0,0,0,44.581,73.7a4.078,4.078,0,0,0-1.169,2.878v60.955H139.9V76.55a4.084,4.084,0,0,0-1.163-2.878,3.945,3.945,0,0,0-2.824-1.212h-9.58v-1.4h9.586a5.35,5.35,0,0,1,3.842,1.612,5.526,5.526,0,0,1,1.569,3.878Z" transform="translate(-16.551 -28)"/><path class="b" d="M135.917,193.333H47.4a5.344,5.344,0,0,1-3.835-1.618A5.453,5.453,0,0,1,42,187.843V180.76h99.371v7.083a5.508,5.508,0,0,1-1.563,3.872A5.393,5.393,0,0,1,135.917,193.333ZM43.412,182.19v5.653a4.054,4.054,0,0,0,1.169,2.872,3.938,3.938,0,0,0,2.818,1.212h88.519a3.987,3.987,0,0,0,2.83-1.212,4.078,4.078,0,0,0,1.157-2.872V182.19Z" transform="translate(-16.551 -71.23)"/><path class="b" d="M129.293,219.866H98.7l2.521-20.716h25.533Zm-28.981-1.418h27.369l-2.175-17.862H102.517Z" transform="translate(-38.896 -78.478)"/><rect class="b" width="8.907" height="1.43" transform="translate(70.65 115.104)"/><path class="b" d="M131.509,235.45h-1.424v-3.036H89.67v3.036H88.24v-4.46h43.269Z" transform="translate(-34.774 -91.025)"/><rect class="f" width="8.077" height="53.866" transform="translate(109.78 50.077)"/><rect class="f" width="8.077" height="53.866" transform="translate(32.344 50.077)"/><rect class="a" width="69.353" height="16.317" transform="translate(40.421 56.378)"/><path class="e" d="M82.083,107.752l-3.563-3.569,3.563-3.563,1.006,1.006-2.551,2.557,2.551,2.557Z" transform="translate(-30.943 -39.649)"/><path class="e" d="M162.836,107.752l-1.006-1.012,2.551-2.557-2.551-2.557,1.006-1.006,3.569,3.563Z" transform="translate(-63.774 -39.649)"/><rect class="c" width="69.353" height="8.162" transform="translate(40.421 23.071)"/><path class="b" d="M136.323,118.481h-1.43V38.324H66.964v80.157H65.54V36.9h70.783Z" transform="translate(-25.828 -14.538)"/><path class="b" d="M125.092,68.519H79V61h46.092ZM80.43,67.1h43.232v-4.69H80.43Z" transform="translate(-31.132 -24.035)"/><path class="b" d="M162.514,68.519h-9.8V61h9.8ZM154.14,67.1h6.944v-4.69H154.14Z" transform="translate(-60.18 -24.035)"/><rect class="b" width="8.374" height="1.43" transform="translate(48.583 49.362)"/><rect class="b" width="8.374" height="1.43" transform="translate(59.75 49.362)"/><rect class="b" width="8.374" height="1.43" transform="translate(70.917 49.362)"/><rect class="b" width="8.374" height="1.43" transform="translate(82.078 49.362)"/><rect class="b" width="8.374" height="1.43" transform="translate(93.245 49.362)"/><rect class="b" width="1.43" height="1.43" transform="translate(48.583 26.44)"/><rect class="b" width="1.43" height="1.43" transform="translate(51.436 26.44)"/><rect class="b" width="1.43" height="1.43" transform="translate(54.296 26.44)"/><rect class="d" width="10.9" height="10.9" transform="translate(48.583 78.997)"/><rect class="a" width="10.9" height="10.9" transform="translate(62.628 78.997)"/><rect class="c" width="10.9" height="10.9" transform="translate(76.673 78.997)"/><rect class="a" width="10.9" height="10.9" transform="translate(48.583 93.043)"/><rect class="d" width="10.9" height="10.9" transform="translate(76.673 93.043)"/><rect class="d" width="10.9" height="10.9" transform="translate(90.718 93.043)"/><rect class="b" width="1.43" height="1.43" transform="translate(90.718 88.468)"/><path class="b" d="M151.15,140.2h-1.43V138.6h1.43Zm0-3.217h-1.43V135.38h1.43Z" transform="translate(-59.002 -53.347)"/><rect class="b" width="1.43" height="1.43" transform="translate(90.718 78.997)"/><path class="b" d="M159.563,131.794h-1.606V130.37h1.606Zm-3.217,0H154.74V130.37h1.606Z" transform="translate(-60.98 -51.373)"/><rect class="b" width="1.43" height="1.43" transform="translate(100.189 78.997)"/><path class="b" d="M166.78,140.2h-1.43V138.6h1.43Zm0-3.217h-1.43V135.38h1.43Z" transform="translate(-65.161 -53.347)"/><rect class="b" width="1.43" height="1.43" transform="translate(100.189 88.468)"/><path class="b" d="M159.563,147.43h-1.606V146h1.606Zm-3.217,0H154.74V146h1.606Z" transform="translate(-60.98 -57.532)"/><path class="b" d="M114.257,164.447H103.35V153.54h10.907Zm-9.47-1.43h8.047v-8.041h-8.047Z" transform="translate(-40.728 -60.503)"/><rect class="b" width="13.397" height="1.43" transform="translate(62.834 102.719) rotate(-45)"/><rect class="b" width="1.43" height="13.397" transform="translate(62.838 94.263) rotate(-45)"/><path class="g" d="M0,11.173A9.876,9.876,0,0,1,15.3,2.945a9.858,9.858,0,0,0-4.441,8.24,9.331,9.331,0,0,0,.194,1.945A9.925,9.925,0,0,0,5.6,20.1,9.883,9.883,0,0,1,0,11.173Z" transform="translate(0 -0.518)"/><path class="a" d="M25.25,2.981a9.87,9.87,0,1,1,9.695,17.16,9.889,9.889,0,0,0-5.453-6.974,9.755,9.755,0,0,0,.194-1.945A9.858,9.858,0,0,0,25.25,2.981Z" transform="translate(-9.951 -0.554)"/><path class="c" d="M9,33.808a10.228,10.228,0,0,1,.188-1.945,9.992,9.992,0,0,0,4.241.957,9.81,9.81,0,0,0,5.453-1.63,9.755,9.755,0,0,0,5.453,1.63,9.867,9.867,0,0,0,4.243-.958,9.761,9.761,0,0,1,.186,1.946A9.883,9.883,0,0,1,9,33.808Z" transform="translate(-3.547 -12.288)"/><path class="b" d="M23.851,22.256a10.488,10.488,0,0,1-5.453-1.5,10.6,10.6,0,0,1-9.986.479l-.473-.224.109-.545a10.676,10.676,0,0,1,5.338-7.229,9.938,9.938,0,0,1-.115-1.551,10.567,10.567,0,0,1,4.763-8.852l.394-.261.394.261a10.561,10.561,0,0,1,4.756,8.834,10.748,10.748,0,0,1-.109,1.551,10.676,10.676,0,0,1,5.338,7.229l.109.545-.509.242A10.585,10.585,0,0,1,23.851,22.256Zm-4.126-2.424a9.155,9.155,0,0,0,7.55.327,9.271,9.271,0,0,0-4.151-5.484,10.658,10.658,0,0,1-3.4,5.162ZM9.576,20.16a9.168,9.168,0,0,0,7.556-.327,10.616,10.616,0,0,1-3.423-5.162,9.283,9.283,0,0,0-4.132,5.5Zm5.453-6.138a9.168,9.168,0,0,0,3.417,5.011,9.186,9.186,0,0,0,3.417-5.011,9.192,9.192,0,0,0-6.853.006Zm3.4-2.1a10.577,10.577,0,0,1,3.677.66,9.331,9.331,0,0,0,.05-.933A9.149,9.149,0,0,0,18.428,4.3,9.131,9.131,0,0,0,14.7,11.665a6.916,6.916,0,0,0,.042.933A10.591,10.591,0,0,1,18.428,11.919Z" transform="translate(-3.129 -1.009)"/><rect class="b" width="1.43" height="8.144" transform="translate(14.584 58.426)"/><rect class="b" width="4.072" height="1.43" transform="translate(13.264 65.855)"/><path class="b" d="M26.917,97.991H25.494V96.67H18.78v1.321H17.35V95.24h9.567Z" transform="translate(-6.837 -37.529)"/><path class="b" d="M35.987,93.287h-1.43v-1.1h-1.1V90.76h2.527Z" transform="translate(-13.186 -35.763)"/><path class="b" d="M14.3,93.287H12.87V90.76H15.4v1.43H14.3Z" transform="translate(-5.072 -35.763)"/><path class="b" d="M35.987,113.881H33.46v-1.43h1.1V111.36h1.43Z" transform="translate(-13.186 -43.881)"/><path class="b" d="M15.4,113.881H12.87V111.36H14.3v1.091h1.1Z" transform="translate(-5.072 -43.881)"/></g></g></svg>