<svg xmlns="http://www.w3.org/2000/svg" viewBox="0 0 195.3 199.13"><defs><style>.a{fill:#afafaf;}.b{fill:#e4851c;}.c{fill:#41464b;}.d{fill:#1cace4;}.e{fill:#fff;}.f{fill:#fed65c;}</style></defs><path class="a" d="M37.85,145.91V13.97H25.06V158.71H129.64v-12.8Z"/><rect class="b" width="5.04" height="5.04" transform="translate(31.6 167.72)"/><path class="b" d="M37.83,174H30.41v-7.43h7.42Zm-5-2.39h2.65v-2.65H32.8Z"/><path class="c" d="M47.91,174H40.49v-7.43h7.42Zm-5-2.39h2.65v-2.65H42.87Z"/><path class="c" d="M58,174H50.56v-7.43H58Zm-5-2.39h2.6v-2.65H52.94Z"/><path class="c" d="M68.06,174H60.63v-7.43h7.43Zm-5-2.39h2.65v-2.65H63Z"/><path class="c" d="M78.13,174H70.71v-7.43h7.42Zm-5-2.39h2.65v-2.65H73.09Z"/><path class="c" d="M88.2,174H80.78v-7.43H88.2Zm-5-2.39h2.65v-2.65H83.17Z"/><path class="c" d="M98.28,174H90.86v-7.43h7.42Zm-5-2.39h2.65v-2.65H93.24Z"/><path class="c" d="M108.35,174h-7.42v-7.43h7.42Zm-5-2.39H106v-2.65h-2.66Z"/><path class="c" d="M118.43,174H111v-7.43h7.43Zm-5-2.39H116v-2.65h-2.65Z"/><path class="c" d="M128.5,174h-7.42v-7.43h7.42Zm-5-2.39h2.65v-2.65H123.5Z"/><path class="c" d="M138.57,174h-7.42v-7.43h7.42Zm-5-2.39h2.65v-2.65h-2.65Z"/><path class="c" d="M37.83,184H30.41v-7.4h7.42Zm-5-2.38h2.65V179H32.8Z"/><path class="c" d="M47.91,184H40.49v-7.4h7.42Zm-5-2.38h2.65V179H42.87Z"/><path class="c" d="M58,184H50.56v-7.4H58Zm-5-2.38h2.6V179H52.94Z"/><path class="c" d="M68.06,184H60.63v-7.4h7.43Zm-5-2.38h2.65V179H63Z"/><path class="c" d="M78.13,184H70.71v-7.4h7.42Zm-5-2.38h2.65V179H73.09Z"/><path class="c" d="M88.2,184H80.78v-7.4H88.2Zm-5-2.38h2.65V179H83.17Z"/><path class="c" d="M98.28,184H90.86v-7.4h7.42Zm-5-2.38h2.65V179H93.24Z"/><path class="c" d="M108.35,184h-7.42v-7.4h7.42Zm-5-2.38H106V179h-2.66Z"/><path class="c" d="M118.43,184H111v-7.4h7.43Zm-5-2.38H116V179h-2.65Z"/><path class="c" d="M138.57,184H121.08v-7.4h17.49Zm-15.11-2.38h12.73V179H123.46Z"/><path class="c" d="M47.91,194.09H40.49v-7.42h7.42Zm-5-2.38h2.65v-2.65H42.87Z"/><path class="c" d="M118.43,194.09H111v-7.42h7.43Zm-5-2.38H116v-2.65h-2.65Z"/><path class="c" d="M128.5,194.09h-7.42v-7.42h7.42Zm-5-2.38h2.65v-2.65H123.5Z"/><rect class="d" width="55.41" height="5.04" transform="translate(51.75 187.86)"/><path class="d" d="M108.35,194.09H50.56v-7.42h57.79Zm-55.41-2.38h53v-2.65h-53Z"/><path class="c" d="M143.61,199.13H25.37V161.49H143.61ZM27.76,196.75H141.23V163.87H27.76Z"/><path class="c" d="M181.17,179H168.84a7.34,7.34,0,0,1-7.34-7.34V140.8a7.35,7.35,0,0,1,7.34-7.35h12.33a7.36,7.36,0,0,1,7.35,7.35v30.83a7.35,7.35,0,0,1-7.35,7.37Zm-12.33-43.16a5,5,0,0,0-5,5v30.83a5,5,0,0,0,5,5h12.33a5,5,0,0,0,5-5V140.8a5,5,0,0,0-5-5Z"/><rect class="c" width="24.67" height="2.36" transform="translate(162.67 145.78)"/><rect class="c" width="2.36" height="2.36" transform="translate(173.83 139.62)"/><path class="c" d="M176.18,134.63h-2.35v-3.08a1.91,1.91,0,0,0-1.9-1.91h-6.17a4.26,4.26,0,0,1,0-8.52h18.5a1.91,1.91,0,0,0,1.9-1.91v-3.08h2.36v3.08a4.285,4.285,0,0,1-4.25,4.26h-18.5a1.93,1.93,0,0,0-1.35.55,1.9,1.9,0,0,0,1.35,3.25h6.17a4.27,4.27,0,0,1,4.25,4.27Z"/><path class="c" d="M143.61,147.09H36.67V12.79H143.61ZM39,144.73H141.25V15.15H39Z"/><rect class="b" width="84.38" height="30.3" transform="translate(47.95 24.07)"/><rect class="e" width="2.36" height="2.36" transform="translate(52.49 47.47)"/><path class="e" d="M54.85,45.11H52.49V42.76h2.36Zm0-4.71H52.49V38h2.36Zm0-4.71H52.49V33.33h2.36Z"/><rect class="e" width="2.36" height="2.36" transform="translate(52.49 28.62)"/><path class="e" d="M69,31H66.63V28.62H69Zm-4.71,0H61.92V28.62h2.36Zm-4.72,0H57.21V28.62h2.35Z"/><rect class="e" width="2.36" height="2.36" transform="translate(71.35 28.62)"/><path class="e" d="M73.7,45.11H71.35V42.76H73.7Zm0-4.71H71.35V38H73.7Zm0-4.71H71.35V33.33H73.7Z"/><rect class="e" width="2.36" height="2.36" transform="translate(71.35 47.47)"/><path class="e" d="M69,49.83H66.63V47.47H69Zm-4.71,0H61.92V47.47h2.36Zm-4.72,0H57.21V47.47h2.35Z"/><rect class="d" width="29.46" height="75.59" transform="translate(47.95 61.17)"/><path class="c" d="M143.61,15.15H36.67V0H143.61ZM39,12.79H141.25V2.36H39Z"/><rect class="c" width="19.69" height="2.36" transform="translate(52.83 102.36)"/><rect class="c" width="19.69" height="2.36" transform="translate(52.83 106.94)"/><rect class="c" width="19.69" height="2.36" transform="translate(52.83 111.52)"/><rect class="c" width="19.69" height="2.36" transform="translate(52.83 116.09)"/><rect class="c" width="19.69" height="2.36" transform="translate(52.83 120.67)"/><rect class="c" width="19.69" height="2.36" transform="translate(52.83 125.25)"/><rect class="c" width="19.69" height="2.36" transform="translate(52.83 129.82)"/><rect class="c" width="19.69" height="2.36" transform="translate(52.83 97.79)"/><rect class="c" width="19.69" height="2.36" transform="translate(52.83 93.21)"/><rect class="c" width="19.69" height="2.36" transform="translate(52.83 88.63)"/><rect class="c" width="19.69" height="2.36" transform="translate(52.83 84.05)"/><rect class="c" width="19.69" height="2.36" transform="translate(52.83 79.48)"/><rect class="c" width="19.69" height="2.36" transform="translate(52.83 74.9)"/><rect class="c" width="19.69" height="2.36" transform="translate(52.83 70.32)"/><rect class="c" width="19.69" height="2.36" transform="translate(52.83 65.74)"/><rect class="c" width="48.36" height="2.36" transform="translate(78.25 37.77)"/><rect class="c" width="48.36" height="2.36" transform="translate(78.25 33.19)"/><rect class="c" width="24.18" height="2.36" transform="translate(78.25 28.62)"/><rect class="a" width="20.67" height="20.67" transform="translate(84.2 61.17)"/><rect class="f" width="20.67" height="20.67" transform="translate(84.2 88.63)"/><rect class="f" width="20.67" height="20.67" transform="translate(84.2 116.09)"/><rect class="f" width="20.67" height="20.67" transform="translate(111.67 61.17)"/><rect class="a" width="20.67" height="20.67" transform="translate(111.67 88.63)"/><rect class="f" width="20.67" height="20.67" transform="translate(111.67 116.09)"/><rect class="c" width="2.36" height="2.36" transform="translate(57.37 6.4)"/><rect class="c" width="70.24" height="2.36" transform="translate(62.09 6.4)"/><rect class="c" width="2.36" height="2.36" transform="translate(52.66 6.4)"/><rect class="c" width="2.36" height="2.36" transform="translate(47.95 6.4)"/><rect class="b" width="9.43" height="31.7" transform="translate(169.21 53.78)"/><path class="c" d="M173.92,47.5A21.38,21.38,0,1,1,195.3,26.12,21.38,21.38,0,0,1,173.92,47.5Zm0-40.4a19,19,0,1,0,19,19,19,19,0,0,0-19-19Z"/><rect class="c" width="2.36" height="7.46" transform="translate(172.74 46.32)"/><rect class="c" width="12.79" height="2.36" transform="translate(167.52 52.6)"/><rect class="c" width="12.79" height="2.36" transform="translate(167.52 56.95)"/><path class="d" d="M189.07,26.12A15.15,15.15,0,1,1,173.92,11a15.15,15.15,0,0,1,15.15,15.12Z"/><path class="c" d="M168.23,31.59l-5.47-5.47,5.47-5.46,1.66,1.66-3.79,3.8,3.8,3.8Z"/><path class="c" d="M179.61,31.59l-1.66-1.67,3.8-3.8-3.8-3.8,1.66-1.66,5.47,5.46Z"/><rect class="c" width="15.52" height="2.36" transform="translate(170.686 33.269) rotate(-74.16)"/><rect class="d" width="9.43" height="82.74" transform="translate(5.89 32.84)"/><path class="c" d="M15.32,111.52H0V74.21H2.36v34.96H15.32Z"/><path class="c" d="M15.32,34H5.89V30L10.6,17.93,15.32,30ZM8.25,31.66H13V30.44l-2.36-6-2.35,6Z"/><rect class="c" width="9.43" height="2.36" transform="translate(5.89 36.9)"/><rect class="c" width="2.36" height="3.9" transform="translate(9.43 17.27)"/><path class="c" d="M13.62,122H7.59v-6.42H9.95v4.06h1.31v-4.06h2.36Z"/><rect class="c" width="9.43" height="2.36" transform="translate(5.89 114.4)"/><rect class="c" width="9.43" height="2.36" transform="translate(5.89 73.03)"/></svg>