<svg xmlns="http://www.w3.org/2000/svg" viewBox="0 0 216.96 248.06"><defs><style>.cls-1{fill:#1cace4;}.cls-2{fill:#41464b;}.cls-3{fill:#afafaf;}.cls-4{fill:#fed65c;}.cls-5{fill:#fff;}</style></defs><title>discovery2</title><g id="Layer_2" data-name="Layer 2"><g id="Layer_1-2" data-name="Layer 1"><path class="cls-1" d="M9,79.07l.32,0a9.83,9.83,0,0,1-.64-3.49,9.69,9.69,0,0,1,9.7-9.7,9.53,9.53,0,0,1,4.12.93A16.61,16.61,0,0,1,55,71.64c0,.16,0,.32,0,.48h0A9.69,9.69,0,1,1,55,91.5H9A6.22,6.22,0,0,1,9,79.07Z"/><path class="cls-2" d="M136.06,44.07l-4.61,3.2-3.95-3.79a20.59,20.59,0,0,1-2.5.9l-.63,5.44-5.59.47L117.26,45a17.62,17.62,0,0,1-2.61-.47L111.38,49l-5.08-2.39,1.32-5.32a21.08,21.08,0,0,1-2-1.71l-5,2.17L97.36,37.1l3.8-3.94a18.28,18.28,0,0,1-.9-2.51L94.82,30l-.47-5.6,5.26-1.52a19.32,19.32,0,0,1,.48-2.61L95.68,17,98.08,12l5.31,1.31a19.51,19.51,0,0,1,1.72-2l-2.18-5L107.54,3l3.95,3.8a21.06,21.06,0,0,1,2.49-.9l.64-5.43L120.21,0l1.52,5.27a21,21,0,0,1,2.61.47l3.27-4.41,5.07,2.4L131.37,9a22.22,22.22,0,0,1,2,1.72l5-2.18,3.2,4.62-3.79,3.94a21.22,21.22,0,0,1,.9,2.5l5.43.63.48,5.58-5.27,1.53A21,21,0,0,1,138.9,30l4.4,3.26-2.39,5.08L135.59,37a19.73,19.73,0,0,1-1.71,2Zm-4.36,0L133,43.2,131,38.47l.63-.59A18,18,0,0,0,134.06,35l.48-.71,5,1.23.68-1.44L136.08,31l.24-.82a17.34,17.34,0,0,0,.68-3.78l.06-.85,5-1.44-.14-1.59-5.13-.59-.2-.83a17.6,17.6,0,0,0-1.29-3.61l-.38-.77L138.46,13l-.91-1.32-4.73,2.06-.59-.63a18,18,0,0,0-2.94-2.48l-.71-.48,1.24-5-1.44-.68L125.3,8.56l-.82-.24a18,18,0,0,0-3.78-.68l-.86-.06-1.43-5-1.59.14-.6,5.13-.83.2a17.46,17.46,0,0,0-3.61,1.3l-.77.38-3.72-3.58L106,7.09l2,4.73-.62.59a18,18,0,0,0-2.48,2.94l-.48.71-5-1.24-.68,1.44,4.15,3.08-.25.82a18.19,18.19,0,0,0-.68,3.78l-.06.86-5,1.43.13,1.59,5.13.58.2.84a17.5,17.5,0,0,0,1.3,3.62l.38.78-3.58,3.71.91,1.31,4.74-2,.59.63a17.25,17.25,0,0,0,2.94,2.47l.71.48-1.24,5,1.44.68,3.08-4.15.82.24a16.68,16.68,0,0,0,3.77.68l.86.06,1.44,5,1.59-.14.58-5.12.83-.21a16.56,16.56,0,0,0,3.62-1.3l.77-.38Z"/><path class="cls-1" d="M127.08,36.07a13.31,13.31,0,1,1,3.35-18.52A13.28,13.28,0,0,1,127.08,36.07Z"/><path class="cls-2" d="M124,31.59l0,0a8,8,0,0,1-2.48,1.15l-.63-2.37a5.54,5.54,0,0,0,1.71-.79ZM126,29.66l-2-1.41a5.41,5.41,0,0,0,.8-1.7l2.37.63A7.82,7.82,0,0,1,126,29.66ZM118.78,33a7.78,7.78,0,0,1-2.64-.71l1-2.22a5.53,5.53,0,0,0,1.82.49Zm8.57-8.53-2.45.21a5.22,5.22,0,0,0-.48-1.82l2.22-1A7.9,7.9,0,0,1,127.35,24.46ZM113.91,30.7a7.83,7.83,0,0,1-1.57-2.24l2.23-1a5.12,5.12,0,0,0,.47.82,4.72,4.72,0,0,0,.61.73Zm9.42-9.4a5.22,5.22,0,0,0-1.54-1.08l1-2.22a7.81,7.81,0,0,1,2.24,1.57Zm-9.25,4.31-2.44.2a7.81,7.81,0,0,1,.24-2.72l2.37.64A5.65,5.65,0,0,0,114.08,25.61ZM120,19.74a5.13,5.13,0,0,0-1.87.16l-.64-2.37a7.85,7.85,0,0,1,2.73-.24ZM115.05,22l-2-1.41A7.86,7.86,0,0,1,115,18.68l1.41,2A5.26,5.26,0,0,0,115.05,22Z"/><path class="cls-2" d="M187.87,60.19l-3.75,2.61-2.89-2a10.77,10.77,0,0,1-1.79.39l-1.81,3-4.49-.8L172.49,60A11.86,11.86,0,0,1,171,59l-3.39.84L165,56.06l2-2.89a13.25,13.25,0,0,1-.39-1.79l-3-1.81.81-4.49,3.44-.65a10.07,10.07,0,0,1,1-1.54l-.84-3.39,3.75-2.61,2.88,2a11.11,11.11,0,0,1,1.8-.39l1.8-3,4.49.81.65,3.43a11.33,11.33,0,0,1,1.55,1l3.39-.84,2.61,3.76-2,2.88a14,14,0,0,1,.39,1.79l3,1.81-.81,4.49-3.44.65a11.33,11.33,0,0,1-1,1.55Zm-3.76-.37,1-.68-.73-3,.4-.48a9.31,9.31,0,0,0,1.33-2.06l.26-.57,3-.57.22-1.17L187,49.76l0-.62a9.35,9.35,0,0,0-.52-2.4l-.21-.59,1.71-2.51-.68-1-2.95.73-.48-.41a9.11,9.11,0,0,0-2.07-1.32l-.56-.27-.57-3-1.17-.21-1.58,2.61-.63.05a8.75,8.75,0,0,0-2.39.52l-.59.21-2.51-1.71-1,.68.73,3-.4.48A9.18,9.18,0,0,0,169.72,46l-.26.57-3,.57-.21,1.17,2.61,1.57,0,.63a8.8,8.8,0,0,0,.52,2.39l.21.6-1.71,2.51.68,1,2.95-.73.48.41A8.92,8.92,0,0,0,174.1,58l.57.27.57,3,1.17.21,1.57-2.6.63,0a9.35,9.35,0,0,0,2.4-.52l.59-.22Z"/><path class="cls-1" d="M181.1,54.44a5.6,5.6,0,1,1,1.4-7.79A5.6,5.6,0,0,1,181.1,54.44Z"/><path class="cls-2" d="M202.2,173a9.69,9.69,0,0,1-2.63-.77l1-2.23a7.36,7.36,0,0,0,2,.57Zm2.74,0-.35-2.42a7,7,0,0,0,2-.58l1,2.23A9.59,9.59,0,0,1,204.94,173Zm-7.67-2.24a9.61,9.61,0,0,1-1.8-2.07l2.06-1.33a6.81,6.81,0,0,0,1.34,1.54Zm12.6,0-1.6-1.86a7.89,7.89,0,0,0,1.34-1.54l2.06,1.33A9.85,9.85,0,0,1,209.87,170.72Zm-15.55-4.55a9.92,9.92,0,0,1-.39-2.71h2.45a7,7,0,0,0,.3,2Zm18.49,0-2.36-.69a7.2,7.2,0,0,0,.29-2l2.45,0v0A9.85,9.85,0,0,1,212.81,166.15Zm-16.14-4.72-2.36-.68a9.73,9.73,0,0,1,1.14-2.5l2.06,1.32A7.24,7.24,0,0,0,196.67,161.43Zm13.78,0a7.42,7.42,0,0,0-.86-1.85l2.06-1.34a9.52,9.52,0,0,1,1.14,2.49ZM198.85,158l-1.61-1.85a9.17,9.17,0,0,1,2.3-1.49l1,2.22A6.92,6.92,0,0,0,198.85,158Zm9.39,0a7.09,7.09,0,0,0-1.72-1.1l1-2.24a9.48,9.48,0,0,1,2.31,1.48Zm-5.72-1.66-.36-2.43a9.29,9.29,0,0,1,1.39-.1h0a9.94,9.94,0,0,1,1.34.09l-.34,2.43a8.86,8.86,0,0,0-1-.07A7.17,7.17,0,0,0,202.52,156.34Z"/><path class="cls-2" d="M173.45,19.12l-1.4-2a3.64,3.64,0,0,0,1.22-1.45l2.22,1A6.06,6.06,0,0,1,173.45,19.12Zm-3,1.09a6.18,6.18,0,0,1-3.11-.55l1-2.23a3.55,3.55,0,0,0,1.87.33Zm5.58-6.63-2.44.21A3.74,3.74,0,0,0,173,12l2-1.44,0,0A6.13,6.13,0,0,1,176.05,13.58Zm-9.11,2.64-2,1.4a6.13,6.13,0,0,1-1.08-3l2.44-.22a3.66,3.66,0,0,0,.62,1.74Zm4.53-5.46a3.66,3.66,0,0,0-1.88-.32L169.37,8a6.09,6.09,0,0,1,3.12.53Zm-4.87,1.8-2.23-1a6.13,6.13,0,0,1,2-2.43l1.42,2A3.67,3.67,0,0,0,166.6,12.56Z"/><rect class="cls-2" x="181.32" y="86.08" width="2.45" height="4.43" transform="translate(63.27 252.28) rotate(-79.78)"/><rect class="cls-2" x="172.03" y="84.41" width="2.45" height="4.42" transform="translate(57.63 242.04) rotate(-79.91)"/><rect class="cls-2" x="176.53" y="81.59" width="4.42" height="2.45" transform="translate(65.15 243.76) rotate(-79.65)"/><rect class="cls-2" x="174.85" y="90.88" width="4.43" height="2.45" transform="translate(55.01 250.02) rotate(-79.78)"/><circle class="cls-3" cx="211.67" cy="97.43" r="2.8"/><path class="cls-2" d="M.63,219.49A6.32,6.32,0,0,1,0,216.66v-.1l2.45,0a4,4,0,0,0,.38,1.82Zm2.18-4.94-2.34-.72a15.72,15.72,0,0,1,1-2.45l2.18,1.11A14.09,14.09,0,0,0,2.81,214.55Zm2-4.07-2.07-1.33c.44-.67.93-1.37,1.46-2.08l2,1.47C5.68,209.21,5.23,209.86,4.83,210.48Zm2.84-3.8L5.79,205.1c.52-.61,1.07-1.25,1.65-1.88l1.81,1.65C8.69,205.48,8.16,206.09,7.67,206.68Zm3.24-3.56-1.76-1.71c.56-.58,1.15-1.17,1.76-1.76l1.71,1.76C12,202,11.45,202.56,10.91,203.12Zm22.53-18.53-1.42-2,2-1.42,1.41,2C34.76,183.65,34.09,184.12,33.44,184.59Zm4-2.8-1.38-2,2-1.38,1.37,2Zm4.06-2.73-1.36-2,2-1.36,1.35,2.06Zm4.08-2.68-1.32-2.06L46.33,173l1.31,2.06Zm4.13-2.62-1.31-2.08,2.09-1.3,1.29,2.08Zm4.15-2.58-1.28-2.09,2.1-1.28L56,169.9Zm4.19-2.54-1.26-2.1,2.11-1.26,1.25,2.11Zm4.21-2.49L61,164l2.13-1.24,1.22,2.13C63.66,165.33,63,165.74,62.26,166.15Zm4.23-2.44-1.21-2.13,2.13-1.22,1.21,2.14Zm4.26-2.41-1.19-2.14L71.7,158l1.19,2.15C72.17,160.5,71.46,160.9,70.75,161.3ZM75,158.93l-1.17-2.16L76,155.6l1.17,2.15Zm4.31-2.34-1.16-2.16,2.17-1.15,1.14,2.16Zm4.32-2.29-1.14-2.17L84.69,151l1.14,2.17ZM88,152l-1.12-2.18c.72-.38,1.45-.75,2.18-1.12l1.12,2.18C89.45,151.29,88.72,151.66,88,152Zm4.36-2.23-1.11-2.18,2.2-1.11,1.1,2.2Zm4.37-2.18-1.09-2.2,2-1,.21-.1,1.09,2.19-.22.11Zm4.4-2.16-1.07-2.2,2.21-1.07,1.06,2.21Zm4.41-2.11-1.05-2.22,2.22-1,1,2.22Zm4.43-2.09-1-2.22,2.23-1,1,2.23Zm4.44-2-1-2.23,2.24-1,1,2.24Zm4.46-2-1-2.24,2.25-1,1,2.24Zm4.48-2-1-2.25,2.25-1,1,2.25Zm4.5-1.93-1-2.26,2.27-.95,1,2.26Zm4.51-1.89-.93-2.26,2.27-.94.93,2.27Zm4.54-1.84-.92-2.28,2.29-.91.9,2.28Zm4.54-1.81-.89-2.28,2.3-.89.88,2.29ZM146,126l-.87-2.29,2.31-.86.85,2.3Zm4.58-1.7-.84-2.3,2.32-.84.82,2.31Zm4.61-1.65-.81-2.31,2.32-.81.8,2.32Zm4.62-1.58-.78-2.33,2.34-.77.76,2.33C161.37,120.58,160.6,120.83,159.82,121.1Zm4.64-1.53-.74-2.33c.79-.26,1.57-.5,2.34-.74l.73,2.34Zm4.67-1.45-.71-2.35,2.36-.7.69,2.35Zm4.68-1.37-.66-2.36,2.37-.66.64,2.37Zm4.71-1.28-.62-2.37,2.39-.61.59,2.38Zm4.73-1.17-.55-2.39,2.4-.54.53,2.39Zm30-.69a6.21,6.21,0,0,0-1.74-1.07l1-2.25a8.62,8.62,0,0,1,2.42,1.49ZM188,113.26l-.49-2.4,2.43-.47.45,2.41Zm4.78-.87-.4-2.42c.84-.14,1.66-.26,2.46-.37l.33,2.43Zm16.6-.5a17.88,17.88,0,0,0-2.28-.36l.25-2.44a22.22,22.22,0,0,1,2.56.4Zm-11.81-.15-.26-2.44c.85-.09,1.68-.17,2.48-.23l.18,2.45C199.21,111.57,198.41,111.65,197.58,111.74Zm4.8-.35-.08-2.45c.88,0,1.72,0,2.52,0l-.06,2.45C204,111.36,203.21,111.36,202.38,111.39Z"/><path class="cls-2" d="M212,203.62l-2.29-.87c1.71-4.5-7-13.29-23.4-23.51-17.34-10.83-41.51-22.36-68.05-32.46s-52.26-17.56-72.41-21c-19-3.25-31.4-2.5-33.11,2l-2.29-.88c2.85-7.49,21-6.06,35.81-3.54,20.31,3.46,46.19,11,72.87,21.12s51,21.76,68.48,32.67C200.3,185.09,214.85,196.12,212,203.62Z"/><path class="cls-2" d="M127.91,211.73h-2.45v-8.06a49.63,49.63,0,0,1,16.18-36.59l1.79-1.56a60.76,60.76,0,1,0-81.91,0l1.75,1.51a49.65,49.65,0,0,1,16.2,36.61v8.06H77v-8.06a47.19,47.19,0,0,0-15.38-34.78l-1.75-1.51a63.21,63.21,0,1,1,85.17,0l-1.8,1.56a47.16,47.16,0,0,0-15.35,34.75Z"/><rect class="cls-1" x="76.25" y="209.73" width="52.44" height="29.68" rx="4"/><rect class="cls-2" x="73.73" y="210.5" width="57.47" height="2.45"/><rect class="cls-2" x="73.73" y="215.55" width="57.47" height="2.45"/><rect class="cls-2" x="73.73" y="220.61" width="57.47" height="2.45"/><path class="cls-2" d="M107.85,248.06H97.08a5.94,5.94,0,0,1-5.94-5.94v-5.94h22.65v5.94a5.94,5.94,0,0,1-5.94,5.94Zm-14.26-9.43v3.49a3.47,3.47,0,0,0,1,2.47,3.51,3.51,0,0,0,2.47,1h10.77a3.5,3.5,0,0,0,3.49-3.49v-3.49Z"/><path class="cls-4" d="M56,120.67a46.46,46.46,0,1,0,46.45-46.46A46.45,46.45,0,0,0,56,120.67Z"/><path class="cls-2" d="M105.9,153.87H99l-1.44-7.16a26,26,0,0,1-3.95-1.06l-4.82,5.49-5.94-3.43,2.34-6.93a25.27,25.27,0,0,1-2.88-2.88l-6.93,2.34-3.43-6,5.49-4.81a26.16,26.16,0,0,1-1.06-3.94l-7.16-1.45v-6.86l7.16-1.42a25.77,25.77,0,0,1,1.06-4L72,107l3.43-5.94,6.93,2.34a25.27,25.27,0,0,1,2.88-2.88l-2.34-6.93,5.94-3.43,4.83,5.49a26.07,26.07,0,0,1,3.94-1.06L99,87.46h6.87l1.43,7.16a28,28,0,0,1,3.94,1l4.83-5.47L122,93.62l-2.34,6.93a27.1,27.1,0,0,1,2.89,2.88l6.93-2.35,3.41,6-5.47,4.83a27.26,27.26,0,0,1,1,3.94l7.16,1.44v6.85l-7.16,1.45a27.48,27.48,0,0,1-1,3.93l5.47,4.82-3.41,6-6.94-2.35a26.11,26.11,0,0,1-2.88,2.88l2.34,6.93-5.94,3.43-4.83-5.48a27,27,0,0,1-3.94,1.05Zm-4.85-2.45h2.84l1.37-6.87.85-.12a23.77,23.77,0,0,0,5.08-1.36l.8-.31,4.63,5.25,2.46-1.42L116.83,140l.67-.54a24.23,24.23,0,0,0,3.72-3.72l.54-.67,6.64,2.25,1.41-2.47-5.24-4.63.3-.79a24.08,24.08,0,0,0,1.36-5.07l.13-.85,6.86-1.38v-2.84l-6.86-1.38-.13-.85a24.25,24.25,0,0,0-1.36-5.09l-.31-.79,5.25-4.62-1.41-2.47-6.64,2.25-.54-.67a24.23,24.23,0,0,0-3.72-3.72l-.66-.54,2.24-6.63-2.46-1.42L112,98.56l-.79-.3a23.73,23.73,0,0,0-5.08-1.36l-.85-.12-1.37-6.87H101l-1.38,6.87-.85.12a24.08,24.08,0,0,0-5.07,1.36l-.8.31-4.62-5.25-2.47,1.42,2.25,6.63-.67.54a23.37,23.37,0,0,0-3.72,3.72l-.54.67-6.63-2.25-1.42,2.47,5.25,4.61-.31.8A23.54,23.54,0,0,0,78.7,117l-.13.86-6.86,1.37v2.84l6.86,1.38.13.85a23.38,23.38,0,0,0,1.36,5.07l.31.8-5.25,4.62,1.42,2.47L83.18,135l.53.67a23.37,23.37,0,0,0,3.72,3.72l.67.53-2.25,6.64L88.32,148l4.62-5.25.79.31a23.39,23.39,0,0,0,5.09,1.35l.85.13Z"/><path class="cls-5" d="M102.47,138.5a17.84,17.84,0,1,1,17.84-17.84A17.82,17.82,0,0,1,102.47,138.5Z"/><path class="cls-2" d="M102.51,130.3h0a9.91,9.91,0,0,1-2.71-.38l.69-2.36a7.2,7.2,0,0,0,2,.29Zm2.72-.4-.7-2.35a7.05,7.05,0,0,0,1.85-.85l1.34,2A9.23,9.23,0,0,1,105.23,129.9Zm-8-1.12A9.84,9.84,0,0,1,95.19,127L97,125.38a7.09,7.09,0,0,0,1.55,1.34ZM109.78,127l-1.85-1.6a7.74,7.74,0,0,0,1.1-1.72l2.23,1A9.87,9.87,0,0,1,109.78,127ZM93.7,124.68a9.66,9.66,0,0,1-.77-2.64l2.43-.34a7,7,0,0,0,.57,2ZM112,122l-2.43-.34a6.54,6.54,0,0,0,.07-1,7.41,7.41,0,0,0-.07-1l2.42-.35a9.32,9.32,0,0,1,.1,1.4A9.94,9.94,0,0,1,112,122Zm-16.67-2.35-2.42-.35a9.24,9.24,0,0,1,.76-2.63l2.23,1A7.54,7.54,0,0,0,95.35,119.65Zm13.66-2a7,7,0,0,0-1.12-1.72l1.85-1.61a9.35,9.35,0,0,1,1.49,2.3ZM97,116l-1.86-1.6a9.61,9.61,0,0,1,2.07-1.8l1.33,2.06A7.27,7.27,0,0,0,97,116Zm9.31-1.36a7.09,7.09,0,0,0-1.86-.84l.68-2.36a9.43,9.43,0,0,1,2.5,1.14Zm-5.91-.83-.69-2.36a9.5,9.5,0,0,1,2.71-.39v2.45A6.93,6.93,0,0,0,100.43,113.77Z"/><path class="cls-2" d="M174.15,206.81c-20-3.62-45.17-11-70.84-20.76-26.69-10.16-51-21.76-68.48-32.67-12.7-7.93-27.24-19-24.39-26.47l2.29.87c-1.71,4.51,7,13.3,23.4,23.52,17.34,10.83,41.51,22.36,68.05,32.45,25.54,9.72,50.54,17.06,70.4,20.65Z"/><path class="cls-2" d="M199.76,209.1l-.16-2.45c5.78-.36,9.27-1.71,10.11-3.9l2.29.87C210.77,206.82,206.66,208.67,199.76,209.1Z"/><path class="cls-2" d="M13.26,224.21c-6.58,0-11-1.47-12.63-4.72l2.2-1.08c4.72,9.63,52.23-.89,115.43-31.89s100.6-62.13,95.88-71.76l2.2-1.08c6.8,13.86-44,49-97,75C78.76,208.63,34.73,224.21,13.26,224.21Z"/><path class="cls-1" d="M27.34,191.66A5.39,5.39,0,1,1,22,186.28,5.39,5.39,0,0,1,27.34,191.66Z"/><path class="cls-2" d="M22,202.26a10.6,10.6,0,1,1,10.59-10.6A10.61,10.61,0,0,1,22,202.26Zm0-18.74a8.15,8.15,0,1,0,8.14,8.14A8.16,8.16,0,0,0,22,183.52Z"/><path class="cls-1" d="M195.7,207.73a5.39,5.39,0,1,1-5.38-5.38A5.38,5.38,0,0,1,195.7,207.73Z"/><path class="cls-2" d="M190.32,218.33a10.6,10.6,0,1,1,10.59-10.6A10.61,10.61,0,0,1,190.32,218.33Zm0-18.74a8.15,8.15,0,1,0,8.14,8.14A8.16,8.16,0,0,0,190.32,199.59Z"/></g></g></svg>