<svg xmlns="http://www.w3.org/2000/svg" viewBox="0 0 19.114 19.114"><defs><style>.a{fill:#fff;fill-rule:evenodd;}</style></defs><path class="a" d="M9.557,1.7a29.3,29.3,0,0,1,3.823.106,4.925,4.925,0,0,1,1.805.319,3.729,3.729,0,0,1,1.805,1.805,4.925,4.925,0,0,1,.319,1.805c0,.956.106,1.274.106,3.823a29.3,29.3,0,0,1-.106,3.823,4.925,4.925,0,0,1-.319,1.805,3.729,3.729,0,0,1-1.805,1.805,4.925,4.925,0,0,1-1.805.319c-.956,0-1.274.106-3.823.106a29.3,29.3,0,0,1-3.823-.106,4.925,4.925,0,0,1-1.805-.319,3.729,3.729,0,0,1-1.805-1.805,4.925,4.925,0,0,1-.319-1.805c0-.956-.106-1.274-.106-3.823a29.3,29.3,0,0,1,.106-3.823,4.925,4.925,0,0,1,.319-1.805,3.814,3.814,0,0,1,.743-1.062,1.8,1.8,0,0,1,1.062-.743,4.925,4.925,0,0,1,1.805-.319A29.3,29.3,0,0,1,9.557,1.7m0-1.7A31.376,31.376,0,0,0,5.628.106,6.556,6.556,0,0,0,3.292.531a4.157,4.157,0,0,0-1.7,1.062,4.157,4.157,0,0,0-1.062,1.7A4.838,4.838,0,0,0,.106,5.628,31.376,31.376,0,0,0,0,9.557a31.376,31.376,0,0,0,.106,3.929,6.556,6.556,0,0,0,.425,2.336,4.157,4.157,0,0,0,1.062,1.7,4.157,4.157,0,0,0,1.7,1.062,6.556,6.556,0,0,0,2.336.425,31.377,31.377,0,0,0,3.929.106,31.377,31.377,0,0,0,3.929-.106,6.556,6.556,0,0,0,2.336-.425,4.455,4.455,0,0,0,2.761-2.761,6.556,6.556,0,0,0,.425-2.336c0-1.062.106-1.38.106-3.929a31.377,31.377,0,0,0-.106-3.929,6.556,6.556,0,0,0-.425-2.336,4.157,4.157,0,0,0-1.062-1.7,4.157,4.157,0,0,0-1.7-1.062A6.556,6.556,0,0,0,13.486.106,31.376,31.376,0,0,0,9.557,0m0,4.672A4.806,4.806,0,0,0,4.672,9.557,4.885,4.885,0,1,0,9.557,4.672m0,8.07A3.129,3.129,0,0,1,6.371,9.557,3.129,3.129,0,0,1,9.557,6.371a3.129,3.129,0,0,1,3.186,3.186,3.129,3.129,0,0,1-3.186,3.186m5.1-9.451A1.168,1.168,0,1,0,15.822,4.46a1.178,1.178,0,0,0-1.168-1.168" transform="translate(0)"/></svg>