<svg xmlns="http://www.w3.org/2000/svg" viewBox="0 0 154.106 176.193"><defs><style>.a{fill:#1cace4;}.b{fill:#41464b;}.c{fill:#afafaf;}.d{fill:#fed65c;}.e{fill:#fff;}</style></defs><g transform="translate(0 -0.05)"><g transform="translate(0 0.05)"><path class="a" d="M8.354,95.626h.229a6.966,6.966,0,0,1-.463-2.488,6.887,6.887,0,0,1,9.823-6.205,11.8,11.8,0,0,1,23.1,3.414c0,.119,0,.229,0,.338h0a6.887,6.887,0,0,1,0,13.769H8.354a4.414,4.414,0,0,1,0-8.828Z" transform="translate(-1.979 -39.481)"/><path class="b" d="M164.328,31.335l-3.274,2.274-2.816-2.7a14.2,14.2,0,0,1-1.776.637l-.443,3.866-3.981.333-1.08-3.742a13.072,13.072,0,0,1-1.856-.333l-2.309,3.13-3.608-1.7.935-3.777a14.252,14.252,0,0,1-1.443-1.219l-3.568,1.548L136.84,26.4l2.7-2.8a14.065,14.065,0,0,1-.637-1.786l-3.861-.438L134.7,17.4l3.742-1.08a14.81,14.81,0,0,1,.333-1.856l-3.125-2.319,1.687-3.623,3.787.96a14.674,14.674,0,0,1,1.214-1.443l-1.548-3.568L144.07,2.19l2.8,2.7a13.935,13.935,0,0,1,1.771-.642L149.1.388,153.077.05l1.08,3.742a14.65,14.65,0,0,1,1.856.333L158.336,1l3.6,1.707L161,6.474a14.252,14.252,0,0,1,1.443,1.219l3.568-1.548,2.274,3.279L165.6,12.231a14.064,14.064,0,0,1,.627,1.727l3.861.448.343,3.981-3.732,1.09a13.757,13.757,0,0,1-.338,1.851l3.13,2.319-1.7,3.608-3.782-.931a13.07,13.07,0,0,1-1.219,1.443Zm-3.105.04.931-.647-1.428-3.374.443-.423a12.286,12.286,0,0,0,1.762-2.08l.343-.5,3.558.876.5-1.025-2.946-2.189.169-.582a12.291,12.291,0,0,0,.5-2.682l.045-.607,3.528-1-.095-1.13-3.642-.423-.179-.617a12.509,12.509,0,0,0-.921-2.568l-.269-.542,2.538-2.647-.647-.936-3.359,1.463-.423-.443a12.475,12.475,0,0,0-2.085-1.767l-.5-.338.881-3.558-1.02-.5L156.714,6.1l-.582-.174a12.938,12.938,0,0,0-2.687-.5l-.607-.045-1.07-3.5-1.13.095-.423,3.642-.592.144a12.5,12.5,0,0,0-2.563.926l-.552.269-2.637-2.543-.936.647L144.4,8.425l-.443.418a12.44,12.44,0,0,0-1.762,2.085l-.343.5-3.518-.871-.5,1.025,2.946,2.184-.169.587a12.349,12.349,0,0,0-.5,2.682l-.04.607-3.528,1.02.095,1.13,3.642.413.139.592a12.41,12.41,0,0,0,.931,2.578l.269.547-2.543,2.637.647.936,3.364-1.458.423.443a12.352,12.352,0,0,0,2.08,1.762l.5.338-.881,3.558,1.025.5,2.184-2.951.587.174a11.942,11.942,0,0,0,2.677.5l.612.04,1,3.528,1.13-.095.413-3.642.592-.139A12.539,12.539,0,0,0,158,29.12l.547-.269Z" transform="translate(-67.672 -0.05)"/><path class="a" d="M166.436,34.105a9.455,9.455,0,1,1,2.374-13.152A9.455,9.455,0,0,1,166.436,34.105Z" transform="translate(-76.155 -8.508)"/><path class="b" d="M168.128,34.812h0a5.732,5.732,0,0,1-1.762.816l-.448-1.682a3.981,3.981,0,0,0,1.214-.552Zm1.378-1.373-1.428-1a3.9,3.9,0,0,0,.567-1.209l1.682.448a5.538,5.538,0,0,1-.8,1.757Zm-5.071,2.369a5.528,5.528,0,0,1-1.876-.5l.736-1.577a3.787,3.787,0,0,0,1.294.348Zm6.081-6.066-1.732.154a3.871,3.871,0,0,0-.348-1.294l1.577-.736a5.473,5.473,0,0,1,.5,1.876Zm-9.549,4.439a5.787,5.787,0,0,1-1.11-1.592l1.582-.736a3.978,3.978,0,0,0,.333.582,3.913,3.913,0,0,0,.433.5Zm6.7-6.678a3.722,3.722,0,0,0-1.09-.766l.731-1.577a5.568,5.568,0,0,1,1.592,1.115ZM161.1,30.558l-1.737.149a5.642,5.642,0,0,1,.174-1.936l1.682.458a3.737,3.737,0,0,0-.119,1.329Zm4.185-4.17a3.757,3.757,0,0,0-1.334.119l-.453-1.7a5.538,5.538,0,0,1,1.941-.164ZM161.8,28.015l-1.423-1a5.628,5.628,0,0,1,1.373-1.373l1,1.428a3.9,3.9,0,0,0-.96.94Z" transform="translate(-80.051 -12.395)"/><path class="b" d="M250.757,68.19l-2.662,1.851-2.055-1.4a7.911,7.911,0,0,1-1.269.279l-1.289,2.125-3.19-.572-.458-2.443a7.632,7.632,0,0,1-1.1-.7l-2.408.6-1.851-2.682,1.4-2.05a7.843,7.843,0,0,1-.274-1.274l-2.13-1.284.577-3.19,2.438-.463a8.209,8.209,0,0,1,.707-1.095l-.6-2.413,2.662-1.846,2.05,1.4a8.091,8.091,0,0,1,1.274-.279l1.289-2.125,3.185.577.463,2.438a8.411,8.411,0,0,1,1.1.7l2.408-.6,1.851,2.667-1.4,2.05a7.961,7.961,0,0,1,.274,1.274l2.125,1.284-.572,3.229-2.443.463a8.225,8.225,0,0,1-.707,1.075Zm-2.672-.264.692-.5-.5-2.095.289-.343a6.555,6.555,0,0,0,.94-1.463l.189-.408,2.125-.4.149-.831L250.1,60.761l-.035-.443a6.5,6.5,0,0,0-.368-1.707l-.154-.418,1.219-1.781-.5-.7-2.095.5-.338-.289a6.677,6.677,0,0,0-1.493-.94l-.4-.189-.4-2.125-.826-.149-1.125,1.856-.448.035a6.131,6.131,0,0,0-1.7.368l-.418.154-1.786-1.219-.692.5.5,2.1-.289.338a6.43,6.43,0,0,0-.94,1.463l-.189.408-2.13.4-.149.831,1.856,1.12.035.443a6.335,6.335,0,0,0,.368,1.7l.154.423-1.164,1.8.5.7,2.095-.5.343.289a6.554,6.554,0,0,0,1.463.94l.408.184.4,2.13.831.149,1.12-1.851.438-.05a6.838,6.838,0,0,0,1.7-.368l.418-.154Z" transform="translate(-117.294 -25.456)"/><path class="a" d="M252.222,70.4a3.981,3.981,0,1,1,1-5.533A3.981,3.981,0,0,1,252.222,70.4Z" transform="translate(-123.571 -31.754)"/><path class="b" d="M282.717,233.235a6.838,6.838,0,0,1-1.871-.542l.721-1.587a5.04,5.04,0,0,0,1.393.408Zm1.946,0-.249-1.727a4.8,4.8,0,0,0,1.388-.408l.727,1.587a6.967,6.967,0,0,1-1.866.547Zm-5.474-1.6a6.772,6.772,0,0,1-1.279-1.463l1.463-.95a5.047,5.047,0,0,0,.955,1.1Zm8.957,0-1.139-1.319a5.259,5.259,0,0,0,.95-1.095l1.463.94a6.923,6.923,0,0,1-1.254,1.468ZM277.1,228.408a6.8,6.8,0,0,1-.279-1.926h1.742a5.026,5.026,0,0,0,.209,1.438Zm13.132,0-1.672-.5a5.175,5.175,0,0,0,.2-1.438l1.742-.025v.025a6.966,6.966,0,0,1-.254,1.916Zm-11.47-3.354-1.672-.5a6.9,6.9,0,0,1,.806-1.776l1.493.94a5.181,5.181,0,0,0-.607,1.314Zm9.793-.03a5.01,5.01,0,0,0-.612-1.314l1.463-.95a6.863,6.863,0,0,1,.816,1.766Zm-8.24-2.389-1.144-1.314a6.743,6.743,0,0,1,1.632-1.055l.732,1.577a5.178,5.178,0,0,0-1.2.771Zm6.673,0a5.085,5.085,0,0,0-1.219-.781l.717-1.587a6.877,6.877,0,0,1,1.642,1.05Zm-4.065-1.179-.254-1.727a7.355,7.355,0,0,1,1-.07h0a6.722,6.722,0,0,1,.95.065l-.239,1.727c-.239-.035-.5-.04-.717-.05a5.191,5.191,0,0,0-.717.015Z" transform="translate(-139.072 -110.381)"/><path class="b" d="M240.747,19.3l-1-1.428a2.593,2.593,0,0,0,.866-1.03l1.577.736a4.3,4.3,0,0,1-1.448,1.722Zm-2.115.771a4.409,4.409,0,0,1-2.214-.388l.731-1.582a2.622,2.622,0,0,0,1.334.234Zm3.981-4.707-1.737.144a2.568,2.568,0,0,0-.458-1.269l1.408-1.025.025.035a4.389,4.389,0,0,1,.741,2.115Zm-6.469,1.876-1.428,1a4.394,4.394,0,0,1-.776-2.1l1.737-.159a2.643,2.643,0,0,0,.443,1.239Zm3.224-3.881a2.627,2.627,0,0,0-1.334-.229l-.159-1.732a4.4,4.4,0,0,1,2.214.373Zm-3.483,1.279L234.3,13.91a4.334,4.334,0,0,1,1.443-1.727l1,1.418a2.652,2.652,0,0,0-.861,1.04Z" transform="translate(-117.53 -5.744)"/><rect class="b" width="1.742" height="3.15" transform="matrix(0.177, -0.984, 0.984, 0.177, 127.978, 63.282)"/><rect class="b" width="1.742" height="3.14" transform="translate(121.393 62.102) rotate(-79.91)"/><rect class="b" width="3.14" height="1.742" transform="translate(125.825 60.194) rotate(-79.65)"/><rect class="b" width="3.15" height="1.742" transform="matrix(0.177, -0.984, 0.984, 0.177, 124.65, 66.804)"/><circle class="c" cx="1.99" cy="1.99" r="1.99" transform="translate(148.377 67.202)"/><path class="b" d="M.448,234.032A4.478,4.478,0,0,1,0,232.042v-.07H1.741a2.856,2.856,0,0,0,.269,1.294Zm1.543-3.508-1.662-.5a11.187,11.187,0,0,1,.717-1.737l1.553.786a9.912,9.912,0,0,0-.607,1.448Zm1.433-2.9-1.433-.94a16.817,16.817,0,0,1,1.035-1.493l1.388,1.045c-.378.488-.7.95-.985,1.388Zm2.05-2.7-1.358-1.125c.363-.433.761-.886,1.169-1.334l1.289,1.174C6.175,224.08,5.8,224.513,5.474,224.931Zm2.274-2.518L6.5,221.2c.4-.408.816-.826,1.249-1.244l1.2,1.234C8.544,221.6,8.136,222,7.748,222.413Zm16-13.162-1-1.423,1.428-1,1,1.428Zm2.851-1.99-1-1.438,1.443-1,1,1.443Zm2.876-1.941-.965-1.448,1.458-.965.955,1.458Zm2.906-1.9-.945-1.463,1.493-.945.906,1.458Zm2.946-1.876-.931-1.493,1.493-.926.921,1.493C36.29,200.931,35.8,201.235,35.33,201.543Zm2.951-1.831-.911-1.493,1.493-.911.9,1.493c-.513.309-1.01.607-1.5.911Zm2.986-1.8-.891-1.493,1.493-.9.886,1.493Zm2.986-1.771-.876-1.493,1.493-.876.871,1.493Zm3.011-1.737L46.4,192.91l1.493-.861.876,1.5c-.5.279-1.03.562-1.528.851Zm3.025-1.712-.851-1.523,1.528-.846.841,1.523ZM53.328,191l-.836-1.528,1.533-.831.831,1.528Zm3.055-1.657-.821-1.533,1.538-.821.816,1.538Zm3.07-1.627-.811-1.543,1.548-.811L61,186.914Zm3.085-1.607-.8-1.548,1.553-.8.791,1.553Zm3.1-1.577-.781-1.558,1.558-.781.781,1.557Zm3.11-1.553-.776-1.562,1.408-.7.154-.075.776,1.562-.159.075Zm3.12-1.533-.761-1.567,1.548-.761.756,1.567ZM75,179.957l-.746-1.572c.527-.254,1.05-.5,1.577-.746l.741,1.577Zm3.145-1.493-.731-1.577,1.557-.751.727,1.582Zm3.16-1.453-.722-1.582,1.592-.722.712,1.592Zm3.17-1.423L83.767,174l1.592-.707.7,1.592Zm3.18-1.4-.692-1.6,1.6-.692.687,1.6Zm3.195-1.373-.677-1.6c.537-.229,1.075-.458,1.607-.677l.672,1.6Zm3.21-1.344-.667-1.607,1.617-.662.657,1.612Zm3.22-1.309-.652-1.617,1.622-.647.642,1.622q-.831.313-1.637.642Zm3.229-1.279-.632-1.622,1.627-.632.622,1.627Zm3.244-1.244-.617-1.632,1.637-.612.607,1.632q-.841.3-1.652.612Zm3.234-1.209-.6-1.637,1.642-.6.592,1.642Zm3.269-1.169-.577-1.647,1.652-.572.567,1.647Zm3.284-1.13-.552-1.652,1.657-.552.542,1.657c-.547.179-1.1.358-1.652.547Zm3.3-1.085-.532-1.657c.562-.179,1.12-.358,1.672-.527l.5,1.662Zm3.314-1.03-.5-1.667c.562-.169,1.12-.338,1.677-.5l.5,1.667Zm3.329-1-.473-1.677,1.687-.468.458,1.682Zm3.344-.906-.438-1.687,1.7-.433.418,1.692c-.557.154-1.115.3-1.682.448Zm3.359-.831-.393-1.7,1.712-.388.368,1.7c-.557.139-1.12.269-1.692.4Zm21.317-.5a4.563,4.563,0,0,0-1.239-.756l.682-1.6a6.275,6.275,0,0,1,1.717,1.06Zm-17.939-.244-.343-1.712c.587-.114,1.159-.229,1.727-.328l.313,1.712c-.557.124-1.125.234-1.7.353Zm3.394-.622-.279-1.717c.6-.1,1.179-.184,1.747-.264l.234,1.727q-.821.139-1.707.279Zm11.8-.358a13.931,13.931,0,0,0-1.622-.254l.184-1.732a16.425,16.425,0,0,1,1.816.284Zm-8.39-.1-.189-1.732c.607-.07,1.194-.119,1.766-.164l.129,1.737c-.557.065-1.125.119-1.712.184Zm3.409-.249-.055-1.742h1.791l-.045,1.742c-.542.015-1.11.015-1.7.015Z" transform="translate(0 -78.132)"/><path class="b" d="M158.086,231.676l-1.627-.617c1.214-3.2-5-9.455-16.63-16.7-12.316-7.688-29.483-15.879-48.342-23.054s-37.121-12.475-51.438-14.928c-13.51-2.309-22.3-1.776-23.522,1.423l-1.627-.622c2.04-5.314,14.978-4.3,25.428-2.508,14.431,2.463,32.807,7.793,51.751,15.008s36.236,15.456,48.646,23.208C149.8,218.514,160.112,226.357,158.086,231.676Z" transform="translate(-7.486 -87.052)"/><path class="b" d="M119.02,191.635h-1.742v-5.727a35.256,35.256,0,0,1,11.49-25.99l1.279-1.11a43.157,43.157,0,1,0-58.22,0l1.249,1.075a35.255,35.255,0,0,1,11.5,26v5.727H82.889v-5.708a33.5,33.5,0,0,0-10.947-24.7l-1.249-1.055a44.909,44.909,0,1,1,60.509,0l-1.274,1.11a33.484,33.484,0,0,0-10.908,24.686Z" transform="translate(-28.152 -41.248)"/><rect class="a" width="36.4" height="20.233" rx="4" transform="translate(54.588 149.391)"/><rect class="b" width="40.824" height="1.742" transform="translate(52.378 149.516)"/><rect class="b" width="40.824" height="1.742" transform="translate(52.378 153.104)"/><rect class="b" width="40.824" height="1.742" transform="translate(52.378 156.691)"/><path class="b" d="M142,345.614H134.33a4.215,4.215,0,0,1-4.22-4.22V337.18H146.2v4.215a4.22,4.22,0,0,1-4.22,4.22Zm-10.131-6.693v2.488a2.488,2.488,0,0,0,2.488,2.488H142a2.488,2.488,0,0,0,2.488-2.488v-2.488Z" transform="translate(-65.366 -169.422)"/><path class="d" d="M80,138.971A33,33,0,1,0,112.985,106,33,33,0,0,0,80,138.971Z" transform="translate(-40.191 -53.279)"/><path class="b" d="M124.93,172.058h-4.877l-1-5.091a18.168,18.168,0,0,1-2.807-.751l-3.424,3.9-4.225-2.433,1.667-4.926a18.5,18.5,0,0,1-2.05-2.045l-4.916,1.662-2.443-4.225,3.9-3.424a18.489,18.489,0,0,1-.756-2.8L98.92,150.9v-4.872l5.086-1a18.515,18.515,0,0,1,.756-2.811l-3.9-3.424,2.443-4.225,4.916,1.667a18.989,18.989,0,0,1,2.05-2.05l-1.667-4.921,4.225-2.433,3.429,3.9a18.41,18.41,0,0,1,2.8-.746l1-5.091h4.882l1,5.086a19.235,19.235,0,0,1,2.8.746l3.433-3.886,4.22,2.428-1.662,4.921a19.935,19.935,0,0,1,2.05,2.05l4.926-1.667,2.423,4.225-3.856,3.409a19.085,19.085,0,0,1,.751,2.8l5.086,1.02V150.9l-5.086,1.025a19.135,19.135,0,0,1-.751,2.792l3.891,3.428-2.423,4.23-4.951-1.667a18.913,18.913,0,0,1-2.045,2.045l1.662,4.921-4.22,2.433-3.433-3.891a17.939,17.939,0,0,1-2.8.746Zm-3.448-1.742h2.02l1-4.882.607-.09a16.63,16.63,0,0,0,3.608-.96l.567-.219,3.284,3.727,1.752-1-1.6-4.712.5-.383a17.232,17.232,0,0,0,2.642-2.642l.378-.5,4.673,1.617,1-1.752-3.727-3.289.219-.567a16.814,16.814,0,0,0,.965-3.6l.095-.6,4.872-1v-2.02l-4.872-1-.095-.6a17.2,17.2,0,0,0-.965-3.618l-.219-.567,3.727-3.284-1-1.747-4.712,1.592-.383-.473a17.262,17.262,0,0,0-2.642-2.647l-.473-.378,1.592-4.712-1.752-1-3.289,3.722-.567-.219a17.184,17.184,0,0,0-3.608-.96l-.6-.09-1-4.877h-2.025l-1,4.877-.6.09a16.917,16.917,0,0,0-3.608.965l-.567.219-3.284-3.732-1.747,1,1.592,4.712-.5.383a16.764,16.764,0,0,0-2.637,2.642l-.383.5-4.712-1.6-1,1.747,3.732,3.279-.219.567a16.769,16.769,0,0,0-1,3.623l-.09.6-4.877,1v2.02l4.877,1,.09.6a16.679,16.679,0,0,0,1,3.6l.219.572-3.732,3.279,1,1.752,4.717-1.6.378.5a16.526,16.526,0,0,0,2.637,2.637l.5.383-1.592,4.717,1.747,1,3.284-3.732.567.219a16.366,16.366,0,0,0,3.608.965l.607.09Z" transform="translate(-49.697 -62.774)"/><path class="e" d="M133.494,172.128a12.654,12.654,0,1,1,8.966-3.7A12.674,12.674,0,0,1,133.494,172.128Z" transform="translate(-60.699 -73.766)"/><path class="b" d="M139.447,172.2h-.025a6.8,6.8,0,0,1-1.926-.274l.5-1.672a5.175,5.175,0,0,0,1.438.2Zm1.931-.284-.5-1.667a5.115,5.115,0,0,0,1.319-.607l.95,1.458a6.658,6.658,0,0,1-1.771.826Zm-5.658-.8a6.921,6.921,0,0,1-1.493-1.274l1.314-1.144a5.266,5.266,0,0,0,1.1.95Zm8.9-1.3-1.319-1.1a5.015,5.015,0,0,0,.781-1.224l1.587.722a6.877,6.877,0,0,1-1.05,1.617ZM133.172,168.2a6.634,6.634,0,0,1-.547-1.871l1.722-.244a5.214,5.214,0,0,0,.408,1.393Zm13.017-1.9-1.727-.239a5.64,5.64,0,0,0,.05-.712,5.328,5.328,0,0,0-.055-.746l1.722-.249a6.651,6.651,0,0,1,.075,1,7.559,7.559,0,0,1-.045.96Zm-11.843-1.672-1.727-.244a6.8,6.8,0,0,1,.547-1.871l1.582.722a5.031,5.031,0,0,0-.383,1.4Zm9.718-1.388a4.931,4.931,0,0,0-.791-1.219l1.314-1.149a7.042,7.042,0,0,1,1.06,1.637Zm-8.509-1.2-1.319-1.139a6.922,6.922,0,0,1,1.468-1.279l.945,1.463a5.139,5.139,0,0,0-1.095.94Zm6.618-.965a5.047,5.047,0,0,0-1.324-.6l.5-1.672a6.732,6.732,0,0,1,1.776.806Zm-4.2-.6-.5-1.667a6.778,6.778,0,0,1,1.926-.279v1.727a5.209,5.209,0,0,0-1.428.2Z" transform="translate(-66.627 -79.669)"/><path class="b" d="M130.936,237.942c-14.212-2.573-32.081-7.812-50.318-14.754-18.959-7.21-36.236-15.451-48.646-23.2-9.027-5.638-19.357-13.475-17.332-18.8l1.627.622c-1.214,3.2,4.976,9.455,16.625,16.7,12.321,7.693,29.488,15.879,48.342,23.054,18.143,6.907,35.9,12.112,50.014,14.669Z" transform="translate(-7.226 -91.048)"/><path class="b" d="M285.09,293.953,285,292.2c4.1-.259,6.583-1.214,7.176-2.772l1.627.622C292.917,292.331,289.976,293.645,285.09,293.953Z" transform="translate(-143.182 -145.433)"/><path class="b" d="M9.887,240.807c-4.673,0-7.837-1.04-8.957-3.349l1.528-.766c3.354,6.837,37.107-.637,82-22.656s71.466-44.138,68.117-50.98l1.562-.766c4.822,9.848-31.25,34.832-68.909,53.309C56.418,229.741,25.139,240.807,9.887,240.807Z" transform="translate(-0.467 -81.558)"/><path class="a" d="M31.263,269.757a3.832,3.832,0,1,1-3.832-3.827A3.832,3.832,0,0,1,31.263,269.757Z" transform="translate(-11.856 -133.626)"/><path class="b" d="M23.729,273.548a7.529,7.529,0,1,1,7.529-7.529A7.529,7.529,0,0,1,23.729,273.548Zm0-13.311a5.787,5.787,0,1,0,4.1,1.686A5.787,5.787,0,0,0,23.729,260.237Z" transform="translate(-8.139 -129.889)"/><path class="a" d="M271.663,292.707A3.822,3.822,0,1,1,270.544,290,3.827,3.827,0,0,1,271.663,292.707Z" transform="translate(-132.637 -145.156)"/><path class="b" d="M264.1,296.5a7.529,7.529,0,1,1,7.529-7.529A7.529,7.529,0,0,1,264.1,296.5Zm0-13.311a5.77,5.77,0,1,1,0,.025Z" transform="translate(-128.899 -141.418)"/></g></g></svg>