<svg xmlns="http://www.w3.org/2000/svg" viewBox="0 0 150.127 134.648"><defs><style>.a{fill:#41464b;}.b{fill:#1cace4;}.c{fill:#e4851c;}.d{fill:#fff;}.e{fill:#fed65c;}.f{fill:#afafaf;}</style></defs><g transform="translate(0)"><g transform="translate(0)"><path class="a" d="M147.335,138.686h-1.916V77.468a2.576,2.576,0,0,0-2.584-2.584H43.718a2.608,2.608,0,0,0-2.592,2.584v61.218H39.21V77.468A4.532,4.532,0,0,1,43.718,73h99.117a4.508,4.508,0,0,1,4.5,4.5Z" transform="translate(-8.037 -14.962)"/><path class="a" d="M149.665,165.781H31.325A5.684,5.684,0,0,1,25.64,160.1V154.42H75.218l2.5,2.743h25.624l2.5-2.743h49.547V160.1a5.677,5.677,0,0,1-5.684,5.677ZM27.556,156.336V160.1a3.737,3.737,0,0,0,1.1,2.663,3.8,3.8,0,0,0,2.671,1.1H149.665a3.8,3.8,0,0,0,2.671-1.1,3.737,3.737,0,0,0,1.1-2.663v-3.768h-46.78l-2.5,2.735H76.808l-2.5-2.735Z" transform="translate(-5.255 -31.651)"/><rect class="a" width="1.916" height="1.916" transform="translate(31.173 127.492)"/><rect class="a" width="1.916" height="1.916" transform="translate(35.006 127.492)"/><rect class="a" width="1.916" height="1.916" transform="translate(38.838 127.492)"/><rect class="a" width="9.58" height="1.916" transform="translate(129.726 127.492)"/><path class="b" d="M48.46,82.23V116.3H58.843l3.458-6.7H72.685l3.458-7.275H86.518l3.466,5.6H100.36l3.466-4.444H114.2l3.466-7.283h10.375l3.458,5.6h10.383V82.23Z" transform="translate(-9.932 -16.854)"/><path class="c" d="M48.46,135.894v6.67h93.425V126.425H131.5l-3.458-3.355H117.668l-3.466,5.025H103.826l-3.466,2.775H89.985l-3.466-3.355H76.143l-3.458,5.025H62.3l-3.458,3.355Z" transform="translate(-9.932 -25.225)"/><path class="a" d="M59.233,136.6H48.46v-1.916h9.994l3.458-3.347H72.176l3.466-5.025H86.908l3.458,3.347h9.66l3.458-2.767H113.7l3.458-5.033h11.274l3.458,3.355h9.994v1.916H131.12l-3.466-3.347h-9.485L114.71,128.8H104.16l-3.458,2.775H89.6l-3.458-3.347H76.644l-3.458,5.025H62.691Z" transform="translate(-9.932 -24.977)"/><rect class="a" width="20.393" height="1.916" transform="translate(42.36 80.704)"/><rect class="a" width="10.192" height="1.916" transform="translate(42.36 84.536)"/><rect class="a" width="20.758" height="1.916" transform="translate(76.96 69.208)"/><rect class="a" width="20.758" height="1.916" transform="translate(66.576 73.04)"/><rect class="a" width="6.917" height="1.916" transform="translate(66.576 69.208)"/><rect class="d" width="20.393" height="9.58" transform="translate(42.36 69.208)"/><rect class="a" width="4.866" height="1.916" transform="translate(53.514 73.04)"/><rect class="a" width="4.866" height="1.916" transform="translate(46.724 73.04)"/><rect class="d" width="1.916" height="1.916" transform="translate(118.548 69.208)"/><rect class="d" width="1.916" height="1.916" transform="translate(122.38 69.208)"/><rect class="d" width="1.916" height="1.916" transform="translate(126.204 69.208)"/><rect class="c" width="5.748" height="7.632" transform="translate(87.708 37.279)"/><rect class="c" width="5.748" height="9.93" transform="translate(95.365 27.906)"/><rect class="c" width="5.748" height="3.999" transform="translate(103.029 42.988)"/><rect class="c" width="5.748" height="4.174" transform="translate(110.693 30.863)"/><rect class="c" width="5.748" height="14.819" transform="translate(118.349 25.211)"/><rect class="c" width="5.748" height="5.064" transform="translate(126.013 39.632)"/><rect class="c" width="5.748" height="9.143" transform="translate(133.677 33.773)"/><rect class="e" width="5.748" height="3.816" transform="translate(87.708 46.828)"/><rect class="e" width="5.748" height="10.892" transform="translate(95.365 39.752)"/><rect class="e" width="5.748" height="1.733" transform="translate(103.029 48.903)"/><rect class="e" width="5.748" height="13.683" transform="translate(110.693 36.953)"/><rect class="e" width="5.748" height="8.69" transform="translate(118.349 41.954)"/><rect class="e" width="5.748" height="4.023" transform="translate(126.013 46.613)"/><rect class="e" width="5.748" height="5.804" transform="translate(133.677 44.832)"/><path class="a" d="M162.037,68.016h-1.884V66.1h1.916Zm-3.832,0h-1.916V66.1H158.2Zm-3.832,0h-1.916V66.1h1.916Zm-3.832,0h-1.916V66.1h1.916Zm-3.832,0h-1.916V66.1h1.916Zm-3.832,0h-1.916V66.1h1.916Zm-3.824,0h-1.916V66.1h1.916Zm-3.832,0H133.3V66.1h1.916Zm-3.832,0h-1.916V66.1h1.916Zm-3.832,0H125.64V66.1h1.916Zm-3.832,0h-1.916V66.1h1.916Zm-3.832,0h-1.876V66.1h1.916Zm-3.832,0h-1.908V66.1h1.908Zm-3.824,0H110.32V66.1h1.916Z" transform="translate(-22.612 -13.548)"/><path class="a" d="M168.532,106.845H158.7v-1.916h7.919V27.477L154.587,15.456H101.216v46.3H99.3V13.54h56.082l13.15,13.142Z" transform="translate(-20.353 -2.775)"/><path class="a" d="M181.687,28.287H168.14V14.74h1.916V26.371h11.631Z" transform="translate(-34.463 -3.021)"/><rect class="b" width="7.306" height="70.798" transform="translate(0.884 52.048) rotate(-0.86)"/><path class="f" d="M4.22,167.295a1.59,1.59,0,0,1-1.113-.445,1.542,1.542,0,0,1-.477-1.1v-2.091l7.3-.111v2.091a1.561,1.561,0,0,1-1.534,1.59Z" transform="translate(-0.539 -33.522)"/><path class="a" d="M9.026,61.5l-1.662.58-2.942-8.4L1.735,62.172.05,61.639,4.335,48.1Z" transform="translate(-0.01 -9.859)"/><rect class="a" width="2.433" height="1.765" transform="translate(3.404 43.806) rotate(-1.146)"/><path class="a" d="M9.063,65.085l1.065,70.758a.882.882,0,0,1-.867.9l-7.3.1a.882.882,0,0,1-.9-.867L0,65.22a.882.882,0,0,1,.867-.9l7.306-.111a.882.882,0,0,1,.89.875Zm-.708,69.963L7.314,65.991l-5.565.08L2.791,135.1Z" transform="translate(0 -13.161)"/><rect class="a" width="1.765" height="70.798" transform="translate(3.65 52.006) rotate(-0.86)"/><path class="a" d="M10.391,153.24l.135,9.071-9.063.135-.143-9.071Zm-1.654,7.33L8.65,155l-5.565.087.087,5.565Z" transform="translate(-0.27 -31.409)"/><path class="a" d="M10.537,162.43l.04,2.965a2.457,2.457,0,0,1-2.385,2.488l-4.174.056a2.443,2.443,0,0,1-2.481-2.409l-.048-2.965Zm-7.259,3.077a.644.644,0,0,0,.207.477.684.684,0,0,0,.485.2l4.174-.064a.708.708,0,0,0,.477-.207.716.716,0,0,0,.2-.493v-1.2l-5.565.079Z" transform="translate(-0.305 -33.292)"/><rect class="a" width="7.306" height="1.765" transform="translate(1.988 125.611) rotate(-0.86)"/><path class="c" d="M40.13,46.945l12.434-25.5,12.426,25.5Z" transform="translate(-8.225 -4.394)"/><path class="e" d="M63.01,48.3,72.868,28.07,82.727,48.3Z" transform="translate(-12.915 -5.753)"/><path class="b" d="M29.73,50.058,36.273,36.63l6.543,13.428Z" transform="translate(-6.093 -7.508)"/><rect class="a" width="46.176" height="1.916" transform="translate(23.637 44.419)"/><path class="a" d="M49.749,31.681l-9.525-9.525H29.73V20.24H41.019L51.108,30.321Z" transform="translate(-6.093 -4.148)"/><rect class="a" width="10.892" height="1.916" transform="translate(23.637 12.259)"/><rect class="a" width="1.916" height="7.664" transform="translate(79.496)"/><rect class="a" width="7.664" height="1.916" transform="translate(76.626 2.878)"/></g></g></svg>