<svg xmlns="http://www.w3.org/2000/svg" viewBox="0 0 23.566 19.114"><defs><style>.a{fill:#fff;fill-rule:evenodd;}</style></defs><path class="a" d="M45.462,21.114A13.624,13.624,0,0,0,59.209,7.368V6.713a10.642,10.642,0,0,0,2.357-2.487,10.868,10.868,0,0,1-2.749.786,5.094,5.094,0,0,0,2.095-2.618A12.008,12.008,0,0,1,57.9,3.571,4.676,4.676,0,0,0,54.365,2a4.919,4.919,0,0,0-4.844,4.844,2.552,2.552,0,0,0,.131,1.047A13.536,13.536,0,0,1,39.7,2.786a5.014,5.014,0,0,0-.655,2.487,5.2,5.2,0,0,0,2.095,4.059,4.413,4.413,0,0,1-2.226-.655h0a4.785,4.785,0,0,0,3.928,4.713,4.036,4.036,0,0,1-1.309.131,2.228,2.228,0,0,1-.916-.131,4.96,4.96,0,0,0,4.582,3.4,9.885,9.885,0,0,1-6.022,2.095A3.625,3.625,0,0,1,38,18.758a12.357,12.357,0,0,0,7.462,2.357" transform="translate(-38 -2)"/></svg>