<svg xmlns="http://www.w3.org/2000/svg" viewBox="0 0 158.161 136.265"><defs><style>.a{fill:#1cace4;}.b{fill:#afafaf;}.c{fill:#41464b;}.d{fill:#fff;}.e{fill:#fed65c;}</style></defs><g transform="translate(0 0)"><rect class="a" width="70.562" height="74.472" transform="translate(6.101 33.203)"/><path class="b" d="M71.324,7.17H11.938a10.8,10.8,0,0,0-10.8,10.8V29.652H82.122V17.96a10.8,10.8,0,0,0-10.8-10.79Z" transform="translate(-0.261 -1.64)"/><rect class="c" width="15.579" height="1.82" transform="translate(33.596 15.865)"/><path class="b" d="M11.978,168.83H71.364a10.8,10.8,0,0,0,10.8-10.8V146.34H1.18v11.692a10.8,10.8,0,0,0,10.8,10.8Z" transform="translate(-0.27 -33.474)"/><path class="c" d="M56.792,163.753H44.344a4.026,4.026,0,1,1,0-8.044H56.792a4.026,4.026,0,1,1,0,8.044Zm-12.448-6.232a2.206,2.206,0,1,0,0,4.412H56.792a2.206,2.206,0,1,0,0-4.412Z" transform="translate(-9.182 -35.617)"/><path class="c" d="M71.063,137.638H11.677A11.723,11.723,0,0,1,0,125.93V17.692A11.723,11.723,0,0,1,11.708,6H71.094A11.723,11.723,0,0,1,82.8,17.7V125.93a11.723,11.723,0,0,1-11.738,11.708ZM11.708,7.812a9.9,9.9,0,0,0-9.887,9.88V125.93a9.9,9.9,0,0,0,9.887,9.888H71.094a9.9,9.9,0,0,0,9.887-9.887V17.692a9.9,9.9,0,0,0-9.918-9.88Z" transform="translate(0 -1.372)"/><rect class="c" width="80.951" height="1.82" transform="translate(0.91 27.102)"/><rect class="c" width="80.951" height="1.82" transform="translate(0.91 111.955)"/><path class="c" d="M21.485,23.85a2.985,2.985,0,1,1,2.985-2.985,2.985,2.985,0,0,1-2.985,2.985Zm0-4.157a1.172,1.172,0,1,0,1.165,1.172,1.172,1.172,0,0,0-1.165-1.172Z" transform="translate(-4.232 -4.09)"/><circle class="d" cx="24.665" cy="24.665" r="24.665" transform="translate(16.736 48.558)"/><path class="c" d="M48.172,120.933a25.405,25.405,0,0,1-18.31-7.713l-.262-.27v-1.273c0-4.967,3.656-6.81,7.527-8.754,1.6-.771,4.543-2.26,5.2-2.591l.262-.262a.771.771,0,0,0,.185-.278.817.817,0,0,0,.069-.324v-2.7h1.82v2.692a2.753,2.753,0,0,1-.2,1.018,2.553,2.553,0,0,1-.6.879l-.455.455-.131.069-5.3,2.645c-3.856,1.92-6.556,3.293-6.556,7.142v.532a23.747,23.747,0,0,0,33.5,0v-.532c0-3.856-2.738-5.221-6.525-7.119l-5.345-2.669-.123-.062-.478-.47a2.761,2.761,0,0,1-.578-.879,2.514,2.514,0,0,1-.208-1.01V96.77h1.82v2.692a.771.771,0,0,0,.062.293.956.956,0,0,0,.193.316l.262.255,5.167,2.576c3.91,1.967,7.566,3.8,7.566,8.769v1.273l-.262.262a25.367,25.367,0,0,1-18.294,7.728Z" transform="translate(-6.771 -22.136)"/><path class="c" d="M51.044,93.264c-4.905,0-7.713-4.1-7.952-8.183a1.943,1.943,0,0,1-.378-.285,1.782,1.782,0,0,1-.524-1.273v-4.4a8.869,8.869,0,0,1,17.739,0v4.4A1.789,1.789,0,0,1,59.4,84.8a1.943,1.943,0,0,1-.378.285C58.718,89.169,55.926,93.264,51.044,93.264Zm0-21.186a7.034,7.034,0,0,0-7.034,7.042v4.4a.864.864,0,0,1,.879.887c0,2.723,1.674,7.042,6.17,7.042s6.17-4.319,6.17-7.042a.91.91,0,0,1,.91-.91V79.119a7.034,7.034,0,0,0-7.034-7.042Z" transform="translate(-9.651 -16.069)"/><path class="c" d="M59.9,84.126h-1.82a2.213,2.213,0,0,0-2.206-2.2,2.7,2.7,0,0,1-1.89-.772,3.3,3.3,0,0,1-.223-.254l-.771.771a.933.933,0,0,1-.648.262H46.216a2.213,2.213,0,0,0-2.206,2.206H42.19a4.026,4.026,0,0,1,4.026-4.018h5.746L53.5,78.581a.887.887,0,0,1,.987-.193.9.9,0,0,1,.563.833.848.848,0,0,0,.247.609.872.872,0,0,0,.609.255A4.026,4.026,0,0,1,59.9,84.126Z" transform="translate(-9.651 -17.914)"/><path class="c" d="M51.829,108.559a6.216,6.216,0,0,1-6.209-6.209h1.836a4.388,4.388,0,1,0,8.777,0h1.82A6.216,6.216,0,0,1,51.829,108.559Z" transform="translate(-10.435 -23.412)"/><rect class="b" width="24.665" height="29.339" transform="translate(94.818 33.889)"/><rect class="d" width="1.82" height="1.82" transform="translate(99.492 38.563)"/><rect class="c" width="11.685" height="1.82" transform="translate(103.125 38.563)"/><rect class="d" width="1.82" height="1.82" transform="translate(99.492 42.195)"/><rect class="c" width="11.685" height="1.82" transform="translate(103.125 42.195)"/><rect class="d" width="1.82" height="1.82" transform="translate(99.492 45.828)"/><rect class="c" width="11.685" height="1.82" transform="translate(103.125 45.828)"/><rect class="d" width="1.82" height="1.82" transform="translate(99.492 49.461)"/><rect class="c" width="11.685" height="1.82" transform="translate(103.125 49.461)"/><rect class="d" width="1.82" height="1.82" transform="translate(99.492 53.101)"/><rect class="c" width="11.685" height="1.82" transform="translate(103.125 53.101)"/><rect class="d" width="1.82" height="1.82" transform="translate(99.492 56.734)"/><rect class="c" width="11.685" height="1.82" transform="translate(103.125 56.734)"/><path class="e" d="M122.838,120.2v12.463l-5.2,5.191h5.2v2.6h33.881V120.2Z" transform="translate(-26.91 -27.495)"/><path class="c" d="M183.24,127.67H141.8V102.35h41.44v3.031H190.6l-7.358,7.358Zm-39.627-1.812H181.4V111.975l4.782-4.789H181.4v-3.023H143.612Z" transform="translate(-32.436 -23.412)"/><rect class="c" width="1.82" height="1.82" transform="translate(115.495 97.124)"/><rect class="c" width="1.82" height="1.82" transform="translate(119.128 97.124)"/><rect class="c" width="1.812" height="1.82" transform="translate(122.768 97.124)"/><rect class="c" width="18.163" height="1.82" transform="translate(114.763 84.53)"/><rect class="c" width="30.642" height="1.82" transform="translate(114.763 88.162)"/><rect class="c" width="12.479" height="1.82" transform="translate(132.926 91.795)"/><rect class="c" width="12.479" height="1.82" transform="translate(132.926 95.435)"/><path class="c" d="M81.06,58.441A6,6,0,1,1,85.3,56.682a6,6,0,0,1-4.242,1.758Zm0-10.173a4.18,4.18,0,1,0,4.18,4.18,4.188,4.188,0,0,0-4.18-4.18Z" transform="translate(-17.169 -10.623)"/><rect class="c" width="1.82" height="8.63" transform="translate(66.846 46.087) rotate(-45)"/><path class="a" d="M109.419,9.409A9.409,9.409,0,1,1,100.025,0a9.409,9.409,0,0,1,9.394,9.409Z" transform="translate(-20.724 0)"/><path class="c" d="M100.416,15.119,96.49,11.193,97.778,9.9l2.638,2.638L104.958,8l1.288,1.288Z" transform="translate(-22.072 -1.83)"/></g></svg>