<svg xmlns="http://www.w3.org/2000/svg" viewBox="0 0 154.01 67.81"><title>Asset 6</title><g id="Layer_2" data-name="Layer 2"><g id="Layer_1-2" data-name="Layer 1"><path d="M5.15,45.92H28.76v4.73H0V0H5.15Z"/><path d="M67.89,33.91a18.31,18.31,0,0,1-1.33,7,17,17,0,0,1-3.68,5.58,16.77,16.77,0,0,1-5.62,3.68,18.94,18.94,0,0,1-7.19,1.32A18.74,18.74,0,0,1,43,50.18a16.77,16.77,0,0,1-5.62-3.68,17,17,0,0,1-3.68-5.58,18.12,18.12,0,0,1-1.33-7,18.09,18.09,0,0,1,1.33-7A16.59,16.59,0,0,1,43,17.63a18.74,18.74,0,0,1,7.11-1.32,18.94,18.94,0,0,1,7.19,1.32,16.59,16.59,0,0,1,9.3,9.27A18.27,18.27,0,0,1,67.89,33.91Zm-5.16,0a15,15,0,0,0-.89-5.23,12.66,12.66,0,0,0-2.54-4.22,11.85,11.85,0,0,0-4-2.82,13.8,13.8,0,0,0-10.51,0,11.53,11.53,0,0,0-3.94,2.82,12.9,12.9,0,0,0-2.5,4.22,15.62,15.62,0,0,0,0,10.45,12.8,12.8,0,0,0,2.5,4.22,11.56,11.56,0,0,0,3.94,2.83,13.92,13.92,0,0,0,10.51,0,11.88,11.88,0,0,0,4-2.83,12.56,12.56,0,0,0,2.54-4.22A14.91,14.91,0,0,0,62.73,33.91Z"/><path d="M79,57.37a15.14,15.14,0,0,0,5.41,4.47,16.14,16.14,0,0,0,7.4,1.68,15.74,15.74,0,0,0,6.08-1,10.55,10.55,0,0,0,4-2.82,11,11,0,0,0,2.22-4.19,18.72,18.72,0,0,0,.68-5.11v-6h-.15a12.78,12.78,0,0,1-5.58,4.86,17.09,17.09,0,0,1-6.94,1.44,18,18,0,0,1-6.83-1.29,17.4,17.4,0,0,1-5.54-3.54,16.38,16.38,0,0,1-3.72-5.4,16.92,16.92,0,0,1-1.36-6.8A17.78,17.78,0,0,1,76,26.82a17.55,17.55,0,0,1,3.54-5.5A15.94,15.94,0,0,1,85,17.63a17.29,17.29,0,0,1,6.83-1.32A19.07,19.07,0,0,1,95,16.6a14.79,14.79,0,0,1,3.36,1,15.47,15.47,0,0,1,6.4,5.15h.15V17.17h4.72V50.36a27.08,27.08,0,0,1-.68,5.79,14.28,14.28,0,0,1-2.65,5.66,15.13,15.13,0,0,1-5.47,4.29,21,21,0,0,1-9.16,1.71,23,23,0,0,1-8.94-1.64,20.77,20.77,0,0,1-7.15-5.08Zm.86-23.89a12.73,12.73,0,0,0,1,5,13,13,0,0,0,2.64,4.08,12.82,12.82,0,0,0,3.94,2.79,11.57,11.57,0,0,0,4.9,1,13.1,13.1,0,0,0,4.9-.93,13,13,0,0,0,4.11-2.61,11.44,11.44,0,0,0,2.76-4,13,13,0,0,0,.89-5.29,14.26,14.26,0,0,0-.86-5,11.79,11.79,0,0,0-6.51-6.87,13,13,0,0,0-5.29-1,11.57,11.57,0,0,0-4.9,1,12.82,12.82,0,0,0-3.94,2.79,13,13,0,0,0-2.64,4.08A12.69,12.69,0,0,0,79.9,33.48Z"/><path d="M154,33.91a18.3,18.3,0,0,1-1.32,7A17,17,0,0,1,149,46.5a16.73,16.73,0,0,1-5.61,3.68,19,19,0,0,1-7.19,1.32,18.76,18.76,0,0,1-7.12-1.32,16.62,16.62,0,0,1-9.3-9.26,18.3,18.3,0,0,1-1.32-7,18.27,18.27,0,0,1,1.32-7,16.67,16.67,0,0,1,9.3-9.27,18.76,18.76,0,0,1,7.12-1.32,19,19,0,0,1,7.19,1.32,16.67,16.67,0,0,1,9.3,9.27A18.27,18.27,0,0,1,154,33.91Zm-5.15,0a15.24,15.24,0,0,0-.89-5.23,12.82,12.82,0,0,0-2.54-4.22,12,12,0,0,0-4-2.82,13.82,13.82,0,0,0-10.52,0A11.49,11.49,0,0,0,127,24.46a12.93,12.93,0,0,0-2.51,4.22,15.78,15.78,0,0,0,0,10.45A12.82,12.82,0,0,0,127,43.35a11.52,11.52,0,0,0,3.93,2.83,13.95,13.95,0,0,0,10.52,0,12,12,0,0,0,4-2.83A12.72,12.72,0,0,0,148,39.13,15.14,15.14,0,0,0,148.86,33.91Z"/></g></g></svg>